<svg width="1300" height="375" fill="none" xmlns="http://www.w3.org/2000/svg"><mask id="a" style="mask-type:luminance" maskUnits="userSpaceOnUse" x="0" y="0" width="1300" height="375"><path d="M1300 0H0v375h1300V0Z" fill="#fff"/></mask><g mask="url(#a)"><path d="M1300 0H0v375h1300V0Z" fill="#E48717"/><g opacity=".5"><path d="M1730.75 376.465H491.601L751.957 0h978.793v376.465Z" fill="#FF9B01"/><path d="M816.657-3.766h-48.009L507.236 375.068h48.013L816.657-3.766Z" fill="#E07F09" fill-opacity=".9"/><path d="M811.883-3.766h4.773L555.249 375.068h-4.776L811.883-3.766Z" fill="#E07F09" fill-opacity=".9"/><path d="M769.799-3.766h-1.151L507.236 375.068h1.152L769.799-3.766ZM773.713-3.766h-1.151L511.153 375.068h1.152L773.713-3.766ZM777.633-3.766h-1.151L515.07 375.068h1.152L777.633-3.766ZM781.547-3.766h-1.151L518.987 375.068h1.152L781.547-3.766ZM785.468-3.766h-1.151L522.904 375.068h1.153L785.468-3.766ZM789.382-3.766h-1.151l-261.41 378.834h1.152L789.382-3.766ZM793.302-3.766h-1.151L530.739 375.068h1.151L793.302-3.766Z" fill="#C8500D" fill-opacity=".6"/><path d="M1262.89-3.766h-249.86L751.618 375.068h249.862L1262.89-3.766ZM987.971-3.766H816.284L554.873 375.068h171.691L987.971-3.766ZM1342.09-3.766h-70.06l-261.41 378.834h70.06L1342.09-3.766Z" fill="#E07F09" fill-opacity=".9"/><path d="M1119.97 375.067h-1.15l103.41-149.852v1.669l-102.26 148.183ZM1123.89 375.067h-1.15l99.49-144.175v1.669l-98.34 142.506ZM1127.9 375.067h-1.15l103.41-149.852v1.669L1127.9 375.067ZM1131.82 375.067h-1.16l99.49-144.175v1.669l-98.33 142.506Z" fill="#C8500D" fill-opacity=".6"/><path d="M312.014-3.766h3.271L-55.893 534.041h-3.272L312.014-3.766ZM300.89-3.766h3.272l-371.18 537.807h-3.271L300.89-3.766ZM289.766-3.766h3.272l-371.18 537.807h-3.271L289.766-3.766ZM278.642-3.766h3.272l-371.18 537.807h-3.271L278.642-3.766ZM267.518-3.766h3.272l-371.179 537.807h-3.272L267.518-3.766ZM256.394-3.766h3.272l-371.179 537.807h-3.271L256.394-3.766ZM245.27-3.766h3.272l-371.179 537.807h-3.271L245.27-3.766ZM234.146-3.766h3.272l-371.179 537.807h-3.271L234.146-3.766ZM223.023-3.766h3.271l-371.179 537.807h-3.271L223.023-3.766ZM211.899-3.766h3.271l-371.178 537.807h-3.272L211.899-3.766ZM200.775-3.766h3.271l-371.178 537.807h-3.272L200.775-3.766ZM189.651-3.766h3.271l-371.178 537.807h-3.272L189.651-3.766ZM178.527-3.766h3.271L-189.38 534.041h-3.272L178.527-3.766ZM167.403-3.766h3.272l-371.179 537.807h-3.272L167.403-3.766ZM156.279-3.766h3.272l-371.179 537.807h-3.272L156.279-3.766ZM145.155-3.766h3.272l-371.179 537.807h-3.272L145.155-3.766ZM134.031-3.766h3.272l-371.179 537.807h-3.272L134.031-3.766ZM122.907-3.766h3.272L-245 534.041h-3.272L122.907-3.766ZM111.783-3.766h3.272l-371.179 537.807h-3.272L111.783-3.766ZM100.659-3.766h3.272l-371.179 537.807h-3.272L100.659-3.766ZM89.535-3.766h3.272l-371.179 537.807h-3.272L89.536-3.766ZM78.411-3.766h3.272l-371.179 537.807h-3.271L78.411-3.766ZM67.288-3.766h3.271l-371.178 537.807h-3.272L67.288-3.766ZM56.164-3.766h3.271l-371.178 537.807h-3.272L56.164-3.766ZM45.04-3.766h3.272l-371.179 537.807h-3.272L45.04-3.766ZM33.916-3.766h3.272l-371.179 537.807h-3.271L33.916-3.766ZM22.792-3.766h3.272l-371.179 537.807h-3.271L22.792-3.766ZM11.668-3.766h3.272L-356.24 534.041h-3.271L11.668-3.766ZM.544-3.766h3.272l-371.178 537.807h-3.272L.544-3.766ZM446.422 148.158h-1.152L183.859 526.992h1.152l261.411-378.834ZM450.338 148.158h-1.151l-261.41 378.834h1.151l261.41-378.834ZM454.256 148.158h-1.152l-261.41 378.834h1.152l261.41-378.834ZM458.173 148.158h-1.152L195.61 526.992h1.153l261.41-378.834ZM462.09 148.158h-1.152l-261.41 378.834h1.152l261.41-378.834ZM466.007 148.158h-1.152l-261.41 378.834h1.152l261.41-378.834ZM469.924 148.158h-1.152l-261.41 378.834h1.152l261.41-378.834ZM473.841 148.158h-1.152l-261.41 378.834h1.152l261.41-378.834ZM477.759 148.158h-1.153l-261.41 378.834h1.152l261.411-378.834ZM481.676 148.158h-1.152l-261.41 378.834h1.152l261.41-378.834ZM485.592 148.158h-1.151L223.03 526.992h1.152l261.41-378.834ZM489.51 148.158h-1.152l-261.41 378.834h1.152l261.41-378.834ZM493.427 148.158h-1.152l-261.41 378.834h1.152l261.41-378.834ZM403.333 148.158h-1.152l-261.41 378.834h1.152l261.41-378.834ZM407.25 148.158h-1.152l-261.41 378.834h1.152l261.41-378.834ZM411.167 148.158h-1.152l-261.41 378.834h1.152l261.41-378.834ZM415.085 148.158h-1.152L152.522 526.992h1.152l261.411-378.834ZM419.002 148.158h-1.152L156.44 526.992h1.151l261.411-378.834ZM422.919 148.158h-1.152l-261.41 378.834h1.151l261.411-378.834ZM426.836 148.158h-1.152l-261.41 378.834h1.152l261.41-378.834ZM430.753 148.158h-1.152L168.19 526.992h1.153l261.41-378.834ZM434.67 148.158h-1.152l-261.41 378.834h1.152l261.41-378.834ZM438.587 148.158h-1.152l-261.41 378.834h1.152l261.41-378.834ZM442.504 148.158h-1.152l-261.41 378.834h1.152l261.41-378.834Z" fill="#D36611"/><path d="M446.422 148.158h-1.152L183.859 526.992h1.152l261.411-378.834ZM450.338 148.158h-1.151l-261.41 378.834h1.151l261.41-378.834ZM540.432 148.158h-1.152L277.87 526.992h1.152l261.41-378.834ZM544.349 148.158h-1.151L281.787 526.992h1.152l261.41-378.834ZM548.267 148.158h-1.152L285.704 526.992h1.153l261.41-378.834ZM552.184 148.158h-1.152l-261.41 378.834h1.152l261.41-378.834ZM556.101 148.158h-1.152l-261.41 378.834h1.152l261.41-378.834ZM560.018 148.158h-1.152l-261.41 378.834h1.152l261.41-378.834ZM563.935 148.158h-1.152l-261.41 378.834h1.152l261.41-378.834ZM567.852 148.158H566.7L305.29 526.992h1.152l261.41-378.834ZM571.769 148.158h-1.151L309.207 526.992h1.152l261.41-378.834ZM575.687 148.158h-1.152L313.124 526.992h1.153l261.41-378.834ZM579.604 148.158h-1.152l-261.41 378.834h1.152l261.41-378.834ZM583.521 148.158h-1.152l-261.41 378.834h1.152l261.41-378.834ZM587.438 148.158h-1.152l-261.41 378.834h1.152l261.41-378.834ZM497.344 148.158h-1.152l-261.41 378.834h1.152l261.41-378.834ZM501.262 148.158h-1.153l-261.41 378.834h1.152l261.411-378.834ZM505.178 148.158h-1.152l-261.41 378.834h1.152l261.41-378.834ZM509.095 148.158h-1.152l-261.41 378.834h1.152l261.41-378.834ZM513.012 148.158h-1.151L250.45 526.992h1.152l261.41-378.834ZM516.93 148.158h-1.152L254.367 526.992h1.153l261.41-378.834ZM520.847 148.158h-1.152l-261.41 378.834h1.152l261.41-378.834ZM524.764 148.158h-1.152l-261.41 378.834h1.152l261.41-378.834ZM528.681 148.158h-1.152l-261.41 378.834h1.152l261.41-378.834ZM532.598 148.158h-1.152l-261.41 378.834h1.152l261.41-378.834ZM536.515 148.158h-1.152l-261.41 378.834h1.152l261.41-378.834Z" fill="#D36611"/><path d="M540.432 148.158h-1.152L277.87 526.992h1.152l261.41-378.834ZM544.349 148.158h-1.151L281.787 526.992h1.152l261.41-378.834Z" fill="#D36611"/><g opacity=".6" fill="#C8500D"><path d="M1324.47-234.793h-2.27L807.82 510.645h2.268l514.382-745.438ZM1332.18-234.793h-2.27L815.526 510.645h2.268l514.386-745.438ZM1339.88-234.793h-2.26L823.238 510.645h2.262l514.38-745.438ZM1347.59-234.793h-2.27L830.944 510.645h2.269l514.377-745.438ZM1355.3-234.793h-2.27L838.65 510.645h2.268L1355.3-234.793ZM1363.01-234.793h-2.27L846.356 510.645h2.268l514.386-745.438ZM1370.71-234.793h-2.26L854.068 510.645h2.269l514.373-745.438Z"/></g><g opacity=".6" fill="#C8500D"><path d="M1377.76-234.793h-2.27L861.117 510.645h2.269l514.374-745.438ZM1385.47-234.793h-2.26L868.823 510.645h2.268l514.379-745.438ZM1393.18-234.793h-2.27L876.529 510.645h2.268l514.383-745.438ZM1400.89-234.793h-2.27L884.241 510.645h2.262l514.387-745.438ZM1408.59-234.793h-2.26L891.947 510.645h2.269l514.374-745.438ZM1416.31-234.793h-2.27L899.653 510.645h2.268l514.389-745.438ZM1424.01-234.793h-2.27L907.365 510.645h2.262l514.383-745.438Z"/></g><path d="M1734.82-3.766h-385.26l-261.41 378.834h385.27l261.4-378.834Z" fill="#E07F09" fill-opacity=".9"/><path opacity=".6" fill-rule="evenodd" clip-rule="evenodd" d="M1211.99 244.071h-1.15l240.33-348.285h1.16l-240.34 348.285Zm3.92 0h-1.15l240.33-348.285h1.15l-240.33 348.285Zm3.92 0h-1.15l240.33-348.285h1.15l-240.33 348.285Zm3.92 0h-1.15l240.33-348.285h1.15l-240.33 348.285Zm3.91 0h-1.15l240.33-348.285h1.16l-240.34 348.285Zm3.92 0h-1.15l240.33-348.285h1.15l-240.33 348.285Zm3.92 0h-1.15l240.32-348.285h1.16L1235.5 244.071Zm3.92 0h-1.15l240.33-348.285h1.15l-240.33 348.285Zm3.91 0h-1.15l240.33-348.285h1.15l-240.33 348.285Zm3.92 0h-1.16l240.34-348.285h1.15l-240.33 348.285Zm3.92 0h-1.15l240.32-348.285h1.15l-240.32 348.285Zm3.92 0h-1.16l240.33-348.285h1.15l-240.32 348.285Zm3.91 0h-1.15l240.33-348.285h1.15L1259 244.071Zm3.92 0h-1.16l240.34-348.285h1.15l-240.33 348.285Zm3.92 0h-1.16l240.33-348.285h1.15l-240.32 348.285Zm3.92 0h-1.16l240.33-348.285h1.15l-240.32 348.285Zm3.91 0h-1.15l240.33-348.285h1.15l-240.33 348.285Zm3.92 0h-1.16l240.34-348.285h1.15l-240.33 348.285Zm3.91 0h-1.15l240.33-348.285h1.15L1282.5 244.071Zm3.92 0h-1.15l240.33-348.285h1.15l-240.33 348.285Zm3.92 0h-1.15l240.33-348.285h1.15l-240.33 348.285Zm3.91 0h-1.15l240.34-348.285h1.15l-240.34 348.285Zm3.92 0h-1.15l240.33-348.285h1.15l-240.33 348.285Zm3.92 0h-1.15l240.33-348.285h1.15l-240.33 348.285Zm3.92 0h-1.15l240.32-348.285h1.16l-240.33 348.285Zm3.91 0h-1.15l240.33-348.285h1.16l-240.34 348.285Zm3.92 0h-1.15l240.33-348.285h1.15l-240.33 348.285Zm3.92 0h-1.16l240.34-348.285h1.15l-240.33 348.285Zm3.92 0h-1.15l240.32-348.285h1.15l-240.32 348.285Zm3.91 0h-1.15l240.33-348.285h1.15l-240.33 348.285Zm3.92 0h-1.15l240.33-348.285h1.15l-240.33 348.285Zm3.91 0h-1.15l240.33-348.285h1.16l-240.34 348.285Zm3.92 0h-1.15l240.33-348.285h1.15l-240.33 348.285Zm3.92 0h-1.15l240.33-348.285h1.15l-240.33 348.285Zm3.92 0h-1.15l240.33-348.285h1.15l-240.33 348.285Zm3.91 0h-1.15l240.33-348.285h1.16l-240.34 348.285Zm3.92 0h-1.15l240.33-348.285h1.15l-240.33 348.285Zm3.92 0h-1.15l240.32-348.285h1.16l-240.33 348.285Zm3.92 0h-1.15l240.33-348.285h1.15l-240.33 348.285Zm3.91 0h-1.15l240.33-348.285h1.16l-240.34 348.285Zm3.92 0h-1.15l240.33-348.285h1.15l-240.33 348.285Zm3.92 0h-1.15l240.32-348.285h1.15L1372.6 244.071Zm3.92 0h-1.15l240.32-348.285h1.16l-240.33 348.285Z" fill="#C8500D"/></g></g></svg>