<svg width="1300" height="375" fill="none" xmlns="http://www.w3.org/2000/svg"><mask id="a" style="mask-type:luminance" maskUnits="userSpaceOnUse" x="0" y="0" width="1300" height="375"><path d="M1300 0H0v375h1300V0Z" fill="#fff"/></mask><g mask="url(#a)"><path d="M1300 0H0v375h1300V0Z" fill="#E48717"/><g opacity=".5"><path d="M1730.75 376.465H491.601L751.957 0h978.793v376.465Z" fill="#FF9B01"/><path d="M816.657-3.766h-48.009L507.236 375.068h48.013L816.657-3.766Z" fill="#E07F09" fill-opacity=".9"/><path d="M811.883-3.766h4.773L555.249 375.068h-4.776L811.883-3.766Z" fill="#E07F09" fill-opacity=".9"/><path d="M769.799-3.766h-1.151L507.236 375.068h1.152L769.799-3.766Zm3.914 0h-1.151L511.153 375.068h1.152L773.713-3.766Zm3.92 0h-1.151L515.07 375.068h1.152L777.633-3.766Zm3.914 0h-1.151L518.987 375.068h1.152L781.547-3.766Zm3.921 0h-1.151L522.904 375.068h1.153L785.468-3.766Zm3.914 0h-1.151l-261.41 378.834h1.152L789.382-3.766Zm3.92 0h-1.151L530.739 375.068h1.151L793.302-3.766Z" fill="#C8500D" fill-opacity=".6"/><path d="M1262.89-3.766h-249.86L751.618 375.068h249.862L1262.89-3.766Zm-274.919 0H816.284L554.873 375.068h171.691L987.971-3.766Zm354.119 0h-70.06l-261.41 378.834h70.06L1342.09-3.766Z" fill="#E07F09" fill-opacity=".9"/><path d="M1119.97 375.067h-1.15l103.41-149.852v1.669l-102.26 148.183Zm3.92 0h-1.15l99.49-144.175v1.669l-98.34 142.506Zm4.01 0h-1.15l103.41-149.852v1.669L1127.9 375.067Zm3.92 0h-1.16l99.49-144.175v1.669l-98.33 142.506Z" fill="#C8500D" fill-opacity=".6"/><path d="M312.014-3.766h3.271L-55.893 534.041h-3.272L312.014-3.766Zm-11.124 0h3.272l-371.18 537.807h-3.271L300.89-3.766Zm-11.124 0h3.272l-371.18 537.807h-3.271L289.766-3.766Zm-11.124 0h3.272l-371.18 537.807h-3.271L278.642-3.766Zm-11.124 0h3.272l-371.179 537.807h-3.272L267.518-3.766Zm-11.124 0h3.272l-371.179 537.807h-3.271L256.394-3.766Zm-11.124 0h3.272l-371.179 537.807h-3.271L245.27-3.766Zm-11.124 0h3.272l-371.179 537.807h-3.271L234.146-3.766Zm-11.123 0h3.271l-371.179 537.807h-3.271L223.023-3.766Zm-11.124 0h3.271l-371.178 537.807h-3.272L211.899-3.766Zm-11.124 0h3.271l-371.178 537.807h-3.272L200.775-3.766Zm-11.124 0h3.271l-371.178 537.807h-3.272L189.651-3.766Zm-11.124 0h3.271L-189.38 534.041h-3.272L178.527-3.766Zm-11.124 0h3.272l-371.179 537.807h-3.272L167.403-3.766Zm-11.124 0h3.272l-371.179 537.807h-3.272L156.279-3.766Zm-11.124 0h3.272l-371.179 537.807h-3.272L145.155-3.766Zm-11.124 0h3.272l-371.179 537.807h-3.272L134.031-3.766Zm-11.124 0h3.272L-245 534.041h-3.272L122.907-3.766Zm-11.124 0h3.272l-371.179 537.807h-3.272L111.783-3.766Zm-11.124 0h3.272l-371.179 537.807h-3.272L100.659-3.766Zm-11.124 0h3.272l-371.179 537.807h-3.272L89.536-3.766Zm-11.124 0h3.272l-371.179 537.807h-3.271L78.411-3.766Zm-11.123 0h3.271l-371.178 537.807h-3.272L67.288-3.766Zm-11.124 0h3.271l-371.178 537.807h-3.272L56.164-3.766Zm-11.124 0h3.272l-371.179 537.807h-3.272L45.04-3.766Zm-11.124 0h3.272l-371.179 537.807h-3.271L33.916-3.766Zm-11.124 0h3.272l-371.179 537.807h-3.271L22.792-3.766Zm-11.124 0h3.272l-371.18 537.807h-3.271L11.668-3.766Zm-11.124 0h3.272l-371.178 537.807h-3.272L.544-3.766Zm445.878 151.924h-1.152L183.859 526.992h1.152l261.411-378.834Zm3.916 0h-1.151l-261.41 378.834h1.151l261.41-378.834Zm3.918 0h-1.152l-261.41 378.834h1.152l261.41-378.834Zm3.917 0h-1.152L195.61 526.992h1.153l261.41-378.834Zm3.917 0h-1.152l-261.41 378.834h1.152l261.41-378.834Zm3.917 0h-1.152l-261.41 378.834h1.152l261.41-378.834Zm3.917 0h-1.152l-261.41 378.834h1.152l261.41-378.834Zm3.917 0h-1.152l-261.41 378.834h1.152l261.41-378.834Zm3.918 0h-1.153l-261.41 378.834h1.152l261.411-378.834Zm3.917 0h-1.152l-261.41 378.834h1.152l261.41-378.834Zm3.916 0h-1.151L223.03 526.992h1.152l261.41-378.834Zm3.918 0h-1.152l-261.41 378.834h1.152l261.41-378.834Zm3.917 0h-1.152l-261.41 378.834h1.152l261.41-378.834Zm-90.094 0h-1.152l-261.41 378.834h1.152l261.41-378.834Zm3.917 0h-1.152l-261.41 378.834h1.152l261.41-378.834Zm3.917 0h-1.152l-261.41 378.834h1.152l261.41-378.834Zm3.918 0h-1.152L152.522 526.992h1.152l261.411-378.834Zm3.917 0h-1.152L156.44 526.992h1.151l261.411-378.834Zm3.917 0h-1.152l-261.41 378.834h1.151l261.411-378.834Zm3.917 0h-1.152l-261.41 378.834h1.152l261.41-378.834Zm3.917 0h-1.152L168.19 526.992h1.153l261.41-378.834Zm3.917 0h-1.152l-261.41 378.834h1.152l261.41-378.834Zm3.917 0h-1.152l-261.41 378.834h1.152l261.41-378.834Zm3.917 0h-1.152l-261.41 378.834h1.152l261.41-378.834Z" fill="#D36611"/><path d="M446.422 148.158h-1.152L183.859 526.992h1.152l261.411-378.834Zm3.916 0h-1.151l-261.41 378.834h1.151l261.41-378.834Zm90.094 0h-1.152L277.87 526.992h1.152l261.41-378.834Zm3.917 0h-1.151L281.787 526.992h1.152l261.41-378.834Zm3.918 0h-1.152L285.704 526.992h1.153l261.41-378.834Zm3.917 0h-1.152l-261.41 378.834h1.152l261.41-378.834Zm3.917 0h-1.152l-261.41 378.834h1.152l261.41-378.834Zm3.917 0h-1.152l-261.41 378.834h1.152l261.41-378.834Zm3.917 0h-1.152l-261.41 378.834h1.152l261.41-378.834Zm3.917 0H566.7L305.29 526.992h1.152l261.41-378.834Zm3.917 0h-1.151L309.207 526.992h1.152l261.41-378.834Zm3.918 0h-1.152L313.124 526.992h1.153l261.41-378.834Zm3.917 0h-1.152l-261.41 378.834h1.152l261.41-378.834Zm3.917 0h-1.152l-261.41 378.834h1.152l261.41-378.834Zm3.917 0h-1.152l-261.41 378.834h1.152l261.41-378.834Zm-90.094 0h-1.152l-261.41 378.834h1.152l261.41-378.834Zm3.918 0h-1.153l-261.41 378.834h1.152l261.411-378.834Zm3.916 0h-1.152l-261.41 378.834h1.152l261.41-378.834Zm3.917 0h-1.152l-261.41 378.834h1.152l261.41-378.834Zm3.917 0h-1.151L250.45 526.992h1.152l261.41-378.834Zm3.918 0h-1.152L254.367 526.992h1.153l261.41-378.834Zm3.917 0h-1.152l-261.41 378.834h1.152l261.41-378.834Zm3.917 0h-1.152l-261.41 378.834h1.152l261.41-378.834Zm3.917 0h-1.152l-261.41 378.834h1.152l261.41-378.834Zm3.917 0h-1.152l-261.41 378.834h1.152l261.41-378.834Zm3.917 0h-1.152l-261.41 378.834h1.152l261.41-378.834Z" fill="#D36611"/><path d="M540.432 148.158h-1.152L277.87 526.992h1.152l261.41-378.834Zm3.917 0h-1.151L281.787 526.992h1.152l261.41-378.834Z" fill="#D36611"/><path d="M1324.47-234.793h-2.27L807.82 510.645h2.268l514.382-745.438Zm7.71 0h-2.27L815.526 510.645h2.268l514.386-745.438Zm7.7 0h-2.26L823.238 510.645h2.262l514.38-745.438Zm7.71 0h-2.27L830.944 510.645h2.269l514.377-745.438Zm7.71 0h-2.27L838.65 510.645h2.268L1355.3-234.793Zm7.71 0h-2.27L846.356 510.645h2.268l514.386-745.438Zm7.7 0h-2.26L854.068 510.645h2.269l514.373-745.438ZM1377.76-234.793h-2.27L861.117 510.645h2.269l514.374-745.438Zm7.71 0h-2.26L868.823 510.645h2.268l514.379-745.438Zm7.71 0h-2.27L876.529 510.645h2.268l514.383-745.438Zm7.71 0h-2.27L884.241 510.645h2.262l514.387-745.438Zm7.7 0h-2.26L891.947 510.645h2.269l514.374-745.438Zm7.72 0h-2.27L899.653 510.645h2.268l514.389-745.438Zm7.7 0h-2.27L907.365 510.645h2.262l514.383-745.438Z" opacity=".6" fill="#C8500D"/><path d="M1734.82-3.766h-385.26l-261.41 378.834h385.27l261.4-378.834Z" fill="#E07F09" fill-opacity=".9"/><path opacity=".6" fill-rule="evenodd" clip-rule="evenodd" d="M1211.99 244.071h-1.15l240.33-348.285h1.16l-240.34 348.285Zm3.92 0h-1.15l240.33-348.285h1.15l-240.33 348.285Zm3.92 0h-1.15l240.33-348.285h1.15l-240.33 348.285Zm3.92 0h-1.15l240.33-348.285h1.15l-240.33 348.285Zm3.91 0h-1.15l240.33-348.285h1.16l-240.34 348.285Zm3.92 0h-1.15l240.33-348.285h1.15l-240.33 348.285Zm3.92 0h-1.15l240.32-348.285h1.16L1235.5 244.071Zm3.92 0h-1.15l240.33-348.285h1.15l-240.33 348.285Zm3.91 0h-1.15l240.33-348.285h1.15l-240.33 348.285Zm3.92 0h-1.16l240.34-348.285h1.15l-240.33 348.285Zm3.92 0h-1.15l240.32-348.285h1.15l-240.32 348.285Zm3.92 0h-1.16l240.33-348.285h1.15l-240.32 348.285Zm3.91 0h-1.15l240.33-348.285h1.15L1259 244.071Zm3.92 0h-1.16l240.34-348.285h1.15l-240.33 348.285Zm3.92 0h-1.16l240.33-348.285h1.15l-240.32 348.285Zm3.92 0h-1.16l240.33-348.285h1.15l-240.32 348.285Zm3.91 0h-1.15l240.33-348.285h1.15l-240.33 348.285Zm3.92 0h-1.16l240.34-348.285h1.15l-240.33 348.285Zm3.91 0h-1.15l240.33-348.285h1.15L1282.5 244.071Zm3.92 0h-1.15l240.33-348.285h1.15l-240.33 348.285Zm3.92 0h-1.15l240.33-348.285h1.15l-240.33 348.285Zm3.91 0h-1.15l240.34-348.285h1.15l-240.34 348.285Zm3.92 0h-1.15l240.33-348.285h1.15l-240.33 348.285Zm3.92 0h-1.15l240.33-348.285h1.15l-240.33 348.285Zm3.92 0h-1.15l240.32-348.285h1.16l-240.33 348.285Zm3.91 0h-1.15l240.33-348.285h1.16l-240.34 348.285Zm3.92 0h-1.15l240.33-348.285h1.15l-240.33 348.285Zm3.92 0h-1.16l240.34-348.285h1.15l-240.33 348.285Zm3.92 0h-1.15l240.32-348.285h1.15l-240.32 348.285Zm3.91 0h-1.15l240.33-348.285h1.15l-240.33 348.285Zm3.92 0h-1.15l240.33-348.285h1.15l-240.33 348.285Zm3.91 0h-1.15l240.33-348.285h1.16l-240.34 348.285Zm3.92 0h-1.15l240.33-348.285h1.15l-240.33 348.285Zm3.92 0h-1.15l240.33-348.285h1.15l-240.33 348.285Zm3.92 0h-1.15l240.33-348.285h1.15l-240.33 348.285Zm3.91 0h-1.15l240.33-348.285h1.16l-240.34 348.285Zm3.92 0h-1.15l240.33-348.285h1.15l-240.33 348.285Zm3.92 0h-1.15l240.32-348.285h1.16l-240.33 348.285Zm3.92 0h-1.15l240.33-348.285h1.15l-240.33 348.285Zm3.91 0h-1.15l240.33-348.285h1.16l-240.34 348.285Zm3.92 0h-1.15l240.33-348.285h1.15l-240.33 348.285Zm3.92 0h-1.15l240.32-348.285h1.15L1372.6 244.071Zm3.92 0h-1.15l240.32-348.285h1.16l-240.33 348.285Z" fill="#C8500D"/></g></g></svg>