<svg width="609" height="160" viewBox="0 0 609 160" fill="none" xmlns="http://www.w3.org/2000/svg">
<g clip-path="url(#clip0_407_5869)">
<path d="M272.129 130.2V114.487C272.083 108.166 272.017 101.849 271.931 95.5346C271.812 84.5079 271.683 73.4912 271.683 62.4448C271.683 60.0175 271.564 57.6101 271.495 55.2126C271.386 51.864 271.277 48.5352 271.277 45.1866V28.6714C271.396 27.4114 271.07 26.1493 270.355 25.1049C269.944 24.6423 269.431 24.281 268.857 24.049C268.283 23.817 267.664 23.7207 267.046 23.7674L260.973 23.5494C260.403 23.5469 259.834 23.5867 259.269 23.6683C258.787 23.7333 258.339 23.9522 257.991 24.2925C257.671 24.6587 257.474 25.116 257.427 25.6002C257.352 26.1716 257.322 26.748 257.337 27.3241C257.516 41.7554 257.605 56.2165 257.605 70.7073V100.567C257.605 103.629 257.694 106.67 257.744 109.722C257.833 114.794 257.922 119.857 257.922 124.929V137.59H258.705C260.27 137.501 261.776 137.432 263.242 137.372C265.59 137.263 267.829 137.174 270.058 137.006H270.137H270.217C270.642 136.877 271.027 136.641 271.336 136.322C271.643 136.004 271.861 135.611 271.97 135.183L272.248 134.083L271.871 134.143C272.044 132.835 272.13 131.518 272.129 130.2ZM270.643 130.2C270.644 131.757 270.512 133.311 270.246 134.846L270.177 135.302C270.08 135.383 269.969 135.447 269.85 135.49C267.671 135.648 265.501 135.748 263.212 135.847L259.408 136.025V124.929C259.408 119.847 259.319 114.754 259.23 109.672C259.18 106.631 259.121 103.589 259.091 100.557V70.6974C259.091 56.2066 259.002 41.7422 258.824 27.3042C258.813 26.8013 258.836 26.2982 258.893 25.7983C258.898 25.6155 258.961 25.4389 259.071 25.2931C259.205 25.1875 259.367 25.1252 259.537 25.1148C260.019 25.0446 260.506 25.0115 260.993 25.0157C262.977 24.9791 264.962 25.0519 266.937 25.2336H267.007C267.408 25.1825 267.815 25.2267 268.195 25.3627C268.576 25.4988 268.919 25.7227 269.196 26.0163C269.684 26.796 269.894 27.7178 269.791 28.6318V45.1668C269.791 48.5253 269.9 51.9135 270.009 55.2918C270.078 57.6894 270.157 60.077 270.197 62.4448C270.197 73.4912 270.326 84.5278 270.445 95.5544C270.524 101.869 270.59 108.179 270.643 114.487V130.2Z" fill="#646566"/>
<path d="M295.619 131.705C295.569 125.563 295.52 119.401 295.52 113.149L295.113 51.4972V48.5251H294.895V16.8223C294.856 14.979 294.707 13.1396 294.45 11.3139C294.522 9.86596 294.268 8.42025 293.707 7.08358C293.142 5.72121 292.267 4.50992 291.15 3.54675C290.042 2.57211 288.723 1.86687 287.297 1.48606C285.897 1.10851 284.431 1.05095 283.007 1.31764C280.49 1.31764 277.944 1.41671 275.339 1.52568C273.357 1.60494 271.376 1.6842 269.325 1.72382H244.24C243.319 1.72382 242.388 1.72383 241.476 1.79318H240.168C238.876 1.85179 237.582 1.81537 236.295 1.6842C234.492 1.5455 232.986 1.6842 231.965 2.59566C230.945 3.50711 230.628 4.98327 230.677 6.89534C230.677 13.0477 230.677 19.2991 230.985 25.4712V25.7288C230.985 30.5536 231.143 35.3981 231.292 40.2229C231.292 41.8179 231.391 43.4229 231.43 45.0179C231.43 49.5257 231.638 54.0532 231.837 58.5709C231.985 61.6817 232.124 64.7827 232.193 67.8737V85.7065C232.193 90.5313 232.282 95.356 232.372 100.171C232.372 103.064 232.471 105.947 232.51 108.84C232.51 111.941 232.58 115.071 232.639 118.182C232.698 120.649 232.758 123.136 232.768 125.533V154.759C232.647 155.986 232.925 157.219 233.56 158.276C233.958 158.736 234.449 159.106 235.001 159.361C235.553 159.615 236.153 159.749 236.76 159.752H241.793L280.718 159.346C285.761 159.346 289.575 158.217 292.102 155.611C294.628 153.006 295.718 149.112 295.698 143.921C295.678 139.819 295.648 135.767 295.619 131.705ZM291.022 154.561C288.892 156.75 285.563 157.84 280.708 157.84L241.793 158.276H236.84C236.444 158.288 236.05 158.216 235.684 158.064C235.319 157.912 234.99 157.684 234.72 157.394C234.282 156.611 234.099 155.711 234.194 154.819V125.583C234.194 123.096 234.125 120.629 234.066 118.172C233.996 115.081 233.937 112 233.937 108.889C233.937 105.976 233.848 103.084 233.798 100.191C233.709 95.3857 233.62 90.5907 233.62 85.7758V67.943C233.541 64.7827 233.402 61.652 233.263 58.5313C233.065 54.0632 232.857 49.6149 232.857 45.1071C232.857 43.4923 232.768 41.8873 232.718 40.2724C232.56 35.4576 232.411 30.6526 232.411 25.8477V25.5406C232.104 19.3981 232.104 13.1665 232.104 7.00432C232.054 5.1715 232.381 4.28977 232.887 3.84395C233.392 3.39813 234.353 3.17028 236.107 3.29907C237.462 3.4423 238.827 3.48203 240.188 3.41795H241.536C242.437 3.41795 243.319 3.34859 244.211 3.34859H269.315C271.435 3.34859 273.456 3.22971 275.438 3.15045C278.014 3.04147 280.51 2.94241 283.046 2.94241H283.195C284.421 2.70249 285.685 2.74654 286.89 3.07119C288.094 3.39523 289.208 3.98801 290.15 4.80494C291.084 5.62032 291.823 6.63633 292.31 7.77708C292.793 8.92888 293.006 10.1759 292.934 11.4229V11.5715C293.196 13.3568 293.345 15.1569 293.38 16.961V50.1102H293.598V51.6359L294.004 113.278C294.004 119.539 294.004 125.711 294.103 131.854C294.103 135.916 294.129 139.974 294.182 144.03C294.232 148.934 293.162 152.332 291.022 154.561Z" fill="#646566"/>
<path fill-rule="evenodd" clip-rule="evenodd" d="M408.302 1.84271L400.634 2.19936C396.85 2.37769 393.075 2.56593 389.271 2.69472C388.676 2.69472 388.488 2.84331 388.419 2.91266C388.349 2.98201 388.23 3.18015 388.23 3.90337C388.528 23.2223 388.812 42.5643 389.082 61.9294V64.634H383.881C383.412 64.622 382.948 64.7422 382.544 64.9808C382.387 65.1121 382.266 65.2807 382.191 65.4712C382.117 65.6616 382.092 65.8678 382.118 66.0706C382.336 73.0749 382.563 80.0297 382.871 86.9845V87.0737C382.857 87.2906 382.894 87.5078 382.98 87.7077C383.064 87.9113 383.197 88.0915 383.366 88.2328C383.533 88.374 383.729 88.4756 383.941 88.53C384.156 88.5796 384.379 88.5796 384.594 88.53H384.674H389.974V152.817C390.029 154.132 390.256 155.435 390.648 156.691C390.702 156.831 390.783 156.959 390.885 157.067C391.024 157.145 391.175 157.199 391.331 157.226C397.404 157.622 403.527 157.622 409.63 157.622C409.909 157.647 410.191 157.608 410.453 157.509C410.716 157.409 410.952 157.251 411.146 157.048C411.523 156.511 411.702 155.859 411.651 155.205V110.385C411.651 107.77 411.522 105.164 411.413 102.549V102.142C411.294 99.3882 411.185 96.634 411.185 93.87V88.2526L411.839 88.1734C417.028 87.5393 422.274 87.5393 427.463 88.1734L428.116 88.2526V91.4031C428.384 104.134 428.384 116.854 428.384 129.575C428.384 133.716 428.334 137.848 428.265 141.979V142.801C428.196 146.655 428.136 150.509 428.136 154.353C428.136 155.938 428.394 156.622 428.8 156.978C429.206 157.335 430.088 157.583 431.842 157.583L435.527 157.414C440.599 157.186 445.711 156.958 450.824 156.958C451.606 156.958 451.864 156.81 451.973 156.701C452.082 156.592 452.22 156.285 452.22 155.512C452.22 154.739 452.22 153.699 452.22 152.807C452.22 149.716 452.22 146.734 452.082 143.95C451.692 123.324 451.335 102.595 451.012 81.7634V62.9399C450.655 45.3449 450.655 27.4823 450.655 9.6297V5.16158C450.655 4.17087 450.467 3.75478 450.279 3.57645C450.09 3.39812 449.694 3.2297 448.763 3.2297H431.703C431.011 3.17024 430.315 3.17024 429.622 3.2297L429.533 2.48666L429.593 3.2297C428.473 3.35849 428.077 3.57644 427.879 3.81421C427.681 4.05198 427.532 4.58697 427.532 5.79564C427.71 12.8165 427.895 19.8406 428.087 26.8681C428.278 33.9021 428.466 40.9362 428.651 47.9703V60.6712C428.788 61.6437 428.558 62.6322 428.007 63.4452C427.619 63.8221 427.148 64.1027 426.632 64.2644C426.116 64.4262 425.569 64.4645 425.035 64.3764C423.818 64.3551 422.601 64.4014 421.389 64.5151H420.934C419.844 64.6043 418.764 64.6935 417.783 64.6935H410.482V4.09161C410.498 3.55895 410.475 3.02581 410.412 2.49656C410.412 2.14981 410.284 2.07057 410.264 2.06066C410.244 2.05076 410.155 1.97149 409.808 1.93187C409.308 1.87646 408.805 1.84671 408.302 1.84271ZM411.889 2.23898C411.964 2.84016 411.994 3.44627 411.978 4.05199V63.1678H417.833C418.744 63.1678 419.814 63.0885 420.854 62.9994H421.31C422.584 62.8755 423.864 62.8259 425.144 62.8507C426.284 62.8507 426.7 62.6625 426.888 62.4446C427.076 62.2266 427.225 61.7015 427.185 60.6811V47.9306C427.007 40.9032 426.819 33.879 426.62 26.8582C426.422 19.8373 426.237 12.8033 426.066 5.75602C425.955 4.74007 426.193 3.71677 426.739 2.85322C427.091 2.4919 427.511 2.20487 427.976 2.00916C428.441 1.81345 428.94 1.71305 429.444 1.71391C430.218 1.64458 430.998 1.64458 431.772 1.71391H448.753C449.672 1.62377 450.59 1.89767 451.309 2.47676C451.617 2.84145 451.849 3.26449 451.99 3.72065C452.132 4.17682 452.179 4.65676 452.131 5.13186V9.59997C452.131 27.4328 452.131 45.2656 452.488 62.8805V81.704C452.818 102.516 453.175 123.235 453.558 143.861C453.726 146.685 453.716 149.736 453.697 152.778C453.697 153.669 453.697 154.551 453.697 155.443C453.775 156.236 453.54 157.029 453.043 157.652C452.74 157.917 452.386 158.118 452.002 158.243C451.619 158.367 451.215 158.412 450.814 158.375C445.741 158.375 440.669 158.603 435.596 158.831L431.871 158.999C430.147 158.999 428.76 158.831 427.849 158.009C426.937 157.186 426.67 155.879 426.67 154.254C426.67 150.39 426.729 146.536 426.799 142.682V141.85C426.868 137.719 426.937 133.607 426.918 129.486C426.918 116.765 426.918 104.054 426.65 91.3436V89.491C422.011 88.9759 417.33 88.9759 412.691 89.491V93.7907C412.691 96.5152 412.8 99.2495 412.919 101.994V102.42C413.028 105.025 413.137 107.661 413.157 110.296V155.116C413.212 156.118 412.91 157.108 412.305 157.91C411.975 158.283 411.564 158.577 411.104 158.769C410.645 158.961 410.147 159.047 409.65 159.019C403.537 159.019 397.355 159.019 391.222 158.623H391.084C390.698 158.557 390.33 158.412 390.004 158.197H389.954H389.905C389.605 157.922 389.371 157.584 389.221 157.206C388.791 155.81 388.542 154.365 388.478 152.906V90.0557H384.842C384.43 90.1398 384.006 90.1398 383.594 90.0557C383.155 89.9463 382.748 89.736 382.405 89.4415C382.056 89.1559 381.784 88.7882 381.612 88.3715C381.443 87.9675 381.365 87.5311 381.385 87.0935C381.077 80.1585 380.85 73.2235 380.632 66.1895C380.6 65.7564 380.674 65.3222 380.846 64.9237C381.019 64.5252 381.285 64.1743 381.622 63.9009C382.273 63.4762 383.035 63.2522 383.812 63.2569H387.557V62.0483C387.286 42.6831 387.002 23.3412 386.705 4.02227C386.641 3.30675 386.862 2.595 387.319 2.04084C387.821 1.60489 388.467 1.36868 389.132 1.37707C392.936 1.24828 396.701 1.06995 400.476 0.881713L408.183 0.534958H408.263C408.815 0.521259 409.367 0.541108 409.917 0.594398C410.395 0.617679 410.851 0.798881 411.215 1.10957C411.557 1.40236 411.793 1.79904 411.889 2.23898Z" fill="#646566"/>
<path fill-rule="evenodd" clip-rule="evenodd" d="M27.8489 1.94184C24.0545 2.07063 20.27 2.24896 16.4756 2.43719L8.85699 2.78395C8.1734 2.78395 7.95544 2.90283 7.86628 2.98209C7.77711 3.06134 7.65823 3.2793 7.65823 3.9728C7.98846 23.3974 8.28568 42.8417 8.54987 62.3059V64.7431H3.08114C2.64511 64.7234 2.21535 64.8526 1.86256 65.1096C1.71981 65.2642 1.61223 65.4478 1.54725 65.6479C1.48226 65.848 1.46139 66.0598 1.48609 66.2688C1.71396 73.2038 1.93191 80.0892 2.1994 87.0044V87.1827C2.15989 87.3822 2.15989 87.5875 2.1994 87.787C2.28744 87.962 2.39729 88.1251 2.52634 88.2725C2.70416 88.4125 2.90542 88.5199 3.12077 88.5895C3.3091 88.6391 3.50704 88.6391 3.69538 88.5895H3.79445H9.07495V152.867C9.02829 153.832 9.05478 154.799 9.1542 155.76C9.17943 156.265 9.3554 156.752 9.65947 157.157C9.9809 157.484 10.4032 157.693 10.8582 157.751C11.7485 157.899 12.6508 157.962 13.553 157.939H28.8694C29.5715 158.029 30.2811 157.844 30.8508 157.424C31.0375 157.197 31.1759 156.934 31.2576 156.651C31.3394 156.368 31.3628 156.072 31.3263 155.78C31.5443 149.994 31.5443 144.198 31.5443 138.393V119.787C31.5314 119.18 31.4818 118.575 31.3957 117.974C31.303 117.337 31.2468 116.695 31.2273 116.052C31.1339 115.064 31.1074 114.071 31.148 113.08C31.148 112.733 31.148 112.396 31.148 112.089C31.148 111.435 31.148 110.801 31.148 110.108C30.8409 103.272 30.8409 96.426 30.8409 89.5703C30.8416 89.3913 30.9007 89.2173 31.0093 89.075L31.1579 88.9264V88.4904L31.8118 88.4112C36.8243 87.8266 41.8878 87.8266 46.9003 88.4112L47.4056 88.4706L47.5245 88.966C47.5975 89.2922 47.5975 89.6305 47.5245 89.9567V154.502C47.5245 155.968 47.7325 156.651 48.0694 156.998C48.4062 157.345 48.9907 157.553 50.3381 157.553C52.6564 157.494 54.9944 157.404 57.3523 157.315C61.6718 157.147 66.0409 156.978 70.3505 156.978C71.1926 156.978 71.3412 156.8 71.3412 156.77C71.3991 156.667 71.4298 156.552 71.4304 156.433C71.4304 156.225 71.4304 155.968 71.4304 155.631L71.252 144.347C71.1596 139.017 71.0671 133.68 70.9746 128.337C70.7864 117.647 70.5883 106.957 70.4396 96.2774V80.2576C70.0566 55.3445 69.865 30.4644 69.865 5.61738C69.865 4.55732 69.6768 4.14122 69.4787 3.94308C69.2805 3.74494 68.8446 3.58642 67.844 3.58642H48.644H48.5548C48.3258 3.5418 48.0903 3.5418 47.8613 3.58642C47.6245 3.71659 47.4077 3.88008 47.2174 4.07188C47.0419 4.26161 46.919 4.4938 46.8607 4.74555C46.8012 5.01308 46.8012 5.29041 46.8607 5.55794V5.63719V6.31088C47.257 19.9926 47.6533 33.6347 47.9604 47.2768V61.7016C47.951 62.0022 47.8838 62.2983 47.7622 62.5734C47.6473 62.8494 47.5081 63.1147 47.3462 63.366C47.1785 63.6158 46.9824 63.8452 46.7616 64.0496C46.5076 64.2873 46.1778 64.4276 45.8304 64.4459H29.979V4.1214C29.9812 3.61806 29.9514 3.11509 29.8898 2.61553C29.8304 2.28859 29.761 2.21924 29.7412 2.20933C29.7214 2.19943 29.6322 2.12016 29.2954 2.08053C28.9585 2.04091 28.483 1.94184 27.8489 1.94184ZM31.366 2.24895C31.4483 2.82647 31.4881 3.40927 31.4849 3.99262V62.8409H45.7808C45.9059 62.7266 46.0157 62.5968 46.1078 62.4545C46.2156 62.288 46.3084 62.1123 46.3852 61.9295C46.4294 61.8284 46.4595 61.7217 46.4743 61.6124V47.1976C46.1672 33.5654 45.7709 19.9332 45.3746 6.25144V5.72636C45.2757 5.25931 45.2757 4.77669 45.3746 4.30964C45.4927 3.80081 45.7381 3.33036 46.0879 2.94246C46.4214 2.61195 46.8061 2.3376 47.2273 2.13007H47.2966H47.3858C47.8361 2.03095 48.3026 2.03095 48.753 2.13007H67.9728C68.9275 2.03484 69.8821 2.31165 70.6378 2.90283C70.9556 3.28007 71.1939 3.71756 71.3386 4.18911C71.4833 4.66065 71.5314 5.15655 71.4799 5.6471C71.4799 30.481 71.6714 55.3544 72.0545 80.2675V96.2873C72.1998 106.967 72.3781 117.65 72.5895 128.337C72.682 133.674 72.7744 139.013 72.8669 144.357L73.065 155.552C73.0872 155.882 73.0872 156.213 73.065 156.542C73.0424 156.892 72.9371 157.232 72.7579 157.533C72.4956 157.862 72.1521 158.118 71.7613 158.274C71.3705 158.43 70.9458 158.482 70.5288 158.425C66.239 158.425 61.9294 158.593 57.6496 158.762C55.2917 158.851 52.9239 158.94 50.566 158.999C49.9681 159.074 49.3614 159.024 48.7836 158.854C48.2058 158.683 47.6693 158.396 47.2075 158.009C46.4411 157.005 46.0867 155.747 46.2167 154.492V89.7685C41.6597 89.2728 37.0623 89.2728 32.5053 89.7685L32.4359 89.8378C32.4359 96.6044 32.4359 103.311 32.7431 110.019C32.7431 110.712 32.7431 111.406 32.6935 112.069V113.06C32.65 114.009 32.6765 114.959 32.7728 115.903V115.993C32.7897 116.596 32.8426 117.198 32.9313 117.796C33.0258 118.452 33.0788 119.114 33.0898 119.777V138.393C33.0898 144.188 33.0898 149.994 32.8619 155.809C32.9007 156.302 32.837 156.798 32.6751 157.265C32.5131 157.732 32.2563 158.161 31.9208 158.524C31.0875 159.206 30.0214 159.536 28.9486 159.445H13.553C12.557 159.472 11.561 159.396 10.5808 159.217C9.8222 159.09 9.12618 158.718 8.5994 158.157C8.08115 157.547 7.75993 156.794 7.67804 155.998C7.56368 154.958 7.53056 153.911 7.57897 152.867V90.0954H3.96287C3.54385 90.2045 3.10387 90.2045 2.68485 90.0954C2.25989 89.9639 1.8657 89.7482 1.52572 89.4613C1.23275 89.179 0.997242 88.8425 0.832221 88.4706V88.4013V88.3319C0.752156 87.9397 0.752156 87.5353 0.832221 87.1431C0.564729 80.2081 0.346772 73.3722 0.118909 66.4867C0.0922875 66.0681 0.156405 65.6487 0.306875 65.2571C0.457346 64.8655 0.690618 64.5111 0.990735 64.218C1.59962 63.7149 2.37091 63.4507 3.16039 63.475H7.05389V62.5338C6.80952 42.9573 6.5123 23.4535 6.16225 4.02234C6.12674 3.65173 6.16539 3.27777 6.27596 2.92227C6.38652 2.56676 6.56678 2.23684 6.80621 1.95175C7.07769 1.71956 7.39278 1.54388 7.73302 1.43501C8.07325 1.32613 8.43179 1.28625 8.78764 1.3177L16.3666 0.970942C20.1709 0.792614 23.9852 0.604379 27.7895 0.475586H27.8588C28.483 0.475586 29.0279 0.475586 29.4638 0.475586C29.9304 0.506259 30.3764 0.679133 30.7418 0.970942C31.0929 1.3109 31.3137 1.76309 31.366 2.24895Z" fill="#646566"/>
<path fill-rule="evenodd" clip-rule="evenodd" d="M197.389 4.15114C197.293 3.44544 197.123 2.75159 196.884 2.08055L197.389 4.15114ZM196.884 2.08055C196.696 1.52059 196.352 1.02576 195.893 0.653925L196.884 2.08055ZM195.893 0.653925C195.416 0.30995 194.855 0.101165 194.269 0.04959L195.893 0.653925ZM194.269 0.04959C193.56 -0.0152279 192.847 -0.0152279 192.139 0.04959H194.269ZM192.139 0.04959L179.725 0.901603L171.185 1.57529L171.106 2.15981C170.858 3.92328 170.62 5.70656 170.393 7.47993L169.679 12.7901V12.9487C169.724 13.4529 169.724 13.9602 169.679 14.4645C166.826 37.0791 163.874 59.6905 160.822 82.2985C159.131 95.0655 157.444 107.859 155.76 120.679V120.778C155.789 121.21 155.735 121.644 155.601 122.056V122.145V122.244C154.881 127.825 154.148 133.413 153.402 139.007C152.563 145.46 151.721 151.909 150.876 158.355L150.767 159.198H174.326C174.849 159.243 175.375 159.184 175.875 159.024C176.375 158.864 176.839 158.607 177.238 158.266C177.922 157.493 178.278 156.484 178.229 155.453C178.427 151.549 178.695 147.913 178.962 144.159L179.081 142.573C179.487 137.977 179.963 133.38 180.448 128.703C180.448 128.287 180.528 127.871 180.577 127.455H191.168C192.476 137.858 193.783 148.131 195.051 158.058L195.141 158.702H219.393C219.869 158.635 220.318 158.44 220.691 158.138C220.998 157.857 221.25 157.52 221.434 157.147L221.484 157.048V156.939C221.692 155.493 221.692 154.025 221.484 152.58C220.364 145.397 219.205 138.204 218.046 131.061C217.798 129.476 217.541 127.891 217.283 126.306C217.025 124.721 216.778 123.136 216.53 121.56V121.501C216.41 120.979 216.324 120.449 216.272 119.916V119.856C213.472 102.684 210.675 85.5117 207.881 68.3394C205.285 52.3295 202.644 36.2898 199.955 20.2205L199.688 18.5264C199.292 16.1421 198.899 13.761 198.509 11.3833C198.113 9.00563 197.726 6.62793 197.32 4.24031M194.031 1.61492C193.415 1.55525 192.794 1.55525 192.178 1.61492L179.775 2.45703L172.424 3.04154C172.206 4.60687 171.998 6.1722 171.789 7.75734C171.562 9.501 171.334 11.2546 171.086 12.9883C171.131 13.5521 171.131 14.1186 171.086 14.6824C168.233 37.3103 165.28 59.9348 162.229 82.5561C160.538 95.3033 158.851 108.077 157.167 120.877C157.193 121.455 157.112 122.032 156.929 122.581C156.202 128.129 155.472 133.687 154.739 139.255C153.927 145.417 153.118 151.586 152.312 157.761H174.187C174.853 157.846 175.526 157.665 176.059 157.256C176.47 156.74 176.671 156.09 176.624 155.433C176.812 151.47 177.08 147.854 177.357 144.099C177.357 143.574 177.427 143.049 177.466 142.514C177.872 137.897 178.348 133.281 178.833 128.644L178.982 127.227V126.068H192.347L192.426 126.722C193.734 137.115 195.051 147.388 196.319 157.315H219.175C219.359 157.284 219.532 157.209 219.68 157.097C219.821 156.962 219.938 156.805 220.027 156.632C220.201 155.366 220.201 154.083 220.027 152.817C218.911 145.638 217.765 138.469 216.589 131.309C216.342 129.734 216.084 128.149 215.827 126.564C215.569 124.978 215.321 123.413 215.074 121.828C214.941 121.254 214.848 120.671 214.796 120.084C212.002 102.912 209.209 85.7396 206.415 68.5672C203.819 52.5639 201.177 36.5276 198.489 20.4583L198.222 18.7741C197.815 16.3864 197.429 14.0087 197.043 11.631C196.656 9.25331 196.26 6.88551 195.854 4.49789C195.773 3.88719 195.631 3.28633 195.428 2.70471C195.336 2.40463 195.161 2.13673 194.923 1.93195C194.688 1.72794 194.405 1.58802 194.1 1.52576L194.031 1.61492ZM184.352 62.0484H186.551L190.663 105.64L180.329 105.739L180.409 104.926C181.697 90.5511 182.994 76.6217 184.292 62.6923L184.352 62.0484ZM185.451 66.2391C184.292 78.7815 183.123 91.3437 181.964 104.273L189.038 104.193L185.451 66.2391Z" fill="#646566"/>
<path fill-rule="evenodd" clip-rule="evenodd" d="M365.176 4.28972C363.679 3.19719 361.845 2.66433 359.995 2.78383L333.989 3.19003C332.542 3.19003 331.145 3.19002 329.749 3.14049C326.985 3.14049 324.25 3.04142 321.298 3.19003H321.189C319.698 3.02169 318.188 3.2049 316.78 3.725C315.383 4.25973 314.131 5.11485 313.124 6.2216C312.12 7.33015 311.394 8.66115 311.004 10.1052C310.588 11.576 310.53 13.1251 310.836 14.6228V14.7417C311.282 25.0154 311.282 35.3882 311.282 45.6519V45.751C310.767 49.8276 311.331 53.9678 312.916 57.7584C313.907 59.6606 314.898 61.5232 316.077 63.3262L343.876 102.37L346.848 106.799C347.43 107.442 347.821 108.234 347.978 109.087V132.864V132.934C347.85 133.554 347.563 134.131 347.145 134.608C346.713 135.047 346.189 135.386 345.61 135.599H345.501H345.382C342.175 135.787 338.959 135.787 335.752 135.599C335.214 135.617 334.679 135.511 334.189 135.287C333.699 135.064 333.268 134.729 332.929 134.311C332.393 133.366 332.158 132.281 332.255 131.2V116.706V116.587C332.295 116.482 332.295 116.365 332.255 116.26C332.215 116.119 332.136 115.992 332.027 115.893C331.913 115.792 331.782 115.712 331.641 115.656C331.491 115.62 331.335 115.62 331.185 115.656H331.086H330.997C328.738 115.656 326.499 115.537 324.27 115.458C321.159 115.358 318.048 115.249 314.888 115.249C314.361 115.226 313.833 115.259 313.313 115.349C313.07 115.383 312.844 115.494 312.669 115.666C312.498 115.887 312.392 116.151 312.362 116.428C312.274 117.002 312.238 117.582 312.253 118.162V133.766H312.817V152.153C312.695 153.589 313.148 155.014 314.076 156.116C314.512 156.674 315.058 157.136 315.68 157.474C316.292 157.818 316.965 158.037 317.662 158.118H317.771C318.998 158.353 320.246 158.466 321.496 158.454L353.744 157.701C356.034 157.83 358.329 157.83 360.619 157.701C362.052 157.615 363.452 157.234 364.731 156.582C366.01 155.934 367.141 155.027 368.05 153.917C368.966 152.815 369.641 151.532 370.031 150.152C370.43 148.773 370.534 147.325 370.338 145.902V121.055C370.338 121.055 370.338 121.105 370.338 121.134L371.061 120.986H370.318V121.055C370.239 120.614 370.209 120.165 370.229 119.718V110.999C370.491 105.22 368.76 99.526 365.325 94.8705C355.864 81.9318 346.65 68.7554 337.437 55.5888L333.474 49.9714L334.048 49.4959L333.434 49.9219C332.682 49.0138 332.225 47.8971 332.126 46.7219V27.9975C332.087 27.5297 332.144 27.0589 332.294 26.6141C332.444 26.1693 332.684 25.76 332.998 25.4117C333.697 24.8367 334.593 24.556 335.495 24.629H344.788C345.367 24.6152 345.946 24.6417 346.521 24.7083C346.999 24.7496 347.448 24.9563 347.789 25.2928C348.09 25.6614 348.267 26.1156 348.295 26.5906C348.339 27.1343 348.356 27.6799 348.344 28.2253V40.629C348.339 41.0871 348.375 41.5448 348.453 41.9962C348.481 42.2022 348.563 42.3972 348.691 42.5609C348.829 42.6801 348.997 42.7589 349.176 42.7888C349.599 42.8587 350.027 42.8885 350.454 42.878H366.306H366.395C366.626 42.9375 366.868 42.9375 367.098 42.878L367.297 43.5913L367.118 42.878C367.369 42.8071 367.604 42.6894 367.812 42.5312L368.307 43.086L367.851 42.4916C368.029 42.3342 368.176 42.1463 368.287 41.9368C368.287 41.9368 368.287 41.9962 368.287 42.0259L369.02 42.1745L368.347 41.8575V41.9368C368.386 41.7106 368.386 41.4793 368.347 41.2532V41.1145V40.9758C368.478 40.1821 368.564 39.3816 368.604 38.5782V10.8383C368.601 10.1311 368.518 9.42661 368.357 8.73801C367.833 6.93692 366.711 5.368 365.176 4.28972ZM365.176 4.28972L365.612 3.69528L365.167 4.28972H365.176ZM311.351 135.321H310.836V118.232C310.824 117.569 310.867 116.906 310.965 116.25C311.046 115.702 311.28 115.187 311.638 114.764C312.016 114.364 312.513 114.096 313.055 114.001C313.689 113.883 314.333 113.837 314.977 113.862C318.137 113.862 321.308 113.971 324.458 114.08C326.658 114.15 328.847 114.229 331.007 114.259C331.369 114.18 331.744 114.18 332.106 114.259H332.186C332.522 114.38 332.832 114.565 333.097 114.804C333.412 115.085 333.642 115.449 333.761 115.854C333.871 116.222 333.871 116.615 333.761 116.983V131.249C333.679 132.025 333.816 132.807 334.157 133.508C334.385 133.825 334.811 134.083 335.881 134.172C338.993 134.345 342.112 134.345 345.224 134.172C345.547 134.033 345.838 133.827 346.076 133.568C346.31 133.301 346.476 132.981 346.561 132.636V109.226C346.445 108.655 346.174 108.127 345.778 107.7V107.651L342.717 103.153L314.898 64.0792C313.719 62.2228 312.635 60.3084 311.648 58.343C309.931 54.3165 309.309 49.9073 309.845 45.5628C309.845 35.3287 309.845 25.0253 309.399 14.8507C309.062 13.1758 309.123 11.445 309.578 9.79807C310.031 8.12917 310.873 6.59127 312.035 5.31015C313.192 4.02458 314.639 3.03294 316.255 2.41726C317.851 1.80552 319.567 1.57485 321.268 1.74358C324.24 1.59497 327.054 1.64451 329.838 1.69404C331.215 1.69404 332.592 1.74358 333.969 1.74358L359.926 1.33738C362.117 1.19751 364.288 1.83223 366.058 3.13057C367.844 4.46856 369.111 6.38339 369.645 8.54977C369.834 9.35172 369.93 10.1728 369.932 10.9968V38.7368C369.932 39.5591 369.803 40.3814 369.674 41.1937C369.749 41.5999 369.749 42.0161 369.674 42.4222V42.5114V42.5906C369.474 43.0206 369.187 43.405 368.832 43.72C368.463 44.0054 368.043 44.2173 367.594 44.3442C367.154 44.4483 366.696 44.4483 366.256 44.3442H350.464C349.926 44.3568 349.389 44.3136 348.859 44.2154C348.391 44.1255 347.96 43.8979 347.621 43.5615C347.307 43.2021 347.098 42.7635 347.017 42.2934C346.911 41.7451 346.861 41.1874 346.868 40.629V28.255C346.868 27.5615 346.868 27.086 346.868 26.7392C346.868 26.3925 346.759 26.3033 346.749 26.2934C346.739 26.2835 346.68 26.2142 346.353 26.1646C345.85 26.1118 345.343 26.092 344.837 26.1052H335.544C335.025 26.0401 334.501 26.1747 334.078 26.4817C333.85 26.6897 333.662 27.0959 333.662 27.9875V46.6129C333.746 47.4869 334.091 48.3153 334.653 48.9906L338.615 54.6278C347.829 67.7944 357.033 80.9609 366.484 93.8798C370.163 98.819 372.024 104.876 371.755 111.029V119.757C371.742 120.116 371.768 120.475 371.834 120.827V145.734C372.048 147.342 371.93 148.977 371.487 150.539C371.062 152.137 370.314 153.631 369.288 154.927C368.243 156.189 366.952 157.224 365.494 157.969C364.02 158.73 362.403 159.172 360.748 159.267C358.412 159.401 356.07 159.401 353.734 159.267L321.526 160.02C320.179 160.037 318.834 159.914 317.513 159.653C316.627 159.551 315.77 159.278 314.987 158.851C314.201 158.411 313.507 157.822 312.946 157.117C311.792 155.735 311.22 153.959 311.351 152.163V135.321Z" fill="#646566"/>
<path fill-rule="evenodd" clip-rule="evenodd" d="M90.6303 3.05151C90.2091 3.77549 90.0781 4.63227 90.2638 5.44903C90.5213 8.15367 90.7987 10.9079 90.7987 13.7116C91.1884 28.0505 91.38 42.3927 91.3734 56.7382C91.3805 57.9289 91.3276 59.1193 91.2148 60.3048V60.4336C91.1158 61.5729 91.0266 62.6924 91.0266 63.8416V64.5846H86.5387C86.0028 64.5741 85.4667 64.5973 84.9337 64.654C84.7487 64.6641 84.5702 64.7259 84.4186 64.8323C84.3013 64.994 84.2357 65.1874 84.2303 65.3871C84.164 65.9426 84.1375 66.5021 84.1511 67.0614C84.1511 69.4589 84.2501 71.8763 84.3294 74.3035C84.3294 74.4918 84.3294 74.6899 84.3294 74.888C84.4186 77.5035 84.4978 80.1289 84.4978 82.7246C84.4978 83.2794 84.4978 83.7153 84.4978 84.0818C84.463 84.603 84.463 85.126 84.4978 85.6472C84.5142 85.9432 84.5674 86.2361 84.6563 86.519C84.6729 86.5562 84.6964 86.5898 84.7257 86.6181C85.8879 86.7964 87.0706 86.7964 88.2328 86.6181H88.322C88.8139 86.5503 89.3147 86.5915 89.7889 86.7387C90.2631 86.886 90.6992 87.1357 91.0662 87.4701C91.6584 88.2222 91.9418 89.1716 91.8588 90.1252C92.0636 102.357 92.2452 114.576 92.4037 126.782C92.4962 132.977 92.5853 139.165 92.6712 145.347V156.245C92.6712 157.038 92.7901 157.236 92.8495 157.236C92.909 157.236 93.2062 157.414 93.969 157.414C95.5709 157.197 97.1876 157.107 98.8037 157.147H141.404C142.066 157.165 142.727 157.141 143.386 157.078C143.812 157.018 143.931 156.929 143.98 156.869C144.03 156.81 144.129 156.642 144.178 156.156C144.228 155.671 144.228 155.037 144.228 154.105C144.228 153.63 144.228 153.115 144.228 152.679C144.139 148.102 144.05 143.376 144.297 138.551V138.175C144.297 137.501 144.297 137.016 144.297 136.639C144.297 136.263 144.188 136.074 144.168 136.055C144.149 136.035 144.089 135.965 143.703 135.916C143.316 135.866 142.712 135.916 141.9 135.916H116.389V135.183C116.389 133.291 116.3 131.388 116.25 129.486C116.092 123.859 115.943 118.242 115.943 112.644V111.445C115.893 108.592 115.824 105.729 115.755 102.856C115.626 97.7636 115.497 92.6416 115.497 87.4701V86.727H129.228C133.271 86.727 137.323 86.6379 141.385 86.4596C141.654 86.4797 141.925 86.4443 142.181 86.3557C142.436 86.2671 142.671 86.1272 142.871 85.9444C143.229 85.4523 143.398 84.8471 143.346 84.2404C142.9 78.1079 142.9 71.9258 142.9 65.8329C142.943 65.4888 142.869 65.1403 142.692 64.8422C142.623 64.7531 142.425 64.6144 141.811 64.6044L135.519 64.7332C130.189 64.8521 124.84 64.9611 119.49 64.9611H118.43H118.103C117.578 64.9611 117.112 64.9611 116.755 64.9611C116.283 64.9718 115.823 64.8137 115.458 64.5153C115.125 64.1665 114.932 63.7086 114.913 63.2274C114.884 62.6564 114.884 62.0844 114.913 61.5134C114.853 57.6034 114.781 53.6934 114.695 49.7834C114.536 41.9171 114.378 34.041 114.378 26.1153C114.343 25.7592 114.381 25.3998 114.49 25.0591C114.599 24.7184 114.777 24.4035 115.012 24.1339C115.272 23.9142 115.573 23.7485 115.898 23.6464C116.223 23.5444 116.565 23.508 116.904 23.5394H141.672C142.085 23.4652 142.507 23.4652 142.92 23.5394H143.009H143.089C143.357 23.6907 143.654 23.7851 143.96 23.8168H144.059C144.138 23.6946 144.185 23.5552 144.198 23.4106C144.246 23.0827 144.266 22.7513 144.258 22.4199V3.98277C144.258 3.13075 144.129 2.81373 144 2.68494C143.871 2.55614 143.604 2.40754 142.771 2.40754H92.6117C91.4625 2.42735 90.8978 2.73448 90.6303 3.05151ZM89.4712 2.12024C89.8688 1.69555 90.359 1.36825 90.9037 1.16378C91.4484 0.959312 92.0329 0.883181 92.6117 0.941288H142.692C143.108 0.895916 143.528 0.938637 143.926 1.06667C144.323 1.1947 144.69 1.40516 145.001 1.68432C145.51 2.34381 145.748 3.17339 145.664 4.00258V22.4397C145.674 22.8606 145.648 23.2816 145.585 23.6979C145.531 24.1103 145.367 24.5004 145.11 24.8274C144.956 25.0051 144.763 25.1456 144.547 25.2383C144.331 25.331 144.096 25.3734 143.861 25.3623C143.375 25.3325 142.9 25.2044 142.464 24.9859C142.248 24.9512 142.027 24.9512 141.811 24.9859H141.741H116.845C116.23 24.9859 116.052 25.0949 115.993 25.1543C115.933 25.2137 115.804 25.402 115.804 26.0756C115.804 34.0013 115.963 41.8379 116.121 49.6843C116.201 53.6075 116.273 57.5308 116.339 61.454C116.339 62.2069 116.339 62.7023 116.339 63.049C116.346 63.1714 116.373 63.2919 116.419 63.4057C116.537 63.4412 116.661 63.4579 116.785 63.4552C117.072 63.4552 117.449 63.4552 117.984 63.4552H118.35H119.44C124.77 63.4552 130.1 63.3462 135.42 63.2274L141.751 63.0986C142.117 63.0723 142.484 63.127 142.827 63.2589C143.169 63.3907 143.479 63.5964 143.732 63.8614C144.158 64.4302 144.358 65.1354 144.297 65.8428C144.297 71.9555 144.297 78.088 144.743 84.1809V84.2304C144.807 85.2175 144.5 86.1929 143.881 86.9648C143.547 87.293 143.151 87.55 142.715 87.7203C142.279 87.8906 141.813 87.9707 141.345 87.9555C137.263 88.1339 133.191 88.223 129.129 88.223H116.963C116.963 93.1171 117.102 97.9617 117.221 102.796C117.29 105.679 117.36 108.552 117.409 111.435V112.704C117.409 118.301 117.558 123.889 117.706 129.546C117.706 131.2 117.796 132.865 117.835 134.499H141.939C142.58 134.477 143.222 134.493 143.861 134.549C144.392 134.572 144.894 134.795 145.268 135.173C145.587 135.591 145.761 136.103 145.763 136.629C145.763 137.065 145.763 137.62 145.763 138.294V138.71C145.516 143.495 145.605 148.171 145.694 152.768C145.694 153.243 145.694 153.759 145.694 154.195V154.244C145.694 155.116 145.694 155.849 145.635 156.414C145.614 156.978 145.416 157.522 145.07 157.969C144.668 158.367 144.138 158.609 143.574 158.653C142.86 158.725 142.142 158.751 141.424 158.732H98.8235C97.27 158.692 95.7158 158.782 94.1771 158.999H94.0681C93.3171 159.079 92.5624 158.889 91.9381 158.465C91.6619 158.179 91.4549 157.834 91.333 157.456C91.211 157.079 91.1774 156.678 91.2347 156.285V145.397C91.1356 139.215 91.0464 133.026 90.9672 126.831C90.7954 114.606 90.6138 102.387 90.4223 90.1747C90.4964 89.5979 90.3591 89.0137 90.0359 88.5302C89.8278 88.3122 89.4117 88.114 88.4706 88.1537C87.1379 88.3617 85.781 88.3617 84.4483 88.1537H84.369H84.2997C84.0734 88.0688 83.868 87.9364 83.6971 87.7655C83.5262 87.5947 83.3939 87.3892 83.309 87.163C83.1484 86.7374 83.0548 86.2896 83.0316 85.8354C82.9723 85.2165 82.9524 84.5943 82.9721 83.9729C82.9721 83.6063 82.9721 83.2199 82.9721 82.784C82.9721 80.2082 82.8929 77.6125 82.8037 74.997C82.8037 74.7989 82.8037 74.6007 82.8037 74.4026C82.7244 71.9852 82.6551 69.5481 82.6254 67.1209C82.6143 66.4888 82.644 65.8568 82.7145 65.2286C82.7671 64.7177 82.9784 64.2361 83.3189 63.8515C83.6919 63.5054 84.1693 63.2928 84.6761 63.2472C85.2941 63.1733 85.9167 63.1468 86.5387 63.1679H89.5108C89.5108 62.2267 89.6198 61.2955 89.6891 60.4038V60.1958C89.8048 59.0569 89.8578 57.9126 89.8477 56.7679C89.8477 42.429 89.6561 28.0934 89.273 13.7611C89.273 11.0267 89.0056 8.34191 88.7381 5.61745C88.6245 5.01494 88.6308 4.39596 88.7566 3.79589C88.8824 3.19582 89.1252 2.62642 89.4712 2.12024Z" fill="#646566"/>
<path d="M525.256 1.13916H477.801C475.54 1.14179 473.373 2.04164 471.775 3.64105C470.178 5.24046 469.281 7.4086 469.281 9.66919V150.657C469.281 152.918 470.178 155.086 471.775 156.686C473.373 158.285 475.54 159.185 477.801 159.187H525.256C527.516 159.185 529.683 158.285 531.281 156.686C532.879 155.086 533.776 152.918 533.776 150.657V9.66919C533.776 7.4086 532.879 5.24046 531.281 3.64105C529.683 2.04164 527.516 1.14179 525.256 1.13916ZM532.042 150.657C532.042 152.458 531.327 154.185 530.055 155.46C528.783 156.734 527.057 157.451 525.256 157.454H477.801C476 157.451 474.274 156.734 473.001 155.46C471.729 154.185 471.014 152.458 471.014 150.657V9.66919C471.014 7.86842 471.729 6.14126 473.001 4.867C474.274 3.59273 476 2.87553 477.801 2.87291H525.256C527.057 2.87553 528.783 3.59273 530.055 4.867C531.327 6.14126 532.042 7.86842 532.042 9.66919V150.657Z" fill="#646566"/>
<path d="M508.136 25.709H494.92C494.053 25.709 493.221 26.0534 492.608 26.6666C491.995 27.2797 491.651 28.1113 491.651 28.9783V131.359C491.653 132.224 491.999 133.053 492.612 133.664C493.225 134.275 494.055 134.618 494.92 134.618H508.136C509.001 134.618 509.83 134.275 510.441 133.663C511.052 133.052 511.396 132.223 511.396 131.359V28.9783C511.397 28.5495 511.314 28.1246 511.15 27.728C510.987 27.3314 510.747 26.9709 510.444 26.6671C510.142 26.3634 509.782 26.1225 509.386 25.958C508.99 25.7936 508.565 25.709 508.136 25.709ZM509.484 131.359C509.484 131.716 509.342 132.059 509.089 132.311C508.836 132.564 508.494 132.706 508.136 132.706H494.92C494.562 132.706 494.218 132.564 493.964 132.312C493.71 132.059 493.565 131.717 493.563 131.359V28.9783C493.563 28.6184 493.706 28.2731 493.96 28.0186C494.215 27.7641 494.56 27.6211 494.92 27.6211H508.136C508.314 27.621 508.49 27.6562 508.654 27.7246C508.818 27.7929 508.967 27.893 509.092 28.0192C509.218 28.1454 509.317 28.2951 509.384 28.4597C509.451 28.6243 509.485 28.8006 509.484 28.9783V131.359Z" fill="#646566"/>
<path d="M605.077 1.90234H548.111C547.185 1.90233 546.296 2.2691 545.639 2.92253C544.981 3.57597 544.61 4.46293 544.604 5.38964V25.3525C544.61 26.2792 544.981 27.1662 545.639 27.8196C546.296 28.473 547.185 28.8398 548.111 28.8398H563.141V155.304C563.141 156.23 563.508 157.118 564.161 157.774C564.815 158.429 565.702 158.799 566.628 158.801H586.581C587.508 158.799 588.396 158.43 589.051 157.774C589.706 157.119 590.075 156.231 590.078 155.304V28.8893H605.077C606.002 28.8867 606.887 28.5185 607.54 27.865C608.194 27.2116 608.562 26.3261 608.565 25.402V5.43918C608.57 4.97743 608.484 4.51921 608.311 4.09098C608.138 3.66274 607.882 3.27296 607.558 2.94414C607.234 2.61531 606.848 2.35396 606.422 2.17515C605.996 1.99634 605.539 1.90362 605.077 1.90234ZM588.315 27.9779V155.304C588.315 155.772 588.129 156.22 587.798 156.551C587.467 156.882 587.019 157.068 586.551 157.068H566.628C566.162 157.065 565.716 156.878 565.387 156.548C565.059 156.217 564.874 155.77 564.874 155.304V27.9779C564.872 27.7475 564.779 27.5272 564.616 27.3643C564.453 27.2013 564.233 27.1086 564.002 27.1061H548.151C547.919 27.1074 547.69 27.063 547.475 26.9756C547.261 26.8882 547.066 26.7594 546.901 26.5966C546.737 26.4337 546.606 26.2401 546.516 26.0266C546.426 25.8131 546.379 25.5841 546.378 25.3525V5.38964C546.379 5.15806 546.426 4.929 546.516 4.71554C546.606 4.50208 546.737 4.30841 546.901 4.14558C547.066 3.98275 547.261 3.85394 547.475 3.76652C547.69 3.6791 547.919 3.63479 548.151 3.63609H605.077C605.542 3.63609 605.989 3.82084 606.317 4.14969C606.646 4.47855 606.831 4.92457 606.831 5.38964V25.3525C606.831 25.8176 606.646 26.2636 606.317 26.5924C605.989 26.9213 605.542 27.1061 605.077 27.1061H589.226C589.111 27.1048 588.996 27.1263 588.889 27.1696C588.782 27.2128 588.685 27.2768 588.603 27.3579C588.521 27.439 588.456 27.5355 588.412 27.6419C588.367 27.7484 588.344 27.8625 588.344 27.9779H588.315Z" fill="#646566"/>
</g>
<defs>
<clipPath id="clip0_407_5869">
<rect width="608.594" height="160" fill="white"/>
</clipPath>
</defs>
</svg>
