<svg width="609" height="160" fill="none" xmlns="http://www.w3.org/2000/svg"><g clip-path="url(#a)" fill="#646566"><path d="M272.129 130.2v-15.713c-.046-6.321-.112-12.638-.198-18.952-.119-11.027-.248-22.044-.248-33.09 0-2.428-.119-4.835-.188-7.232-.109-3.349-.218-6.678-.218-10.026V28.67a5.413 5.413 0 0 0-.922-3.566 4.018 4.018 0 0 0-3.309-1.338l-6.073-.218a11.56 11.56 0 0 0-1.704.12 2.26 2.26 0 0 0-1.278.623c-.32.367-.517.824-.564 1.308a11.039 11.039 0 0 0-.09 1.724c.179 14.431.268 28.893.268 43.383v29.86c0 3.062.089 6.103.139 9.155.089 5.072.178 10.135.178 15.207v12.661h.783c1.565-.089 3.071-.158 4.537-.218 2.348-.109 4.587-.198 6.816-.366h.159c.425-.129.81-.365 1.119-.684.307-.318.525-.711.634-1.139l.278-1.1-.377.06c.173-1.308.259-2.625.258-3.943Zm-1.486 0a27.103 27.103 0 0 1-.397 4.646l-.069.456a1.088 1.088 0 0 1-.327.188c-2.179.158-4.349.258-6.638.357l-3.804.178v-11.096c0-5.082-.089-10.175-.178-15.257-.05-3.041-.109-6.083-.139-9.115v-29.86c0-14.49-.089-28.955-.267-43.393-.011-.503.012-1.006.069-1.506a.88.88 0 0 1 .178-.505.834.834 0 0 1 .466-.178c.482-.07.969-.103 1.456-.1a54.017 54.017 0 0 1 5.944.219h.07a2.564 2.564 0 0 1 2.189.782 4.07 4.07 0 0 1 .595 2.616v16.535c0 3.358.109 6.746.218 10.125.069 2.397.148 4.785.188 7.153 0 11.046.129 22.083.248 33.11.079 6.314.145 12.624.198 18.932V130.2Z"/><path d="M295.619 131.705c-.05-6.142-.099-12.304-.099-18.556l-.407-61.652v-2.972h-.218V16.822a46.588 46.588 0 0 0-.445-5.508 9.688 9.688 0 0 0-.743-4.23 9.448 9.448 0 0 0-2.557-3.537 9.574 9.574 0 0 0-3.853-2.06 9.651 9.651 0 0 0-4.29-.17c-2.517 0-5.063.1-7.668.209-1.982.079-3.963.158-6.014.198H244.24c-.921 0-1.852 0-2.764.07h-1.308a26.394 26.394 0 0 1-3.873-.11c-1.803-.138-3.309 0-4.33.912-1.02.911-1.337 2.387-1.288 4.3 0 6.152 0 12.403.308 18.575v.258c0 4.825.158 9.67.307 14.494 0 1.595.099 3.2.138 4.795 0 4.508.208 9.035.407 13.553.148 3.11.287 6.212.356 9.303v17.833c0 4.824.089 9.649.179 14.464 0 2.893.099 5.776.138 8.669 0 3.101.07 6.231.129 9.342.059 2.467.119 4.954.129 7.351v29.226a5.736 5.736 0 0 0 .792 3.517 4.26 4.26 0 0 0 3.2 1.476h5.033l38.925-.406c5.043 0 8.857-1.129 11.384-3.735 2.526-2.605 3.616-6.499 3.596-11.69-.02-4.102-.05-8.154-.079-12.216Zm-4.597 22.856c-2.13 2.189-5.459 3.279-10.314 3.279l-38.915.436h-4.953a2.773 2.773 0 0 1-2.12-.882 4.334 4.334 0 0 1-.526-2.575v-29.236c0-2.487-.069-4.954-.128-7.411a408.86 408.86 0 0 1-.129-9.283c0-2.913-.089-5.805-.139-8.698-.089-4.805-.178-9.6-.178-14.415V67.943c-.079-3.16-.218-6.291-.357-9.412-.198-4.468-.406-8.916-.406-13.424 0-1.615-.089-3.22-.139-4.835-.158-4.814-.307-9.62-.307-14.424v-.307c-.307-6.143-.307-12.375-.307-18.537-.05-1.832.277-2.714.783-3.16.505-.446 1.466-.674 3.22-.545a26.83 26.83 0 0 0 4.081.119h1.348c.901 0 1.783-.07 2.675-.07h25.104c2.12 0 4.141-.118 6.123-.198 2.576-.109 5.072-.208 7.608-.208h.149a8.171 8.171 0 0 1 3.695.13 8.246 8.246 0 0 1 3.26 1.733 8.242 8.242 0 0 1 2.16 2.972 8.204 8.204 0 0 1 .624 3.646v.149c.262 1.785.411 3.585.446 5.389v33.15h.218v1.525l.406 61.642c0 6.261 0 12.433.099 18.576 0 4.062.026 8.12.079 12.176.05 4.904-1.02 8.302-3.16 10.531Z"/><path fill-rule="evenodd" clip-rule="evenodd" d="m408.302 1.843-7.668.356c-3.784.179-7.559.367-11.363.496-.595 0-.783.148-.852.218-.07.069-.189.267-.189.99.298 19.32.582 38.661.852 58.026v2.705h-5.201a2.505 2.505 0 0 0-1.337.347 1.222 1.222 0 0 0-.426 1.09c.218 7.004.445 13.959.753 20.913v.09c-.014.217.023.434.109.634.084.203.217.383.386.525.167.141.363.243.575.297.215.05.438.05.653 0h5.38v64.287c.055 1.315.282 2.618.674 3.874.054.14.135.268.237.376a1.4 1.4 0 0 0 .446.159c6.073.396 12.196.396 18.299.396a1.861 1.861 0 0 0 1.516-.574 2.827 2.827 0 0 0 .505-1.843v-44.82c0-2.615-.129-5.221-.238-7.836v-.407c-.119-2.754-.228-5.508-.228-8.272v-5.617l.654-.08a64.4 64.4 0 0 1 15.624 0l.653.08v3.15c.268 12.731.268 25.451.268 38.172 0 4.141-.05 8.273-.119 12.404v.822a645.858 645.858 0 0 0-.129 11.552c0 1.585.258 2.269.664 2.625.406.357 1.288.605 3.042.605l3.685-.169c5.072-.228 10.184-.456 15.297-.456.782 0 1.04-.148 1.149-.257.109-.109.247-.416.247-1.189v-2.705c0-3.091 0-6.073-.138-8.857-.39-20.626-.747-41.355-1.07-62.187V62.94c-.357-17.595-.357-35.458-.357-53.31V5.162c0-.991-.188-1.407-.376-1.586-.189-.178-.585-.346-1.516-.346h-17.06a12.16 12.16 0 0 0-2.081 0l-.089-.743.06.743c-1.12.128-1.516.346-1.714.584-.198.238-.347.773-.347 1.982.178 7.02.363 14.045.555 21.072.191 7.034.379 14.068.564 21.102v12.701a3.96 3.96 0 0 1-.644 2.774 3.457 3.457 0 0 1-2.972.931 32.873 32.873 0 0 0-3.646.14h-.455c-1.09.088-2.17.177-3.151.177h-7.301V4.093a10.76 10.76 0 0 0-.07-1.595c0-.347-.128-.426-.148-.436-.02-.01-.109-.09-.456-.13-.5-.055-1.003-.084-1.506-.088Zm3.587.396c.075.601.105 1.207.089 1.813v59.116h5.855c.911 0 1.981-.08 3.021-.169h.456a33.002 33.002 0 0 1 3.834-.148c1.14 0 1.556-.188 1.744-.406.188-.218.337-.743.297-1.764v-12.75c-.178-7.028-.366-14.052-.565-21.073-.198-7.02-.383-14.055-.554-21.102a4.515 4.515 0 0 1 .673-2.903 3.766 3.766 0 0 1 2.705-1.14c.774-.068 1.554-.068 2.328 0h16.981a3.526 3.526 0 0 1 2.556.764 3.556 3.556 0 0 1 .822 2.655V9.6c0 17.833 0 35.666.357 53.28v18.824c.33 20.812.687 41.531 1.07 62.157.168 2.824.158 5.875.139 8.917v2.665a3.063 3.063 0 0 1-.654 2.209 2.984 2.984 0 0 1-2.229.723c-5.073 0-10.145.228-15.218.456l-3.725.168c-1.724 0-3.111-.168-4.022-.99-.912-.823-1.179-2.13-1.179-3.755 0-3.864.059-7.718.129-11.572v-.832c.069-4.131.138-8.243.119-12.364 0-12.721 0-25.432-.268-38.142V89.49a63.24 63.24 0 0 0-13.959 0v4.3c0 2.724.109 5.459.228 8.203v.426c.109 2.605.218 5.241.238 7.876v44.82a4.253 4.253 0 0 1-.852 2.794 3.303 3.303 0 0 1-2.655 1.109c-6.113 0-12.295 0-18.428-.396h-.138a2.827 2.827 0 0 1-1.08-.426h-.099a2.69 2.69 0 0 1-.684-.991 17.16 17.16 0 0 1-.743-4.3v-62.85h-3.636a3.118 3.118 0 0 1-1.248 0 2.902 2.902 0 0 1-1.189-.614 2.726 2.726 0 0 1-.793-1.07 2.962 2.962 0 0 1-.227-1.278c-.308-6.935-.535-13.87-.753-20.904a2.694 2.694 0 0 1 .99-2.29 3.965 3.965 0 0 1 2.19-.643h3.745v-1.209c-.271-19.365-.555-38.707-.852-58.026a2.732 2.732 0 0 1 .614-1.981 2.714 2.714 0 0 1 1.813-.664c3.804-.129 7.569-.307 11.344-.495l7.707-.347h.08c.552-.014 1.104.006 1.654.06a2.16 2.16 0 0 1 1.298.515c.342.292.578.689.674 1.129ZM27.849 1.942c-3.794.129-7.579.307-11.373.495l-7.619.347c-.684 0-.902.119-.99.198-.09.08-.209.297-.209.99.33 19.425.628 38.87.892 58.334v2.437H3.08c-.436-.02-.866.11-1.218.367a1.457 1.457 0 0 0-.377 1.159c.228 6.935.446 13.82.713 20.735v.179c-.04.2-.04.404 0 .604.088.175.198.338.327.485.178.14.38.248.595.317.188.05.386.05.574 0h5.38v64.278c-.047.965-.02 1.932.08 2.893.024.505.2.992.504 1.397.322.327.744.536 1.2.594.89.148 1.792.211 2.694.188h15.316a2.75 2.75 0 0 0 1.982-.515 2.16 2.16 0 0 0 .475-1.644c.218-5.786.218-11.582.218-17.387v-18.606a15.032 15.032 0 0 0-.148-1.813 16.908 16.908 0 0 1-.169-1.922 22.008 22.008 0 0 1-.079-2.972v-2.972c-.307-6.836-.307-13.682-.307-20.538 0-.179.06-.353.168-.495l.149-.149v-.436l.654-.079a65.125 65.125 0 0 1 15.088 0l.506.06.119.495c.072.326.072.665 0 .99v64.546c0 1.466.208 2.149.544 2.496.337.347.922.555 2.27.555 2.317-.059 4.655-.149 7.013-.238 4.32-.168 8.689-.337 12.998-.337.843 0 .991-.178.991-.208a.692.692 0 0 0 .09-.337v-.802l-.179-11.284-.277-16.01c-.189-10.69-.387-21.38-.535-32.06v-16.02a4855.655 4855.655 0 0 1-.575-74.64c0-1.06-.188-1.476-.386-1.674-.198-.198-.634-.357-1.635-.357h-19.29a1.813 1.813 0 0 0-.693 0c-.236.13-.453.294-.644.486-.175.19-.298.422-.356.674-.06.267-.06.544 0 .812v.753c.396 13.682.792 27.324 1.1 40.966v14.425c-.01.3-.077.596-.199.871a5.04 5.04 0 0 1-.416.793c-.167.25-.364.48-.584.684a1.476 1.476 0 0 1-.932.396H29.98V4.12a11.88 11.88 0 0 0-.09-1.505c-.059-.327-.128-.397-.148-.407-.02-.01-.109-.089-.446-.128-.337-.04-.812-.14-1.446-.14Zm3.517.307c.082.577.122 1.16.119 1.744V62.84H45.78c.125-.114.235-.244.327-.386.108-.167.2-.343.277-.526a1.19 1.19 0 0 0 .09-.317V47.198c-.308-13.633-.704-27.265-1.1-40.947v-.525a3.42 3.42 0 0 1 0-1.416c.118-.51.363-.98.713-1.368a4.35 4.35 0 0 1 1.14-.812h.158c.45-.1.917-.1 1.367 0h19.22a3.725 3.725 0 0 1 2.665.773 3.665 3.665 0 0 1 .842 2.744c0 24.834.191 49.707.575 74.62v16.02c.145 10.68.323 21.363.534 32.05l.278 16.02.198 11.195c.022.33.022.661 0 .99-.023.35-.128.69-.307.991a2.426 2.426 0 0 1-2.23.892c-4.289 0-8.599.168-12.878.337-2.358.089-4.726.178-7.084.237a4.383 4.383 0 0 1-3.358-.99 4.955 4.955 0 0 1-.991-3.517V89.769a63.397 63.397 0 0 0-13.712 0l-.07.069c0 6.766 0 13.473.308 20.181 0 .693 0 1.387-.05 2.05v.991c-.043.949-.017 1.899.08 2.843v.09c.017.603.07 1.205.158 1.803.095.656.148 1.318.159 1.981v18.616c0 5.795 0 11.601-.228 17.416a3.587 3.587 0 0 1-.941 2.715 4.14 4.14 0 0 1-2.972.921H13.553a14.375 14.375 0 0 1-2.972-.228 3.513 3.513 0 0 1-1.982-1.06 3.961 3.961 0 0 1-.921-2.159 20.12 20.12 0 0 1-.099-3.131V90.095H3.963c-.42.11-.86.11-1.278 0a3.319 3.319 0 0 1-1.16-.634 3.15 3.15 0 0 1-.693-.99v-.14a2.972 2.972 0 0 1 0-1.188C.565 80.208.347 73.373.12 66.487a2.913 2.913 0 0 1 .872-2.269 3.25 3.25 0 0 1 2.17-.743h3.893v-.941c-.244-19.577-.542-39.08-.892-58.512a2.804 2.804 0 0 1 .644-2.07 2.685 2.685 0 0 1 1.982-.634L16.367.97C20.17.793 23.985.604 27.789.476h1.675c.466.03.912.203 1.278.495.35.34.572.792.624 1.278ZM197.389 4.151c-.096-.706-.266-1.4-.505-2.07l.505 2.07Zm-.505-2.07a3.11 3.11 0 0 0-.991-1.427l.991 1.427Zm-.991-1.427a3.266 3.266 0 0 0-1.624-.604l1.624.604ZM194.269.05a11.69 11.69 0 0 0-2.13 0h2.13Zm-2.13 0-12.414.852-8.54.673-.079.585a434.006 434.006 0 0 0-.713 5.32l-.714 5.31v.159a8.527 8.527 0 0 1 0 1.515 7871.513 7871.513 0 0 1-8.857 67.835 36017.3 36017.3 0 0 0-5.062 38.38v.099c.029.432-.025.866-.159 1.278v.188a3955.37 3955.37 0 0 1-2.199 16.763c-.839 6.453-1.681 12.902-2.526 19.348l-.109.843h23.559a3.965 3.965 0 0 0 2.912-.932 3.961 3.961 0 0 0 .991-2.813c.198-3.904.466-7.54.733-11.294l.119-1.586c.406-4.596.882-9.193 1.367-13.87 0-.416.08-.832.129-1.248h10.591a15674.77 15674.77 0 0 0 3.883 30.603l.09.644h24.252a2.65 2.65 0 0 0 1.298-.564c.307-.281.559-.618.743-.991l.05-.099v-.109a15.303 15.303 0 0 0 0-4.359 3531.641 3531.641 0 0 0-3.438-21.519c-.248-1.585-.505-3.17-.763-4.755s-.505-3.17-.753-4.746v-.059a12.492 12.492 0 0 1-.258-1.585v-.06c-2.8-17.172-5.597-34.344-8.391-51.517a9654.807 9654.807 0 0 0-7.926-48.118l-.267-1.695c-.396-2.384-.789-4.765-1.179-7.143-.396-2.377-.783-4.755-1.189-7.143m-3.289-2.625a9.613 9.613 0 0 0-1.853 0l-12.403.842-7.351.585c-.218 1.565-.426 3.13-.635 4.715-.227 1.744-.455 3.498-.703 5.231.045.564.045 1.13 0 1.694a7920.146 7920.146 0 0 1-8.857 67.874c-1.691 12.747-3.378 25.521-5.062 38.321a4.716 4.716 0 0 1-.238 1.704c-.727 5.548-1.457 11.106-2.19 16.674a15200.07 15200.07 0 0 0-2.427 18.506h21.875a2.545 2.545 0 0 0 1.872-.505 2.624 2.624 0 0 0 .565-1.823c.188-3.963.456-7.579.733-11.334 0-.525.07-1.05.109-1.585.406-4.617.882-9.233 1.367-13.87l.149-1.417v-1.159h13.365l.079.654c1.308 10.393 2.625 20.666 3.893 30.593h22.856c.184-.031.357-.106.505-.218.141-.135.258-.292.347-.465a14.006 14.006 0 0 0 0-3.815 2540.508 2540.508 0 0 0-3.438-21.508c-.247-1.575-.505-3.16-.762-4.745a715.974 715.974 0 0 1-.753-4.736 12.688 12.688 0 0 1-.278-1.744l-8.381-51.517a9899.509 9899.509 0 0 0-7.926-48.109l-.267-1.684a915.154 915.154 0 0 1-1.179-7.143c-.387-2.378-.783-4.745-1.189-7.133a9.052 9.052 0 0 0-.426-1.793 1.662 1.662 0 0 0-.505-.773 1.806 1.806 0 0 0-.823-.406l-.069.089Zm-9.679 60.433h2.199l4.112 43.592-10.334.099.08-.813c1.288-14.375 2.585-28.304 3.883-42.234l.06-.644Zm1.099 4.191c-1.159 12.542-2.328 25.105-3.487 38.034l7.074-.08-3.587-37.954ZM365.176 4.29a7.923 7.923 0 0 0-5.181-1.506l-26.006.406c-1.447 0-2.844 0-4.24-.05-2.764 0-5.499-.099-8.451.05h-.109a9.612 9.612 0 0 0-4.409.535 9.458 9.458 0 0 0-5.776 6.38 9.564 9.564 0 0 0-.168 4.518v.119c.446 10.273.446 20.646.446 30.91v.099a23.493 23.493 0 0 0 1.634 12.007c.991 1.903 1.982 3.765 3.161 5.568l27.799 39.044 2.972 4.429a4.668 4.668 0 0 1 1.13 2.288v23.847a3.665 3.665 0 0 1-.833 1.674 4.178 4.178 0 0 1-1.535.991H345.382a82.284 82.284 0 0 1-9.63 0 3.478 3.478 0 0 1-2.823-1.288 5.338 5.338 0 0 1-.674-3.111v-14.613a.46.46 0 0 0 0-.327.785.785 0 0 0-.228-.367 1.313 1.313 0 0 0-.386-.237.976.976 0 0 0-.456 0h-.188c-2.259 0-4.498-.119-6.727-.198-3.111-.1-6.222-.209-9.382-.209a7.354 7.354 0 0 0-1.575.1 1.145 1.145 0 0 0-.644.317 1.511 1.511 0 0 0-.307.762 9.772 9.772 0 0 0-.109 1.734v15.604h.564v18.387a5.437 5.437 0 0 0 1.259 3.963c.436.558.982 1.02 1.604 1.358a5.29 5.29 0 0 0 1.982.644h.109c1.227.235 2.475.348 3.725.336l32.248-.753c2.29.129 4.585.129 6.875 0a10.43 10.43 0 0 0 4.112-1.119 10.314 10.314 0 0 0 3.319-2.665 10.252 10.252 0 0 0 1.981-3.765c.399-1.379.503-2.827.307-4.25v-24.847.079l.723-.148h-.743v.069a6.053 6.053 0 0 1-.089-1.337v-8.719a25.24 25.24 0 0 0-4.904-16.128c-9.461-12.94-18.675-26.116-27.888-39.282l-3.963-5.618.574-.475-.614.426a5.779 5.779 0 0 1-1.308-3.2V27.997a3.436 3.436 0 0 1 .872-2.585 3.489 3.489 0 0 1 2.497-.783h9.293c.579-.014 1.158.013 1.733.08.478.04.927.247 1.268.584.301.368.478.823.506 1.298.044.543.061 1.089.049 1.634V40.63c-.005.458.031.916.109 1.367.028.206.11.401.238.565.138.12.306.198.485.228.423.07.851.1 1.278.089h15.941c.231.06.473.06.703 0l.199.713-.179-.713a2.08 2.08 0 0 0 .694-.347l.495.555-.456-.594c.178-.158.325-.346.436-.555v.089l.733.148-.673-.316v.079a2.012 2.012 0 0 0 0-.684v-.277c.131-.794.217-1.594.257-2.398v-27.74a9.4 9.4 0 0 0-.247-2.1 8.254 8.254 0 0 0-3.181-4.448Zm0 0 .436-.595-.445.595h.009ZM311.351 135.32h-.515v-17.089c-.012-.663.031-1.326.129-1.982a2.976 2.976 0 0 1 .673-1.486c.378-.4.875-.668 1.417-.763a8.662 8.662 0 0 1 1.922-.139c3.16 0 6.331.109 9.481.218 2.2.07 4.389.149 6.549.179a2.578 2.578 0 0 1 1.099 0h.08c.336.121.646.306.911.545.315.281.545.645.664 1.05.11.368.11.761 0 1.129v14.266a4.162 4.162 0 0 0 .396 2.259c.228.317.654.575 1.724.664a84.16 84.16 0 0 0 9.343 0 2.5 2.5 0 0 0 .852-.604c.234-.267.4-.587.485-.932v-23.41a3.173 3.173 0 0 0-.783-1.526v-.049l-3.061-4.498-27.819-39.074a65.666 65.666 0 0 1-3.25-5.736 24.831 24.831 0 0 1-1.803-12.78c0-10.234 0-20.538-.446-30.712a10.9 10.9 0 0 1 .179-5.053 10.95 10.95 0 0 1 2.457-4.488 10.898 10.898 0 0 1 4.22-2.893 10.977 10.977 0 0 1 5.013-.673c2.972-.149 5.786-.1 8.57-.05 1.377 0 2.754.05 4.131.05l25.957-.407a9.36 9.36 0 0 1 6.132 1.794 9.66 9.66 0 0 1 3.587 5.419c.189.802.285 1.623.287 2.447v27.74c0 .822-.129 1.644-.258 2.457.075.406.075.822 0 1.228V42.591c-.2.43-.487.814-.842 1.129a3.642 3.642 0 0 1-1.238.624c-.44.104-.898.104-1.338 0h-15.792a7.8 7.8 0 0 1-1.605-.129 2.4 2.4 0 0 1-1.238-.654 2.598 2.598 0 0 1-.604-1.268 8.226 8.226 0 0 1-.149-1.664v-13.89c0-.347-.109-.436-.119-.446-.01-.01-.069-.079-.396-.128a11.626 11.626 0 0 0-1.516-.06h-9.293a2.06 2.06 0 0 0-1.466.377c-.228.208-.416.614-.416 1.506v18.625a4.37 4.37 0 0 0 .991 2.378l3.962 5.637c9.214 13.166 18.418 26.333 27.869 39.252a26.751 26.751 0 0 1 5.271 17.149v8.728c-.013.359.013.718.079 1.07v24.907a11.87 11.87 0 0 1-.347 4.805 12.065 12.065 0 0 1-2.199 4.388 12.037 12.037 0 0 1-3.794 3.042 11.822 11.822 0 0 1-4.746 1.298 61.24 61.24 0 0 1-7.014 0l-32.208.753a19.439 19.439 0 0 1-4.013-.367 6.931 6.931 0 0 1-2.526-.802 6.943 6.943 0 0 1-2.041-1.734 6.94 6.94 0 0 1-1.595-4.954v-16.842ZM90.63 3.052a3.309 3.309 0 0 0-.366 2.397c.257 2.705.535 5.459.535 8.263.39 14.338.581 28.68.574 43.026a35.424 35.424 0 0 1-.158 3.567v.129c-.1 1.139-.188 2.258-.188 3.408v.743h-4.488c-.536-.01-1.072.012-1.605.069a.99.99 0 0 0-.515.178.99.99 0 0 0-.189.555 11.723 11.723 0 0 0-.079 1.674c0 2.398.1 4.815.178 7.242v.585c.09 2.615.169 5.24.169 7.837v1.357a11.75 11.75 0 0 0 0 1.565c.016.296.07.59.158.872.017.037.04.07.07.1 1.162.177 2.345.177 3.507 0h.089a3.388 3.388 0 0 1 2.744.851c.592.752.876 1.702.793 2.655.205 12.232.386 24.451.545 36.657.092 6.195.181 12.383.267 18.565v10.898c0 .793.12.991.178.991.06 0 .357.178 1.12.178a30.411 30.411 0 0 1 4.835-.267h42.6a16.19 16.19 0 0 0 1.982-.069c.426-.06.545-.149.594-.209.05-.059.149-.227.198-.713.05-.485.05-1.119.05-2.051v-1.426c-.089-4.577-.178-9.303.069-14.128v-1.912c0-.376-.109-.565-.129-.584-.019-.02-.079-.09-.465-.139-.387-.05-.991 0-1.803 0h-25.511v-.733c0-1.892-.089-3.795-.139-5.697-.158-5.627-.307-11.244-.307-16.842v-1.199c-.05-2.853-.119-5.716-.188-8.589-.129-5.092-.258-10.214-.258-15.386v-.743h13.731c4.043 0 8.095-.09 12.157-.267a1.983 1.983 0 0 0 1.486-.516 2.53 2.53 0 0 0 .475-1.704c-.446-6.132-.446-12.314-.446-18.407a1.562 1.562 0 0 0-.208-.99c-.069-.09-.267-.229-.881-.239l-6.292.13c-5.33.118-10.679.227-16.029.227H116.755a1.978 1.978 0 0 1-1.297-.446 1.977 1.977 0 0 1-.545-1.288 16.895 16.895 0 0 1 0-1.714c-.06-3.91-.132-7.82-.218-11.73-.159-7.866-.317-15.742-.317-23.668a2.624 2.624 0 0 1 .634-1.981 2.562 2.562 0 0 1 1.892-.595h24.768a3.526 3.526 0 0 1 1.248 0H143.089c.268.152.565.246.871.278h.099a.895.895 0 0 0 .139-.406c.048-.328.068-.66.06-.991V3.983c0-.852-.129-1.17-.258-1.298-.129-.129-.396-.277-1.229-.277h-50.16c-1.148.02-1.713.326-1.98.644Zm-1.159-.932a3.784 3.784 0 0 1 3.14-1.179h50.081a2.974 2.974 0 0 1 2.309.743c.509.66.747 1.49.663 2.319V22.44c.01.42-.016.842-.079 1.258a2.314 2.314 0 0 1-.475 1.13 1.559 1.559 0 0 1-1.249.534 3.611 3.611 0 0 1-1.397-.376 2.061 2.061 0 0 0-.653 0h-24.966c-.615 0-.793.109-.852.168-.06.06-.189.248-.189.922 0 7.925.159 15.762.317 23.608.08 3.924.152 7.847.218 11.77v1.595c.007.122.034.243.08.357.118.035.242.052.366.05H119.44c5.33 0 10.66-.11 15.98-.229l6.331-.128a2.498 2.498 0 0 1 1.981.762 2.89 2.89 0 0 1 .565 1.982c0 6.112 0 12.245.446 18.338v.05a3.96 3.96 0 0 1-.862 2.734 3.458 3.458 0 0 1-2.536.99c-4.082.179-8.154.268-12.216.268h-12.166c0 4.894.139 9.739.258 14.573.069 2.883.139 5.756.188 8.639v1.269c0 5.597.149 11.185.297 16.842 0 1.654.09 3.319.129 4.953h24.104a15.807 15.807 0 0 1 1.922.05 2.107 2.107 0 0 1 1.407.624c.319.418.493.93.495 1.456v2.081c-.247 4.785-.158 9.461-.069 14.058v1.476c0 .872 0 1.605-.059 2.17a2.706 2.706 0 0 1-.565 1.555 2.39 2.39 0 0 1-1.496.684c-.714.072-1.432.098-2.15.079h-42.6c-1.554-.04-3.108.05-4.647.267h-.109a3.19 3.19 0 0 1-2.13-.534 2.602 2.602 0 0 1-.703-2.18v-10.888c-.1-6.182-.189-12.371-.268-18.566-.172-12.225-.353-24.444-.545-36.656a2.407 2.407 0 0 0-.386-1.645c-.208-.218-.624-.416-1.565-.376-1.333.208-2.69.208-4.023 0H84.3a1.693 1.693 0 0 1-.99-.991 4.395 4.395 0 0 1-.277-1.328 14.66 14.66 0 0 1-.06-1.862v-1.189c0-2.576-.08-5.172-.168-7.787v-.594a354.95 354.95 0 0 1-.179-7.282c-.01-.632.019-1.264.09-1.892.052-.511.263-.993.604-1.377.373-.347.85-.56 1.357-.605.618-.074 1.24-.1 1.863-.08h2.972c0-.94.109-1.872.178-2.763v-.208c.116-1.14.169-2.283.159-3.428 0-14.339-.192-28.675-.575-43.007 0-2.734-.267-5.42-.535-8.144a4.665 4.665 0 0 1 .733-3.497Z"/><path d="M525.256 1.14h-47.455a8.532 8.532 0 0 0-8.52 8.53v140.987a8.53 8.53 0 0 0 8.52 8.53h47.455a8.53 8.53 0 0 0 8.52-8.53V9.669a8.528 8.528 0 0 0-8.52-8.53Zm6.786 149.517a6.797 6.797 0 0 1-6.786 6.797h-47.455a6.801 6.801 0 0 1-4.8-1.994 6.8 6.8 0 0 1-1.987-4.803V9.669a6.798 6.798 0 0 1 6.787-6.796h47.455a6.794 6.794 0 0 1 6.786 6.796v140.988Z"/><path d="M508.136 25.709H494.92a3.27 3.27 0 0 0-3.269 3.27v102.38a3.266 3.266 0 0 0 3.269 3.259h13.216a3.26 3.26 0 0 0 3.26-3.259V28.979a3.251 3.251 0 0 0-.952-2.312 3.25 3.25 0 0 0-2.308-.958Zm1.348 105.65a1.346 1.346 0 0 1-1.348 1.347H494.92a1.358 1.358 0 0 1-1.357-1.347V28.979a1.359 1.359 0 0 1 1.357-1.358h13.216a1.343 1.343 0 0 1 1.248.839c.067.164.101.34.1.518V131.36ZM605.077 1.902h-56.966a3.506 3.506 0 0 0-3.507 3.488v19.962a3.507 3.507 0 0 0 3.507 3.488h15.03v126.464a3.498 3.498 0 0 0 3.487 3.497h19.953a3.509 3.509 0 0 0 3.497-3.497V28.889h14.999a3.494 3.494 0 0 0 3.488-3.487V5.439a3.498 3.498 0 0 0-3.488-3.537Zm-16.762 26.076v127.326a1.763 1.763 0 0 1-1.764 1.764h-19.923a1.769 1.769 0 0 1-1.241-.52 1.768 1.768 0 0 1-.513-1.244V27.978a.879.879 0 0 0-.872-.872h-15.851a1.766 1.766 0 0 1-1.635-1.08 1.755 1.755 0 0 1-.138-.674V5.39a1.755 1.755 0 0 1 .523-1.244 1.77 1.77 0 0 1 1.25-.51h56.926a1.752 1.752 0 0 1 1.754 1.754v19.962a1.753 1.753 0 0 1-1.754 1.754h-15.851a.874.874 0 0 0-.882.872h-.029Z"/></g><defs><clipPath id="a"><path fill="#fff" d="M0 0h608.594v160H0z"/></clipPath></defs></svg>