<svg width="1599" height="220" fill="none" xmlns="http://www.w3.org/2000/svg"><path d="M1599-232.208H-1V452.86h1600v-685.068Z" fill="#E48717"/><g opacity=".5"><path d="M1884.48 455.536H534.55l283.631-687.744H1884.48v687.744Z" fill="#FF9B01"/><path d="M888.664-239.089h-52.301L551.582 452.982h52.305l284.777-692.071Z" fill="#E07F09" fill-opacity=".9"/><path d="M883.463-239.089h5.201L603.888 452.982h-5.204l284.779-692.071Z" fill="#E07F09" fill-opacity=".9"/><path d="M837.617-239.089h-1.254L551.582 452.982h1.254l284.781-692.071ZM841.881-239.089h-1.254L555.849 452.982h1.255l284.777-692.071ZM846.151-239.089h-1.254L560.115 452.982h1.256l284.78-692.071ZM850.416-239.089h-1.254L564.383 452.982h1.256l284.777-692.071ZM854.686-239.089h-1.254L568.65 452.982h1.255l284.781-692.071ZM858.95-239.089h-1.254L572.917 452.982h1.255L858.95-239.089ZM863.222-239.089h-1.254L577.186 452.982h1.255l284.781-692.071Z" fill="#C8500D" fill-opacity=".6"/><path d="M1374.78-239.089h-272.19L817.809 452.983h272.201l284.77-692.072ZM1075.29-239.089H888.258l-284.78 692.071h187.039l284.773-692.071ZM1461.06-239.089h-76.32l-284.77 692.072h76.32l284.77-692.072Z" fill="#E07F09" fill-opacity=".9"/><path d="M1219.09 452.983h-1.25l112.65-273.756v3.05l-111.4 270.706ZM1223.36 452.982h-1.25l108.38-263.385v3.05l-107.13 260.335ZM1227.73 452.983h-1.25l112.65-273.756v3.05l-111.4 270.706ZM1232 452.982h-1.26l108.39-263.385v3.05L1232 452.982Z" fill="#C8500D" fill-opacity=".6"/><path d="M338.908-239.089h3.564l-404.36 982.491h-3.565l404.361-982.491ZM326.788-239.089h3.565L-74.008 743.402h-3.565l404.361-982.491ZM314.67-239.089h3.565L-86.126 743.402h-3.565L314.67-239.089ZM302.552-239.089h3.564l-404.36 982.491h-3.565l404.361-982.491ZM290.435-239.089h3.564l-404.361 982.491h-3.564l404.361-982.491ZM278.316-239.089h3.564l-404.361 982.491h-3.564l404.361-982.491ZM266.197-239.089h3.565l-404.361 982.491h-3.564l404.36-982.491ZM254.078-239.089h3.564l-404.361 982.491h-3.563l404.36-982.491ZM241.96-239.089h3.564l-404.361 982.491h-3.564L241.96-239.089ZM229.843-239.089h3.564l-404.361 982.491h-3.564l404.361-982.491ZM217.724-239.089h3.564l-404.36 982.491h-3.564l404.36-982.491ZM205.605-239.089h3.564l-404.36 982.491h-3.565l404.361-982.491ZM193.488-239.089h3.564l-404.361 982.491h-3.564l404.361-982.491ZM181.367-239.089h3.565l-404.361 982.491h-3.565l404.361-982.491ZM169.251-239.089h3.565l-404.361 982.491h-3.565l404.361-982.491ZM157.133-239.089h3.564l-404.361 982.491h-3.564l404.361-982.491ZM145.015-239.089h3.564l-404.361 982.491h-3.564l404.361-982.491ZM132.896-239.089h3.565L-267.9 743.402h-3.565l404.361-982.491ZM120.778-239.089h3.564l-404.361 982.491h-3.564l404.361-982.491ZM108.658-239.089h3.565l-404.361 982.491h-3.565l404.361-982.491ZM96.541-239.089h3.565l-404.361 982.491h-3.565L96.541-239.089ZM84.422-239.089h3.564l-404.361 982.491h-3.563l404.36-982.491ZM72.304-239.089h3.564l-404.361 982.491h-3.564l404.36-982.491ZM60.186-239.089h3.564l-404.361 982.491h-3.564l404.36-982.491ZM48.067-239.089h3.565L-352.73 743.402h-3.563l404.36-982.491ZM35.95-239.089h3.563l-404.361 982.491h-3.563l404.36-982.491ZM23.83-239.089h3.565l-404.361 982.491h-3.564L23.83-239.089ZM11.711-239.089h3.564l-404.36 982.491h-3.564l404.36-982.491ZM-.407-239.089h3.564l-404.36 982.491h-3.565L-.408-239.089ZM485.329 38.455h-1.255l-284.78 692.072h1.255l284.78-692.072ZM489.597 38.455h-1.255L203.563 730.527h1.255L489.597 38.455ZM493.866 38.455h-1.255L207.832 730.527h1.255L493.866 38.455ZM498.132 38.455h-1.254l-284.78 692.072h1.255L498.132 38.455ZM502.4 38.455h-1.255l-284.78 692.072h1.256L502.4 38.455ZM506.667 38.455h-1.255l-284.78 692.072h1.256L506.667 38.455ZM510.934 38.455h-1.256L224.899 730.527h1.255l284.78-692.072ZM515.202 38.455h-1.255L229.168 730.527h1.255L515.202 38.455ZM519.47 38.455h-1.256L233.435 730.527h1.255L519.47 38.455ZM523.735 38.455h-1.255L237.701 730.527h1.254l284.78-692.072ZM528.002 38.455h-1.255L241.968 730.527h1.255L528.002 38.455ZM532.271 38.455h-1.255l-284.78 692.072h1.256L532.271 38.455ZM536.539 38.455h-1.255l-284.78 692.072h1.256L536.539 38.455ZM438.391 38.455h-1.255l-284.78 692.072h1.256L438.391 38.455ZM442.658 38.455h-1.255l-284.78 692.072h1.256L442.658 38.455ZM446.925 38.455h-1.255L160.891 730.527h1.255L446.925 38.455ZM451.192 38.455h-1.255l-284.78 692.072h1.255l284.78-692.072ZM455.459 38.455h-1.256L169.424 730.527h1.255l284.78-692.072ZM459.727 38.455h-1.255L173.693 730.527h1.255L459.727 38.455ZM463.995 38.455h-1.255L177.961 730.527h1.255L463.995 38.455ZM468.262 38.455h-1.255L182.228 730.527h1.255L468.262 38.455ZM472.53 38.455h-1.255l-284.78 692.072h1.256L472.53 38.455ZM476.797 38.455h-1.256L190.762 730.527h1.256L476.797 38.455ZM481.064 38.455h-1.256L195.029 730.527h1.255l284.78-692.072Z" fill="#D36611"/><path d="M485.329 38.455h-1.255l-284.78 692.072h1.255l284.78-692.072ZM489.597 38.455h-1.255L203.563 730.527h1.255L489.597 38.455ZM587.745 38.455h-1.254l-284.78 692.072h1.255L587.745 38.455ZM592.013 38.455h-1.255l-284.78 692.072h1.256L592.013 38.455ZM596.28 38.455h-1.255l-284.78 692.072h1.256L596.28 38.455ZM600.55 38.455h-1.256L314.515 730.527h1.255L600.55 38.455ZM604.815 38.455h-1.255L318.781 730.527h1.255L604.815 38.455ZM609.082 38.455h-1.256L323.047 730.527h1.255l284.78-692.072ZM613.35 38.455h-1.255L327.316 730.527h1.254L613.35 38.455ZM617.616 38.455h-1.254L331.583 730.527h1.254L617.616 38.455ZM621.884 38.455h-1.255l-284.78 692.072h1.256L621.884 38.455ZM626.153 38.455h-1.255l-284.78 692.072h1.256L626.153 38.455ZM630.42 38.455h-1.256L344.385 730.527h1.256L630.42 38.455ZM634.687 38.455h-1.256L348.652 730.527h1.255l284.78-692.072ZM638.953 38.455h-1.255L352.919 730.527h1.254l284.78-692.072ZM540.806 38.455h-1.256L254.771 730.527h1.255l284.78-692.072ZM545.075 38.455h-1.256L259.04 730.527h1.255l284.78-692.072ZM549.342 38.455h-1.256L263.307 730.527h1.255l284.78-692.072ZM553.607 38.455h-1.254l-284.78 692.072h1.255L553.607 38.455ZM557.875 38.455h-1.255L271.841 730.527h1.255L557.875 38.455ZM562.142 38.455h-1.255l-284.78 692.072h1.256L562.142 38.455ZM566.411 38.455h-1.255l-284.78 692.072h1.256L566.411 38.455ZM570.679 38.455h-1.256L284.644 730.527h1.256L570.679 38.455ZM574.945 38.455h-1.256L288.91 730.527h1.255l284.78-692.072ZM579.212 38.455h-1.255L293.178 730.527h1.254l284.78-692.072ZM583.478 38.455h-1.255L297.444 730.527h1.255L583.478 38.455Z" fill="#D36611"/><path d="M587.745 38.455h-1.254l-284.78 692.072h1.255L587.745 38.455ZM592.013 38.455h-1.255l-284.78 692.072h1.256L592.013 38.455Z" fill="#D36611"/><g opacity=".6" fill="#C8500D"><path d="M1441.87-661.14h-2.46L879.037 700.662h2.471L1441.87-661.14ZM1450.27-661.14h-2.47L887.431 700.662h2.471L1450.27-661.14ZM1458.67-661.14h-2.47L895.834 700.662h2.464L1458.67-661.14ZM1467.06-661.14h-2.47L904.228 700.662h2.471L1467.06-661.14ZM1475.46-661.14h-2.47L912.622 700.662h2.471L1475.46-661.14ZM1483.86-661.14h-2.47L921.017 700.662h2.472L1483.86-661.14ZM1492.25-661.14h-2.47L929.418 700.662h2.472L1492.25-661.14Z"/></g><g opacity=".6" fill="#C8500D"><path d="M1499.93-661.14h-2.47L937.097 700.662h2.471L1499.93-661.14ZM1508.32-661.14h-2.46L945.491 700.662h2.471L1508.32-661.14ZM1516.73-661.14h-2.47L953.886 700.662h2.472L1516.73-661.14ZM1525.12-661.14h-2.47L962.288 700.662h2.464L1525.12-661.14ZM1533.52-661.14h-2.47L970.683 700.662h2.471L1533.52-661.14ZM1541.92-661.14h-2.47L979.078 700.662h2.471L1541.92-661.14ZM1550.31-661.14h-2.47L987.48 700.662h2.464L1550.31-661.14Z"/></g><path d="M1888.91-239.089h-419.7l-284.78 692.072h419.7l284.78-692.072Z" fill="#E07F09" fill-opacity=".9"/><path opacity=".6" fill-rule="evenodd" clip-rule="evenodd" d="M1319.34 213.674h-1.25l261.81-636.263h1.26l-261.82 636.263Zm4.27 0h-1.25l261.81-636.263h1.26l-261.82 636.263Zm4.27 0h-1.26l261.82-636.263h1.26l-261.82 636.263Zm4.27 0h-1.26l261.82-636.263h1.25l-261.81 636.263Zm4.26 0h-1.25l261.81-636.263h1.26l-261.82 636.263Zm4.27 0h-1.25l261.81-636.263h1.26l-261.82 636.263Zm4.27 0h-1.26l261.82-636.263h1.25l-261.81 636.263Zm4.27 0h-1.26l261.82-636.263h1.25l-261.81 636.263Zm4.26 0h-1.25l261.81-636.263h1.25l-261.81 636.263Zm4.27 0h-1.26l261.82-636.263h1.26l-261.82 636.263Zm4.27 0h-1.26l261.81-636.263h1.26l-261.81 636.263Zm4.27 0h-1.26l261.82-636.263h1.25l-261.81 636.263Zm4.26 0h-1.25l261.81-636.263h1.25l-261.81 636.263Zm4.27 0h-1.26l261.82-636.263h1.25l-261.81 636.263Zm4.27 0h-1.26l261.81-636.263h1.26l-261.81 636.263Zm4.27 0h-1.26l261.82-636.263h1.25l-261.81 636.263Zm4.26 0h-1.25l261.81-636.263h1.25l-261.81 636.263Zm4.27 0h-1.26l261.82-636.263h1.25l-261.81 636.263Zm4.27 0h-1.26l261.81-636.263h1.26l-261.81 636.263Zm4.26 0h-1.25l261.82-636.263h1.25l-261.82 636.263Zm4.27 0h-1.25l261.81-636.263h1.25l-261.81 636.263Zm4.26 0h-1.25l261.82-636.263h1.25l-261.82 636.263Zm4.28 0h-1.26l261.81-636.263h1.26l-261.81 636.263Zm4.26 0h-1.26l261.82-636.263h1.26l-261.82 636.263Zm4.27 0h-1.25l261.81-636.263h1.25l-261.81 636.263Zm4.26 0h-1.25l261.82-636.263h1.25l-261.82 636.263Zm4.27 0h-1.25l261.81-636.263h1.26l-261.82 636.263Zm4.27 0h-1.26l261.82-636.263h1.26l-261.82 636.263Zm4.27 0h-1.25l261.81-636.263h1.25l-261.81 636.263Zm4.26 0h-1.25l261.82-636.263h1.25l-261.82 636.263Zm4.27 0h-1.25l261.81-636.263h1.26l-261.82 636.263Zm4.27 0h-1.26l261.82-636.263h1.26l-261.82 636.263Zm4.27 0h-1.25l261.81-636.263h1.25L1455.9 213.674Zm4.26 0h-1.25l261.81-636.263h1.26l-261.82 636.263Zm4.27 0h-1.25l261.81-636.263h1.26l-261.82 636.263Zm4.27 0h-1.26l261.82-636.263h1.26L1468.7 213.674Zm4.27 0h-1.26l261.82-636.263h1.25l-261.81 636.263Zm4.26 0h-1.25l261.81-636.263h1.26l-261.82 636.263Zm4.27 0h-1.25l261.81-636.263h1.26L1481.5 213.674Zm4.27 0h-1.26l261.82-636.263h1.26l-261.82 636.263Zm4.27 0h-1.26l261.82-636.263h1.25l-261.81 636.263Zm4.26 0h-1.25l261.81-636.263h1.25L1494.3 213.674Zm4.27 0h-1.25l261.81-636.263h1.26l-261.82 636.263Z" fill="#C8500D"/></g></svg>