<svg width="665" height="807" fill="none" xmlns="http://www.w3.org/2000/svg"><mask id="a" style="mask-type:luminance" maskUnits="userSpaceOnUse" x="-97" y="0" width="860" height="809"><path d="M762.316 0H-96.313v808.187h858.629V0Z" fill="#fff"/></mask><g mask="url(#a)"><path d="M762.316.001H-96.313v808.187h858.629V.001Z" fill="#D9D9D9"/><g opacity=".5"><path d="m761.53 811.343-364.987.002L548.753.001 761.53 0v811.343Z" fill="#F2F2F2"/><path d="M452.675 356.29h.744l-84.632 451.899h-.744l84.632-451.899Zm-2.539 0h.744l-84.628 451.899h-.748l84.632-451.899Zm-2.535 0h.748l-84.632 451.899h-.748l84.632-451.899Zm-2.536 0h.745l-84.632 451.899h-.744l84.631-451.899Zm-2.535 0h.744l-84.631 451.899h-.745L442.53 356.29Zm-2.539 0h.748l-84.631 451.899h-.749l84.632-451.899Zm-2.535 0h.748l-84.632 451.899h-.744l84.628-451.899Zm-2.535 0h.744l-84.632 451.899h-.744l84.632-451.899Zm-2.539 0h.744l-84.628 451.899h-.748l84.632-451.899Zm-2.535 0h.748l-84.632 451.899h-.748l84.632-451.899Zm-2.536 0h.745l-84.632 451.899h-.744l84.631-451.899Zm-2.535 0h.744l-84.631 451.899h-.744l84.631-451.899Zm-2.539 0h.748l-84.631 451.899h-.749l84.632-451.899Zm-2.539 0h.748l-84.631 451.899h-.745l84.628-451.899Zm-2.531 0h.744l-84.632 451.899h-.744l84.632-451.899Zm-2.539 0h.748l-84.632 451.899h-.748l84.632-451.899Zm-2.535 0h.748l-84.632 451.899h-.744l84.628-451.899Zm-2.535 0h.744L325.67 808.189h-.744l84.632-451.899Zm-2.54 0h.745l-84.628 451.899h-.748l84.631-451.899Zm-2.535 0h.748L320.6 808.189h-.748l84.631-451.899Zm-2.535 0h.744l-84.631 451.899h-.745l84.632-451.899Zm-2.535 0h.744l-84.632 451.899h-.744l84.632-451.899Zm-2.539 0h.748L312.99 808.189h-.748l84.632-451.899Zm-2.535 0h.748l-84.632 451.899h-.744l84.628-451.899Zm-2.535 0h.744l-84.632 451.899h-.744l84.632-451.899Zm-2.539 0h.744l-84.628 451.899h-.748l84.632-451.899Zm-2.536 0h.749l-84.632 451.899h-.748l84.631-451.899Zm-2.535 0h.744l-84.631 451.899h-.745l84.632-451.899Zm-2.535 0h.744l-84.63 451.899h-.746l84.632-451.899Zm-2.541 0h.749l-84.633 451.899h-.746l84.63-451.899ZM537.39-95.61h.744l-84.632 451.9h-.744l84.632-451.9ZM534.854-95.61h.745l-84.628 451.9h-.748l84.631-451.9Zm-2.539 0h.749l-84.632 451.9h-.748l84.631-451.9Zm-2.535 0h.744l-84.631 451.9h-.745l84.632-451.9Zm-2.535 0h.744l-84.631 451.9h-.745l84.632-451.9Zm-2.539 0h.748l-84.632 451.9h-.748l84.632-451.9Zm-2.535 0h.748l-84.632 451.9h-.744l84.628-451.9Zm-2.535 0h.744l-84.632 451.9h-.744l84.632-451.9Zm-2.539 0h.744l-84.628 451.9h-.748l84.632-451.9Zm-2.536 0h.749l-84.632 451.9h-.748l84.631-451.9Zm-2.535 0h.745l-84.632 451.9h-.744l84.631-451.9Zm-2.535 0h.744l-84.631 451.9h-.745l84.632-451.9Zm-2.539 0h.748l-84.631 451.9h-.749l84.632-451.9Zm-2.539 0h.748l-84.632 451.9h-.744l84.628-451.9Zm-2.531 0h.744l-84.632 451.9h-.744l84.632-451.9Zm-2.539 0h.748l-84.632 451.9h-.748l84.632-451.9Zm-2.536 0h.749l-84.632 451.9h-.744l84.627-451.9Zm-2.535 0h.745l-84.632 451.9h-.744l84.631-451.9Zm-2.539 0h.745l-84.628 451.9h-.748l84.631-451.9Zm-2.535 0h.748l-84.631 451.9h-.749l84.632-451.9Zm-2.535 0h.744l-84.632 451.9h-.744l84.632-451.9Zm-2.535 0h.744l-84.632 451.9h-.744l84.632-451.9Zm-2.539 0h.748l-84.632 451.9h-.748l84.632-451.9Zm-2.539 0h.748l-84.632 451.9h-.744l84.628-451.9Zm-2.532 0h.745l-84.632 451.9h-.744l84.631-451.9Zm-2.539 0h.745l-84.628 451.9h-.748l84.631-451.9Zm-2.535 0h.748l-84.631 451.9h-.749l84.632-451.9Zm-2.535 0h.744l-84.631 451.9h-.745l84.632-451.9Zm-2.535 0h.744l-84.628 451.9h-.748l84.632-451.9Zm-2.539 0h.748l-84.632 451.9h-.748l84.632-451.9Z" fill="#BDBDBD"/><path opacity=".6" fill-rule="evenodd" clip-rule="evenodd" d="M-14.803 526.016h-.674l140.502-750.612h.673L-14.803 526.016Zm2.29 0h-.674l140.502-750.612h.673L-12.513 526.016Zm2.29 0h-.673l140.501-750.612h.673L-10.223 526.016Zm2.29 0h-.673l140.501-750.612h.673L-7.933 526.016Zm2.29 0h-.674l140.502-750.612h.673l-140.5 750.612Zm2.29 0h-.674l140.502-750.612h.673l-140.5 750.612Zm2.29 0h-.674l140.502-750.612h.673l-140.5 750.612Zm2.29 0H.554l140.501-750.612h.674L1.227 526.016Zm2.29 0h-.673l140.501-750.612h.674L3.517 526.016Zm2.29 0h-.673l140.501-750.612h.673L5.808 526.016Zm2.29 0h-.673l140.501-750.612h.673L8.098 526.016Zm2.29 0h-.674l140.502-750.612h.673l-140.5 750.612Zm2.29 0h-.673l140.501-750.612h.673l-140.5 750.612Zm2.29 0h-.673l140.501-750.612h.674L14.967 526.016Zm2.29 0h-.673l140.501-750.612h.674L17.257 526.016Zm2.29 0h-.673l140.501-750.612h.674L19.547 526.016Zm2.29 0h-.673l140.501-750.612h.673l-140.5 750.612Zm2.29 0h-.673l140.501-750.612h.673l-140.5 750.612Zm2.29 0h-.673l140.501-750.612h.674L26.417 526.016Zm2.29 0h-.673l140.501-750.612h.674L28.707 526.016Zm2.29 0h-.673l140.501-750.612h.674L30.998 526.016Zm2.29 0h-.673l140.501-750.612h.674L33.287 526.016Zm2.29 0h-.673l140.501-750.612h.674L35.577 526.016Zm2.29 0h-.673l140.501-750.612h.674L37.867 526.016Zm2.29 0h-.673l140.501-750.612h.674L40.157 526.016Zm2.29 0h-.673l140.501-750.612h.674L42.447 526.016Zm2.29 0h-.673l140.501-750.612h.674L44.737 526.016Zm2.29 0h-.673l140.501-750.612h.674L47.028 526.016Zm2.29 0h-.673l140.501-750.612h.674L49.317 526.016Zm2.29 0h-.673l140.501-750.612h.674L51.607 526.016Zm2.29 0h-.673l140.501-750.612h.674L53.897 526.016Zm2.29 0h-.673l140.501-750.612h.674L56.188 526.016Zm2.29 0h-.673l140.501-750.612h.674L58.477 526.016Zm2.29 0h-.673l140.501-750.612h.674L60.768 526.016Zm2.29 0h-.673l140.501-750.612h.674L63.058 526.016Zm2.29 0h-.673l140.501-750.612h.674L65.348 526.016Zm2.29 0h-.673l140.501-750.612h.674L67.637 526.016Zm2.29 0h-.673l140.501-750.612h.674L69.927 526.016Zm2.29 0h-.673l140.501-750.612h.674L72.218 526.016Zm2.29 0h-.673l140.502-750.612h.673L74.508 526.016Zm2.29 0h-.673l140.502-750.612h.673L76.798 526.016Zm2.29 0h-.673l140.501-750.612h.674L79.088 526.016Zm2.29 0h-.673l140.501-750.612h.674L81.378 526.016Z" fill="#BEBEBE"/><path d="M320.1-506.017h-1.326L18.059 1100.52h1.325L320.1-506.017Zm4.503 0h-1.322L22.562 1100.52h1.326L324.603-506.017Zm4.51 0h-1.326L27.07 1100.52h1.326L329.113-506.017Zm4.507 0h-1.326L31.578 1100.52h1.326L333.62-506.017Zm4.507 0H336.8L36.086 1100.52h1.325L338.127-506.017Zm4.506 0h-1.326L40.59 1100.52h1.325L342.633-506.017Zm4.503 0h-1.326L45.094 1100.52h1.325L347.136-506.017ZM351.257-506.017h-1.326L49.215 1100.52h1.325L351.257-506.017Zm4.503 0h-1.326L53.719 1100.52h1.325L355.76-506.017Zm4.506 0h-1.322L58.227 1100.52h1.325L360.266-506.017Zm4.511 0h-1.326L62.734 1100.52h1.326L364.777-506.017Zm4.507 0h-1.327L67.242 1100.52h1.325L369.284-506.017Zm4.502 0h-1.322L71.746 1100.52h1.325L373.786-506.017Zm4.507 0h-1.326L76.25 1100.52h1.325L378.293-506.017Z" opacity=".6" fill="#BEBEBE"/><path d="M23.223-8.116h-28.07l-152.825 816.449h28.07L23.223-8.117Z" fill="#E0E0E0"/><path d="M20.43-8.117h2.793l-152.825 816.45h-2.793L20.43-8.117Z" fill="#E0E0E0"/><path d="M.408-8.116h-.673L-153.09 808.333h.674L.408-8.117Zm2.286-.001H2.02l-152.825 816.45h.674L2.694-8.117Zm2.293 0h-.673l-152.826 816.45h.674L4.987-8.117Zm2.289 0h-.673l-152.826 816.45h.674L7.276-8.117Zm2.293 0h-.674l-152.825 816.45h.674L9.569-8.117Z" fill="#F2F2F2"/><path d="M834.212 0H593.503L440.68 816.45h240.705L834.212 0ZM586.774 0h-13.658L420.293 816.45h13.657L586.774 0Z" fill="#D9D9D9"/></g></g></svg>