<svg width="44" height="42" fill="none" xmlns="http://www.w3.org/2000/svg"><path fill="#9C9D9F" d="M0 0h44v42H0z"/><path fill-rule="evenodd" clip-rule="evenodd" d="m26.358 22.235 5.183 6.445c-.285.117-.59.178-.898.177H13.357c-.311 0-.616-.06-.898-.177l5.183-6.445a3.853 3.853 0 0 0 2.718 1.122h3.28a3.855 3.855 0 0 0 2.718-1.122Zm-15.07-7.863L16.619 21l-5.331 6.628A2.359 2.359 0 0 1 11 26.5v-11c0-.397.1-.785.288-1.128Zm21.424 0c.187.343.288.73.288 1.128v11c0 .398-.1.785-.288 1.128L27.381 21l5.331-6.628ZM12.46 13.32c.285-.118.59-.178.898-.178h17.286c.311 0 .616.061.898.178l-6.125 7.614a2.277 2.277 0 0 1-1.776.85h-3.28a2.278 2.278 0 0 1-1.776-.85l-6.125-7.614Z" fill="#000"/></svg>