<svg width="1600" height="778" fill="none" xmlns="http://www.w3.org/2000/svg"><path d="M965.118-7.814H844.186L509.131 778.139h120.938L965.118-7.814Zm40.902 0h-31.008l-335.05 785.953h31.01L1006.02-7.814Z" fill="#E07F09"/><path d="M845.661-7.814h-1.475L509.131 778.139h1.476L845.661-7.814Zm2.509 0h-1.476L511.641 778.139h1.477L848.17-7.814Zm2.508 0h-1.475L514.152 778.139h1.476L850.678-7.814Zm2.517 0h-1.484L516.662 778.139h1.476L853.195-7.814Zm2.508 0h-1.475L519.171 778.139h1.478L855.703-7.814Zm2.508 0h-1.475L521.682 778.139h1.477L858.211-7.814Zm2.508 0h-1.475L524.192 778.139h1.477L860.719-7.814Zm2.517 0h-1.484L526.703 778.139h1.476L863.236-7.814Zm2.509 0h-1.476L529.213 778.139h1.477L865.745-7.814Zm2.508 0h-1.476L531.724 778.139h1.476L868.253-7.814Zm2.508 0h-1.475L534.234 778.139h1.476L870.761-7.814Zm2.517 0h-1.484l-335.05 785.953h1.477L873.278-7.814Zm2.508 0h-1.475L539.254 778.139h1.477L875.786-7.814Z" fill="#C8500D"/><path d="M1202.12-7.814h-191.37L675.697 778.139h191.375L1202.12-7.814Z" fill="#E07F09"/><path fill-rule="evenodd" clip-rule="evenodd" d="M1250.26 778.139h175.28V366.977l-175.28 411.162Zm-370.638 0h360.158l185.76-435.755V-7.814h-210.86L879.622 778.139Z" fill="#E07F09"/><path fill-rule="evenodd" clip-rule="evenodd" d="M1064.92-7.814h1.47l-236.68 555.19h-1.476L1064.92-7.814Zm-2.52 0h1.48l-236.678 555.19h-1.476L1062.4-7.814Zm-2.51 0h1.48l-236.677 555.19h-1.475L1059.89-7.814Zm-2.51 0h1.48l-236.675 555.19h-1.484L1057.38-7.814Zm-2.5 0h1.47l-236.682 555.19h-1.475L1054.88-7.814Zm-2.52 0h1.48l-236.68 555.19h-1.475L1052.36-7.814Zm-2.51 0h1.48l-236.678 555.19h-1.476L1049.85-7.814Zm-2.51 0h1.48l-236.676 555.19h-1.484l236.68-555.19Zm-2.51 0h1.48l-236.683 555.19h-1.476L1044.83-7.814Zm-2.5 0h1.47l-236.681 555.19h-1.476L1042.33-7.814Zm-2.52 0h1.47l-236.67 555.19h-1.475L1039.81-7.814Zm-2.51 0h1.48l-236.678 555.19h-1.484L1037.3-7.814Zm-1.03 0-236.685 555.19h-1.475l236.68-555.19h1.48Z" fill="#C8500D"/><path d="M1294.48 778.139h-1.47l132.53-310.892v3.463l-131.06 307.429Zm2.52 0h-1.48l130.02-305.004v3.464L1297 778.139Zm2.51 0h-1.48l127.51-299.115v3.464l-126.03 295.651Zm2.51 0h-1.48l125-293.227v3.465l-123.52 289.762Z" fill="#C8500D"/><path d="M30.842 115.178v3.464L84.751-7.814h-1.477L30.842 115.178ZM80.763-7.814h1.478L30.842 112.753v-3.464L80.763-7.814Zm-2.509 0h1.476L30.842 106.864V103.4L78.254-7.814Zm-2.511 0h1.477l-46.378 108.79v-3.463l44.9-105.327Zm-2.51 0h1.476L30.842 95.087v-3.463l42.39-99.438Zm-2.51 0h1.476L30.842 89.198v-3.463l39.88-93.55Zm-2.511 0h1.477L30.842 83.31v-3.464l37.37-87.66Zm-2.51 0h1.476L30.842 77.42v-3.464l34.86-81.771Zm-2.511 0h1.477L30.842 71.533v-3.464l32.35-75.883Zm-2.51 0h1.477L30.842 65.644V62.18l29.84-69.994Zm-2.511 0h1.478l-28.806 67.57v-3.464L58.171-7.814Zm-2.51 0h1.477L30.842 53.867v-3.464L55.661-7.814Zm-2.51 0h1.477L30.842 47.979v-3.464l22.309-52.33Zm-2.51 0h1.477L30.842 42.09v-3.464L50.64-7.814Zm-2.51 0h1.476L30.842 36.202v-3.464L48.13-7.814Zm-2.51 0h1.476L30.842 30.313v-3.464L45.62-7.814Zm-2.51 0h1.476L30.842 24.424V20.96L43.11-7.814Zm-2.512 0h1.477l-11.233 26.35v-3.464l9.756-22.886Zm-2.51 0h1.477l-8.723 20.46V9.184l7.246-16.997Zm-2.51 0h1.477L30.842 6.759V3.295l4.736-11.11Zm-2.51 0h1.477L30.842.87v-3.464l2.226-5.22Zm52.716 0-54.942 128.88v3.464L87.262-7.814h-1.478Zm2.511 0L30.842 126.955v3.464L89.772-7.814h-1.477Zm2.51 0L30.842 132.844v3.463L92.282-7.814h-1.477Zm2.51 0L30.842 138.732v3.464l63.95-150.01h-1.477Zm2.511 0L30.842 144.62v3.464l66.46-155.9h-1.476Zm2.51 0L30.842 150.509v3.464L99.812-7.814h-1.476Zm2.51 0L30.842 156.398v3.464L102.323-7.814h-1.477Zm2.51 0-72.514 170.1v3.465L104.834-7.814h-1.478Zm2.511 0L30.842 168.175v3.464L107.343-7.814h-1.476Zm2.51 0L30.842 174.064v3.464L109.853-7.814h-1.476Zm2.51 0L30.842 179.953v3.463l81.522-191.23h-1.477Zm2.511 0L30.842 185.84v3.464l84.032-197.12h-1.476Zm2.51 0L30.842 191.73v3.463L117.385-7.814h-1.477Zm2.511 0L30.842 197.618v3.464L119.895-7.814h-1.476Zm2.51 0L30.842 203.507v3.464L122.406-7.814h-1.477Zm2.51 0L30.842 209.395v3.464L124.916-7.814h-1.477Zm2.51 0L30.842 215.284v3.464L127.426-7.814h-1.477Zm2.51 0L30.842 221.173v3.463l99.094-232.45h-1.477Zm2.511 0L30.842 227.06v3.464L132.446-7.815h-1.476Zm2.51 0L30.842 232.95v3.463L134.957-7.814h-1.477Zm2.511 0L30.842 238.838v3.464L137.467-7.814h-1.476Zm2.51 0L30.842 244.726v3.465L139.978-7.814h-1.477Zm2.511 0L30.842 250.615v3.465L142.488-7.814h-1.476Zm2.51 0L30.842 256.504v3.464L144.998-7.814h-1.476Zm2.509 0L30.842 262.393v3.464L147.51-7.814h-1.478Zm2.511 0-117.7 276.096v3.463L150.02-7.815h-1.477Zm2.51 0L30.842 274.17v3.463L152.53-7.814h-1.477Zm2.511 0L30.843 280.059v3.463L155.038-7.814h-1.476Zm2.51 0L30.843 285.947v3.464L157.55-7.814h-1.477Zm2.511 0L30.842 291.835v3.464L160.06-7.814h-1.476Zm2.51 0L30.842 297.724v3.464L162.57-7.814h-1.476Zm2.51 0L30.842 303.613v3.464L165.081-7.814h-1.477Zm2.51 0L30.842 309.5v3.465L167.591-7.814h-1.477Zm2.51 0L30.842 315.39v3.464L170.102-7.814h-1.478Zm2.511 0L30.842 321.279v3.463L172.611-7.814h-1.476Zm2.51 0L30.842 327.168v3.463L175.122-7.814h-1.477Zm2.511 0L30.842 333.056v3.464L177.632-7.814h-1.476Zm2.51 0L30.842 338.944v3.464l149.3-350.222h-1.476Zm2.51 0L30.842 344.833v3.464L182.653-7.814h-1.477Zm2.511 0L30.842 350.722v3.464l154.321-362h-1.476Zm2.51 0L30.842 356.61v3.464L187.674-7.814h-1.477Zm2.51 0L30.842 362.499v3.463L190.184-7.814h-1.477Zm2.51 0L30.842 368.388v3.463L192.694-7.814h-1.477Zm2.511 0L30.842 374.276v3.464L195.204-7.814h-1.476Zm2.51 0L30.842 380.164v3.464L197.714-7.814h-1.476Zm2.51 0L30.842 386.053v3.464L200.225-7.814h-1.477Zm2.511 0L30.842 391.942v3.464L202.735-7.814h-1.476Zm2.51 0L30.842 397.83v3.465L205.246-7.815h-1.477Zm2.511 0L30.842 403.719v3.464L207.756-7.814h-1.476Zm2.509 0L30.842 409.608v3.463L210.267-7.814h-1.478Zm2.511 0L30.842 415.496v3.464L212.777-7.814H211.3Zm2.51 0L30.842 421.384v3.465L215.287-7.814h-1.477Zm2.51 0L30.842 427.273v3.464L217.797-7.814h-1.477Zm2.511 0L30.842 433.162v3.464L220.307-7.814h-1.476Zm2.51 0L30.842 439.05v3.464L222.818-7.815h-1.477Zm2.511 0L30.842 444.939v3.464L225.328-7.814h-1.476Zm2.51 0L30.842 450.828v3.463L227.84-7.814h-1.477Zm2.511 0L30.843 456.717v3.463L230.348-7.814h-1.476Zm2.509 0L30.842 462.605v3.463L232.86-7.814h-1.477Zm2.51 0L30.842 468.493v3.464L235.37-7.814h-1.478Zm2.511 0L30.843 474.382v3.464L237.878-7.814h-1.476Zm2.51 0L30.843 480.27v3.465L240.39-7.815h-1.477Zm2.511 0L30.842 486.159v3.464L242.9-7.814h-1.476Zm2.51 0L30.842 492.048v3.464L245.411-7.814h-1.477Zm2.511 0L30.842 497.936v3.464L247.921-7.814h-1.476Zm2.51 0L30.842 503.825v3.464L250.432-7.814h-1.477Zm2.51 0L30.842 509.714v3.463l222.1-520.991h-1.477Zm2.51 0L30.842 515.602v3.464l224.61-526.88h-1.477Zm2.51 0L30.842 521.49v3.464l227.12-532.77h-1.477Zm2.511 0L30.842 527.379v3.464L260.472-7.814h-1.476Zm2.51 0L30.842 533.268v3.464L262.983-7.814h-1.477Zm2.511 0L30.842 539.157v3.464L265.493-7.814h-1.476Zm2.51 0L30.842 545.045v3.464L268.004-7.814h-1.477Zm171.946 0h1.477L272.423 385.162h-1.477L438.473-7.814Zm-2.511 0h1.478L269.912 385.162h-1.476L435.962-7.814Zm-2.509 0h1.476L267.403 385.162h-1.477L433.453-7.814Zm-2.511 0h1.477L264.892 385.162h-1.477L430.942-7.814Zm-2.51 0h1.476L262.382 385.162h-1.477L428.432-7.814Zm-2.511 0h1.477L259.872 385.162h-1.477L425.921-7.814Zm-2.51 0h1.476L257.361 385.162h-1.476L423.411-7.814Zm-2.51 0h1.476L254.851 385.162h-1.477L420.901-7.814Zm-2.511 0h1.477L252.34 385.162h-1.476L418.39-7.814Zm-2.51 0h1.477L249.83 385.162h-1.476L415.88-7.814Zm-2.51 0h1.477L247.32 385.162h-1.477L413.37-7.814Zm-2.51 0h1.476L244.81 385.162h-1.477L410.86-7.814Zm-2.511 0h1.477L242.3 385.162h-1.478L408.349-7.814Zm-2.51 0h1.476L239.789 385.162h-1.476L405.839-7.814Zm-2.51 0h1.476L237.279 385.162h-1.477L403.329-7.814Zm-2.511 0h1.477L234.768 385.162h-1.476L400.818-7.814Zm-2.51 0h1.476L232.258 385.162h-1.476L398.308-7.814Zm-2.511 0h1.478L229.748 385.162h-1.477L395.797-7.814Zm-2.51 0h1.477L227.237 385.162h-1.476L393.287-7.814Zm-2.51 0h1.477L224.727 385.162h-1.477L390.777-7.814Zm-2.51 0h1.476L222.217 385.162h-1.477L388.267-7.814Zm-2.51 0h1.476L219.707 385.162h-1.477L385.757-7.814Zm-2.511 0h1.477L217.196 385.162h-1.476L383.246-7.814Zm-2.51 0h1.476L214.686 385.162h-1.477L380.736-7.814Zm-2.511 0h1.477L212.175 385.162h-1.476L378.225-7.814Zm-2.51 0h1.477L209.665 385.162h-1.476L375.715-7.814Zm-2.511 0h1.478L207.155 385.162h-1.477L373.204-7.814Zm-2.51 0h1.477L204.644 385.162h-1.476L370.694-7.814Zm-2.509 0h1.476L202.134 385.162h-1.477L368.185-7.814Zm-2.511 0h1.477L199.624 385.162h-1.477L365.674-7.814Zm-2.51 0h1.476L197.114 385.162h-1.477L363.164-7.814Zm-2.511 0h1.477L194.603 385.162h-1.476L360.653-7.814Zm-2.51 0h1.476L192.093 385.162h-1.476L358.143-7.814Zm-2.511 0h1.477L189.583 385.162h-1.477L355.632-7.814Zm-2.51 0h1.477L187.072 385.162h-1.476L353.122-7.814Zm-2.511 0h1.478L184.562 385.162h-1.477L350.611-7.814Zm-2.509 0h1.476L182.052 385.162h-1.477L348.102-7.814Zm-2.51 0h1.476L179.542 385.162h-1.478L345.592-7.814Zm-2.511 0h1.477L177.031 385.162h-1.477L343.081-7.814Zm-2.51 0h1.476L174.521 385.162h-1.476L340.571-7.814Zm-2.511 0h1.477L172.011 385.162h-1.477L338.06-7.814Zm-2.51 0h1.476L169.5 385.162h-1.476L335.55-7.814Zm-2.511 0h1.477L166.99 385.162h-1.477L333.039-7.814Zm-2.51 0h1.477L164.479 385.162h-1.476L330.529-7.814Zm-2.51 0h1.477L161.969 385.162h-1.477L328.019-7.814Zm-2.51 0h1.477L159.459 385.162h-1.477L325.509-7.814Zm-2.51 0h1.476L156.949 385.162h-1.477L322.999-7.814Zm-2.511 0h1.477L154.439 385.162h-1.477L320.488-7.814Zm-2.51 0h1.476L151.928 385.162h-1.476L317.978-7.814Zm-2.511 0h1.477L149.418 385.162h-1.477L315.467-7.814Zm-2.51 0h1.476L146.907 385.162h-1.476L312.957-7.814Zm-2.51 0h1.477L144.397 385.162h-1.477L310.447-7.814Zm-2.511 0h1.478L141.886 385.162h-1.476L307.936-7.814Zm-2.51 0h1.477L139.376 385.162H137.9L305.426-7.814Zm-2.51 0h1.477L136.866 385.162h-1.477L302.916-7.814Zm-2.51 0h1.476L134.356 385.162h-1.477L300.406-7.814Zm-2.511 0h1.477L131.846 385.162h-1.477L297.895-7.814Zm-2.51 0h1.476L129.335 385.162h-1.476L295.385-7.814Zm-2.51 0h1.476L126.825 385.162h-1.477L292.875-7.814Zm-1.034 0L124.314 385.162h-1.476L290.364-7.814h1.477Z" fill="#BEBEBE"/><path fill-rule="evenodd" clip-rule="evenodd" d="M253.948 769.867h-1.478L560.506 47.292h1.476L253.948 769.867Zm2.51 0h-1.477L563.016 47.292h1.476L256.458 769.867Zm2.51 0h-1.477L565.526 47.292h1.477L258.968 769.867Zm2.51 0h-1.476L568.036 47.292h1.477L261.478 769.867Zm2.51 0h-1.476L570.546 47.292h1.477L263.988 769.867Zm2.511 0h-1.477L573.057 47.292h1.476L266.499 769.867Zm2.51 0h-1.476L575.567 47.292h1.477L269.009 769.867Zm2.511 0h-1.477L578.078 47.292h1.476L271.52 769.867Zm2.51 0h-1.477L580.588 47.292h1.476L274.03 769.867Zm2.511 0h-1.478L583.098 47.292h1.477L276.541 769.867Zm2.509 0h-1.476L585.609 47.292h1.476L279.05 769.867Zm2.51 0h-1.476L588.118 47.292h1.478L281.56 769.867Zm2.511 0h-1.477L590.629 47.292h1.477L284.071 769.867Zm2.51 0h-1.476L593.139 47.292h1.477L286.581 769.867Zm2.511 0h-1.477L595.65 47.292h1.476L289.092 769.867Zm2.51 0h-1.476L598.16 47.292h1.476L291.602 769.867Zm2.511 0h-1.477L600.67 47.292h1.477L294.113 769.867Zm2.51 0h-1.477L603.181 47.292h1.476L296.623 769.867Zm2.51 0h-1.477L605.691 47.292h1.477L299.133 769.867Zm2.51 0h-1.477L608.202 47.292h1.476L301.643 769.867Zm2.51 0h-1.476L610.711 47.292h1.478L304.153 769.867Zm2.511 0h-1.477L613.222 47.292h1.477L306.664 769.867Zm2.51 0h-1.476L615.732 47.292h1.476L309.174 769.867Zm2.511 0h-1.477L618.242 47.292h1.477L311.685 769.867Zm2.51 0h-1.476L620.753 47.292h1.476L314.195 769.867Zm2.51 0h-1.477L623.263 47.292h1.477L316.705 769.867Zm2.511 0h-1.478L625.774 47.292h1.476L319.216 769.867Zm2.51 0h-1.477L628.284 47.292h1.477L321.726 769.867Zm2.51 0h-1.477L630.794 47.292h1.477L324.236 769.867Zm2.51 0h-1.476L633.304 47.292h1.477L326.746 769.867Zm2.511 0h-1.477L635.814 47.292h1.477L329.257 769.867Zm2.51 0h-1.476L638.325 47.292h1.476L331.767 769.867Zm2.51 0h-1.476L640.835 47.292h1.477L334.277 769.867Zm2.511 0h-1.477L643.346 47.292h1.476L336.788 769.867Zm2.51 0h-1.477L645.856 47.292h1.477L339.298 769.867Zm2.511 0h-1.478L648.367 47.292h1.476L341.809 769.867Zm2.509 0h-1.476L650.877 47.292h1.476L344.318 769.867Zm2.511 0h-1.477L653.387 47.292h1.477L346.829 769.867Zm2.51 0h-1.476L655.897 47.292h1.477L349.339 769.867Zm2.51 0h-1.476L658.407 47.292h1.477L351.849 769.867Zm2.511 0h-1.477L660.918 47.292h1.476L354.36 769.867Zm2.51 0h-1.476L663.428 47.292h1.477L356.87 769.867Zm2.511 0h-1.477L665.939 47.292h1.476L359.381 769.867Zm2.51 0h-1.477L668.449 47.292h1.476L361.891 769.867Zm2.51 0h-1.477L670.959 47.292h1.477L364.401 769.867Zm2.51 0h-1.476L673.47 47.292h1.476L366.911 769.867Zm2.51 0h-1.476L675.979 47.292h1.478L369.421 769.867Zm2.511 0h-1.477L678.49 47.292h1.476L371.932 769.867Zm2.51 0h-1.476L681 47.292h1.477L374.442 769.867Zm2.511 0h-1.477L683.511 47.292h1.476L376.953 769.867Zm2.51 0h-1.476L686.021 47.292h1.476L379.463 769.867Zm2.511 0h-1.478L688.531 47.292h1.477L381.974 769.867Zm2.51 0h-1.477L691.042 47.292h1.476L384.484 769.867Zm2.51 0h-1.477L693.552 47.292h1.477L386.994 769.867Zm2.51 0h-1.477L696.062 47.292h1.477L389.504 769.867Zm2.51 0h-1.476L698.572 47.292h1.477L392.014 769.867Zm2.511 0h-1.477L701.083 47.292h1.476L394.525 769.867Zm2.51 0h-1.476L703.593 47.292h1.476L397.035 769.867Zm2.511 0h-1.477L706.103 47.292h1.477L399.546 769.867Zm2.51 0h-1.477L708.614 47.292h1.476L402.056 769.867Zm2.51 0h-1.477L711.124 47.292h1.477L404.566 769.867Zm2.511 0h-1.478L713.635 47.292h1.476L407.077 769.867Zm2.509 0h-1.476L716.145 47.292h1.477L409.586 769.867Zm2.511 0h-1.477L718.655 47.292h1.477L412.097 769.867Zm2.51 0h-1.476L721.165 47.292h1.477L414.607 769.867Zm2.511 0h-1.477L723.675 47.292h1.477L417.118 769.867Zm2.51 0h-1.476L726.186 47.292h1.477L419.628 769.867Zm2.51 0h-1.476L728.696 47.292h1.475L422.138 769.867Zm2.511 0h-1.477L731.204 47.292h1.476L424.649 769.867Zm2.51 0h-1.477L733.721 47.292h1.475L427.159 769.867Zm2.51 0h-1.477L736.229 47.292h1.476L429.669 769.867Zm2.51 0h-1.476L738.737 47.292h1.476L432.179 769.867Zm2.511 0h-1.477L741.246 47.292h1.475L434.69 769.867Zm2.51 0h-1.476l308.03-722.575h1.484L437.2 769.867Zm2.51 0h-1.476L746.271 47.292h1.475L439.71 769.867Zm2.511 0h-1.477L748.779 47.292h1.475L442.221 769.867Zm2.51 0h-1.476L751.287 47.292h1.476L444.731 769.867Zm2.511 0h-1.478L753.795 47.292h1.484L447.242 769.867Zm2.51 0h-1.477L756.312 47.292h1.476L449.752 769.867Zm2.51 0h-1.477L758.82 47.292h1.476L452.262 769.867Zm2.51 0h-1.476L761.329 47.292h1.475L454.772 769.867Zm2.511 0h-1.477L763.837 47.292h1.484L457.283 769.867Zm2.51 0h-1.476L766.354 47.292h1.475L459.793 769.867Zm2.51 0h-1.476L768.862 47.292h1.475L462.303 769.867Zm2.511 0h-1.477L771.37 47.292h1.476L464.814 769.867Zm2.51 0h-1.477L773.878 47.292h1.484L467.324 769.867Zm2.511 0h-1.478L776.395 47.292h1.476L469.835 769.867Zm2.509 0h-1.476L778.904 47.292h1.475L472.344 769.867Zm2.511 0h-1.477L781.412 47.292h1.475L474.855 769.867Zm2.51 0h-1.476L783.92 47.292h1.484L477.365 769.867Zm2.51 0h-1.476L786.437 47.292h1.475L479.875 769.867Zm2.511 0h-1.477L788.945 47.292h1.475L482.386 769.867Zm2.51 0h-1.476L791.453 47.292h1.476L484.896 769.867Zm2.511 0h-1.477L793.961 47.292h1.476l-308.03 722.575Zm2.51 0h-1.477L796.478 47.292h1.476L489.917 769.867Zm2.51 0h-1.477L798.986 47.292h1.476L492.427 769.867Z" fill="#BEBEBE"/><path d="M2077.33 781.039H489.091L822.793 0H2077.33v781.04Z" fill="#FFD194"/><path d="M-309.371 0H842.754L509.05 781.039h-818.421V0Z" fill="#D9D9D9"/><path d="M905.72-7.814h-61.534L509.131 778.139h61.539L905.72-7.814Z" fill="#E07F09" fill-opacity=".9"/><path d="M899.601-7.814h6.119L570.67 778.139h-6.122L899.601-7.814Z" fill="#E07F09" fill-opacity=".9"/><path d="M845.661-7.814h-1.475L509.131 778.139h1.476L845.661-7.814Zm5.017 0h-1.475L514.152 778.139h1.476L850.678-7.814Zm5.025 0h-1.475L519.171 778.139h1.478L855.703-7.814Zm5.016 0h-1.475L524.192 778.139h1.477L860.719-7.814Zm5.026 0h-1.476L529.213 778.139h1.477L865.745-7.814Zm5.016 0h-1.475L534.234 778.139h1.476L870.761-7.814Zm5.025 0h-1.475L539.254 778.139h1.477L875.786-7.814Z" fill="#C8500D" fill-opacity=".6"/><path d="M1477.66-7.814H938.656L603.603 778.139h539.007L1477.66-7.814Zm-551.111 0h-21.307L570.189 778.139H591.5L926.549-7.814Zm652.621 0h-89.79l-335.05 785.953h89.79L1579.17-7.814Z" fill="#E07F09" fill-opacity=".9"/><path d="M1294.48 778.139h-1.47l132.53-310.892v3.463l-131.06 307.429Zm5.03 0h-1.48l127.51-299.115v3.464l-126.03 295.651Zm5.14 0h-1.48l132.54-310.892v3.463l-131.06 307.429Zm5.02 0h-1.48l127.52-299.115v3.464l-126.04 295.651Z" fill="#C8500D" fill-opacity=".6"/><path d="M523.527-7.814h1.476L357.477 385.162h-1.478L523.527-7.814Zm-5.021 0h1.476L352.456 385.162h-1.477L518.506-7.814Zm-5.021 0h1.476L347.435 385.162h-1.476L513.485-7.814Zm-5.021 0h1.477L342.414 385.162h-1.476L508.464-7.814Zm-5.02 0h1.477L337.394 385.162h-1.477L503.444-7.814Zm-5.021 0h1.477L332.374 385.162h-1.478L498.423-7.814Zm-5.021 0h1.477L327.353 385.162h-1.477L493.402-7.814Zm-5.02 0h1.476L322.332 385.162h-1.477L488.382-7.814Zm-5.021 0h1.477L317.311 385.162h-1.476L483.361-7.814Zm-5.02 0h1.476L312.291 385.162h-1.477L478.341-7.814Zm-5.021 0h1.476L307.27 385.162h-1.476L473.32-7.814Zm-5.021 0h1.477L302.249 385.162h-1.476L468.299-7.814Zm-5.021 0h1.478L297.229 385.162h-1.477L463.278-7.814Zm-5.02 0h1.477L292.208 385.162h-1.477L458.258-7.814Zm-5.021 0h1.477L287.188 385.162h-1.477L453.237-7.814Zm-5.02 0h1.476L282.167 385.162h-1.477L448.217-7.814Zm-5.021 0h1.477L277.146 385.162h-1.476L443.196-7.814Zm-5.02 0h1.476L272.126 385.162h-1.477L438.176-7.814Zm-5.021 0h1.477L267.105 385.162h-1.476L433.155-7.814Zm-5.021 0h1.477L262.084 385.162h-1.476L428.134-7.814Zm-5.021 0h1.477L257.064 385.162h-1.477L423.113-7.814Zm-5.02 0h1.477L252.043 385.162h-1.477L418.093-7.814Zm-5.02 0h1.476L247.023 385.162h-1.477L413.073-7.814Zm-5.021 0h1.476L242.002 385.162h-1.476L408.052-7.814Zm-5.021 0h1.477L236.981 385.162h-1.476L403.031-7.814Zm-5.02 0h1.476L231.96 385.162h-1.476L398.011-7.814Zm-5.021 0h1.477L226.94 385.162h-1.477L392.99-7.814Zm-5.021 0h1.477L221.92 385.162h-1.477L387.969-7.814Zm-5.021 0h1.477L216.899 385.162h-1.477L382.948-7.814Zm-5.02 0h1.477L211.878 385.162h-1.477L377.928-7.814Zm187.113 72.471h-1.476L228.511 850.611h1.478L565.041 64.657Zm5.021 0h-1.477L233.532 850.611h1.477L570.062 64.657Zm5.021 0h-1.477L238.553 850.611h1.476L575.083 64.657Zm5.021 0h-1.478L243.574 850.611h1.476L580.104 64.657Zm5.02 0h-1.477L248.594 850.611h1.477L585.124 64.657Zm5.02 0h-1.476L253.615 850.611h1.476L590.144 64.657Zm5.021 0h-1.476L258.635 850.611h1.477L595.165 64.657Zm5.021 0h-1.477L263.656 850.611h1.477L600.186 64.657Zm5.02 0h-1.477L268.677 850.611h1.477L605.206 64.657Zm5.021 0h-1.477L273.697 850.611h1.477L610.227 64.657Zm5.021 0h-1.477L278.718 850.611h1.476L615.248 64.657Zm5.021 0h-1.478L283.739 850.611h1.476L620.269 64.657Zm5.02 0h-1.477L288.76 850.611h1.476L625.289 64.657Zm-115.474 0h-1.477L173.285 850.611h1.476L509.815 64.657Zm5.02 0h-1.477L178.306 850.611h1.476L514.835 64.657Zm5.02 0h-1.476L183.326 850.611h1.477L519.855 64.657Zm5.021 0H523.4L188.346 850.611h1.477L524.876 64.657Zm5.021 0h-1.476L193.367 850.611h1.477L529.897 64.657Zm5.021 0h-1.477L198.388 850.611h1.477L534.918 64.657Zm5.02 0h-1.477L203.409 850.611h1.476L539.938 64.657Zm5.021 0h-1.477L208.429 850.611h1.477L544.959 64.657Zm5.02 0h-1.476L213.45 850.611h1.476L549.979 64.657Zm5.021 0h-1.477L218.471 850.611h1.476L555 64.657Zm5.021 0h-1.477L223.491 850.611h1.477L560.021 64.657Z" fill="#BEBEBE"/><path d="M565.041 64.657h-1.476L228.511 850.611h1.478L565.041 64.657Zm5.021 0h-1.477L233.532 850.611h1.477L570.062 64.657Zm115.475 0h-1.478L349.007 850.611h1.476L685.537 64.657Zm5.02 0h-1.477L354.028 850.611h1.476L690.557 64.657Zm5.02 0h-1.476L359.048 850.611h1.477L695.577 64.657Zm5.021 0h-1.476L364.069 850.611h1.476L700.598 64.657Zm5.021 0h-1.477L369.089 850.611h1.477L705.619 64.657Zm5.02 0h-1.476L374.11 850.611h1.477L710.639 64.657Zm5.021 0h-1.477L379.13 850.611h1.477L715.66 64.657Zm5.021 0h-1.477L384.151 850.611h1.476L720.681 64.657Zm5.021 0h-1.477L389.172 850.611h1.476L725.702 64.657Zm5.016 0h-1.475l-335.05 785.954h1.476L730.718 64.657Zm5.025 0h-1.475L399.213 850.611h1.477L735.743 64.657Zm5.017 0h-1.476L404.233 850.611h1.477L740.76 64.657Zm5.025 0h-1.476L409.254 850.611h1.477L745.785 64.657Zm-115.476 0h-1.476L293.779 850.611h1.478L630.309 64.657Zm5.021 0h-1.476L298.8 850.611h1.477L635.33 64.657Zm5.021 0h-1.477L303.821 850.611h1.477L640.351 64.657Zm5.02 0h-1.477L308.842 850.611h1.477L645.371 64.657Zm5.021 0h-1.477L313.862 850.611h1.477L650.392 64.657Zm5.021 0h-1.477L318.883 850.611h1.476L655.413 64.657Zm5.02 0h-1.476L323.904 850.611h1.476L660.433 64.657Zm5.021 0h-1.477L328.925 850.611h1.476L665.454 64.657Zm5.02 0h-1.476L333.945 850.611h1.477L670.474 64.657Zm5.021 0h-1.476L338.965 850.611h1.477L675.495 64.657Zm5.021 0h-1.477L343.986 850.611h1.477L680.516 64.657Z" fill="#BEBEBE"/><path d="M685.537 64.657h-1.478L349.007 850.611h1.476L685.537 64.657Zm5.02 0h-1.477L354.028 850.611h1.476L690.557 64.657ZM260.21-237.047h-1.477L-76.32 548.907h1.477L260.21-237.047Zm5.02 0h-1.476L-71.299 548.907h1.477L265.23-237.047Zm5.021 0h-1.476L-66.278 548.907h1.476l335.053-785.954Zm5.021 0h-1.477L-61.258 548.907h1.477l335.053-785.954Zm5.02 0h-1.476L-56.237 548.907h1.477l335.052-785.954Zm5.021 0h-1.476L-51.217 548.907h1.477l335.053-785.954Zm5.021 0h-1.477L-46.196 548.907h1.476l335.054-785.954Zm5.021 0h-1.477L-41.175 548.907h1.476l335.054-785.954Zm5.02 0h-1.477L-36.155 548.907h1.477l335.053-785.954Zm5.02 0h-1.476L-31.134 548.907h1.477l335.052-785.954Zm5.021 0h-1.476L-26.114 548.907h1.477l335.053-785.954Zm5.021 0h-1.477L-21.093 548.907h1.477l335.053-785.954Zm5.021 0h-1.477L-16.072 548.907h1.477l335.053-785.954Zm-115.475 0h-1.476l-335.054 785.954h1.477l335.053-785.954Zm5.021 0h-1.477l-335.053 785.954h1.477l335.053-785.954Zm5.02 0h-1.477l-335.052 785.954h1.476l335.053-785.954Zm5.021 0h-1.477l-335.053 785.954h1.477l335.053-785.954Zm5.021 0h-1.477l-335.053 785.954h1.477l335.053-785.954Zm5.02 0h-1.477l-335.052 785.954h1.476l335.053-785.954Zm5.021 0h-1.477l-335.053 785.954h1.477l335.053-785.954Zm5.02 0h-1.476L-96.402 548.907h1.477l335.052-785.954Zm5.021 0h-1.476L-91.381 548.907h1.476l335.053-785.954Zm5.021 0h-1.477L-86.361 548.907h1.477l335.053-785.954Zm5.021 0h-1.478L-81.34 548.907h1.476L255.19-237.047Z" fill="#BEBEBE"/><path d="M260.21-237.047h-1.477L-76.32 548.907h1.477L260.21-237.047Zm5.02 0h-1.476L-71.299 548.907h1.477L265.23-237.047Zm115.475 0h-1.477L44.176 548.907h1.476l335.053-785.954Zm5.021 0h-1.477L49.196 548.907h1.477l335.053-785.954Zm5.02 0h-1.476L54.216 548.907h1.478l335.052-785.954Zm5.021 0h-1.477L59.237 548.907h1.477l335.053-785.954Zm5.021 0h-1.477L64.258 548.907h1.476l335.054-785.954Zm5.021 0h-1.478L69.279 548.907h1.476l335.054-785.954Zm5.019 0h-1.476L74.299 548.907h1.477l335.052-785.954Zm5.021 0h-1.476L79.32 548.907h1.476L415.85-237.047Zm5.021 0h-1.476L84.34 548.907h1.477L420.87-237.047Zm5.021 0h-1.477L89.361 548.907h1.477L425.89-237.047Zm5.02 0h-1.477L94.381 548.907h1.478L430.91-237.047Zm5.021 0h-1.477L99.402 548.907h1.477l335.053-785.954Zm5.021 0h-1.477L104.423 548.907h1.476l335.054-785.954Zm-115.475 0h-1.477L-11.052 548.907h1.477l335.053-785.954Zm5.021 0h-1.477L-6.031 548.907h1.476L330.5-237.047Zm5.021 0h-1.477L-1.01 548.907H.466L335.52-237.047Zm5.02 0h-1.477L4.011 548.907h1.476L340.54-237.047Zm5.02 0h-1.476L9.031 548.907h1.477L345.56-237.047Zm5.021 0h-1.476L14.051 548.907h1.477l335.053-785.954Zm5.021 0h-1.476L19.072 548.907h1.477l335.053-785.954Zm5.021 0h-1.478L24.093 548.907h1.477l335.053-785.954Zm5.02 0h-1.477L29.113 548.907h1.477l335.053-785.954Zm5.021 0h-1.477L34.134 548.907h1.477l335.053-785.954Zm5.02 0h-1.476L39.155 548.907h1.476l335.053-785.954Z" fill="#BEBEBE"/><path d="M380.705-237.047h-1.477L44.176 548.907h1.476l335.053-785.954Zm5.021 0h-1.477L49.196 548.907h1.477l335.053-785.954Z" fill="#BEBEBE"/><path d="M1421.86-487.118h-1.48l-335.05 785.954h1.48l335.05-785.954Zm5.02 0h-1.48l-335.05 785.954h1.48l335.05-785.954Zm5.02 0h-1.48l-335.05 785.954h1.48l335.05-785.954Zm5.02 0h-1.47l-335.06 785.954h1.48l335.05-785.954Zm5.03 0h-1.49l-335.05 785.954h1.48l335.06-785.954Zm5.01 0h-1.47l-335.06 785.954h1.48l335.05-785.954Zm5.02 0h-1.48l-335.05 785.954h1.48l335.05-785.954ZM1456.58-487.118h-1.49l-335.04 785.954h1.47l335.06-785.954Zm5.01 0h-1.47l-335.06 785.954h1.49l335.04-785.954Zm5.03 0h-1.48l-335.05 785.954h1.47l335.06-785.954Zm5.02 0h-1.48L1135.1 298.836h1.49l335.05-785.954Zm5.02 0h-1.48l-335.05 785.954h1.47l335.06-785.954Zm5.02 0h-1.48l-335.06 785.954h1.49l335.05-785.954Zm5.01 0h-1.47l-335.05 785.954h1.48l335.04-785.954Z" opacity=".6" fill="#C8500D"/><path opacity=".6" fill-rule="evenodd" clip-rule="evenodd" d="M702.496 1176.7h-1.476l308.03-722.577h1.48L702.496 1176.7Zm5.021 0h-1.477l308.04-722.577h1.47L707.517 1176.7Zm5.02 0h-1.476l308.029-722.577h1.49L712.537 1176.7Zm5.021 0h-1.476l308.038-722.577h1.47L717.558 1176.7Zm5.021 0h-1.477l308.028-722.577h1.49L722.579 1176.7Zm5.023 0h-1.479l308.037-722.577h1.47L727.602 1176.7Zm5.017 0h-1.476l308.037-722.577h1.47L732.619 1176.7Zm5.025 0h-1.476L1044.2 454.123h1.48L737.644 1176.7Zm5.016 0h-1.475l308.035-722.577h1.47L742.66 1176.7Zm5.025 0h-1.484l308.039-722.577h1.48L747.685 1176.7Zm5.017 0h-1.476l308.034-722.577h1.47L752.702 1176.7Zm5.025 0h-1.484l308.037-722.577h1.48L757.727 1176.7Zm5.016 0h-1.475L1069.3 454.123h1.47L762.743 1176.7Zm5.025 0h-1.484l308.036-722.577h1.48L767.768 1176.7Zm5.017 0h-1.476l308.031-722.577h1.48L772.785 1176.7Zm5.025 0h-1.484l308.044-722.577h1.47L777.81 1176.7Zm5.016 0h-1.475l308.029-722.577h1.48L782.826 1176.7Zm5.025 0h-1.484l308.043-722.577h1.47L787.851 1176.7Zm5.017 0h-1.476l308.028-722.577h1.48L792.868 1176.7Zm5.016 0h-1.475l308.041-722.577h1.47L797.884 1176.7Zm5.025 0h-1.475l308.036-722.577h1.47L802.909 1176.7Zm5.017 0h-1.476l308.04-722.577h1.48L807.926 1176.7Zm5.025 0h-1.476l308.035-722.577h1.47L812.951 1176.7Zm5.016 0h-1.475l308.038-722.577h1.48L817.967 1176.7Zm5.025 0h-1.475l308.033-722.577h1.47L822.992 1176.7Zm5.017 0h-1.476l308.037-722.577h1.48L828.009 1176.7Zm5.025 0h-1.476l308.032-722.577h1.48L833.034 1176.7Zm5.016 0h-1.475l308.045-722.577h1.47L838.05 1176.7Zm5.025 0H841.6l308.03-722.577h1.48L843.075 1176.7Zm5.017 0h-1.476l308.044-722.577h1.47L848.092 1176.7Zm5.025 0h-1.476l308.029-722.577h1.48L853.117 1176.7Zm5.016 0h-1.475l308.032-722.577h1.48L858.133 1176.7Zm5.025 0h-1.475l308.027-722.577h1.48L863.158 1176.7Zm5.017 0h-1.476l308.031-722.577h1.48L868.175 1176.7Zm5.025 0h-1.476l308.036-722.577h1.47L873.2 1176.7Zm5.016 0h-1.475l308.029-722.577h1.49L878.216 1176.7Zm5.025 0h-1.475L1189.8 454.123h1.47L883.241 1176.7Zm5.017 0h-1.476l308.028-722.577h1.49L888.258 1176.7Zm5.025 0h-1.476l308.033-722.577h1.47L893.283 1176.7Zm5.016 0h-1.475l308.036-722.577h1.48L898.299 1176.7Zm5.025 0h-1.475l308.031-722.577h1.48L903.324 1176.7Zm5.017 0h-1.476L1214.9 454.123h1.47L908.341 1176.7Zm5.025 0h-1.476l308.03-722.577h1.48L913.366 1176.7Z" fill="#C8500D"/><path d="M2082.54-7.814h-493.79L1253.7 778.139h493.8L2082.54-7.814Z" fill="#E07F09" fill-opacity=".9"/></svg>