<svg width="1600" height="778" viewBox="0 0 1600 778" fill="none" xmlns="http://www.w3.org/2000/svg">
<path d="M965.118 -7.81445H844.186L509.131 778.139H630.069L965.118 -7.81445Z" fill="#E07F09"/>
<path d="M1006.02 -7.81445H975.012L639.962 778.139H670.972L1006.02 -7.81445Z" fill="#E07F09"/>
<path d="M845.661 -7.81445H844.186L509.131 778.139H510.607L845.661 -7.81445Z" fill="#C8500D"/>
<path d="M848.17 -7.81445H846.694L511.641 778.139H513.118L848.17 -7.81445Z" fill="#C8500D"/>
<path d="M850.678 -7.81445H849.203L514.152 778.139H515.628L850.678 -7.81445Z" fill="#C8500D"/>
<path d="M853.195 -7.81445H851.711L516.662 778.139H518.138L853.195 -7.81445Z" fill="#C8500D"/>
<path d="M855.703 -7.81445H854.228L519.171 778.139H520.649L855.703 -7.81445Z" fill="#C8500D"/>
<path d="M858.211 -7.81445H856.736L521.682 778.139H523.159L858.211 -7.81445Z" fill="#C8500D"/>
<path d="M860.719 -7.81445H859.244L524.192 778.139H525.669L860.719 -7.81445Z" fill="#C8500D"/>
<path d="M863.236 -7.81445H861.752L526.703 778.139H528.179L863.236 -7.81445Z" fill="#C8500D"/>
<path d="M865.745 -7.81445H864.269L529.213 778.139H530.69L865.745 -7.81445Z" fill="#C8500D"/>
<path d="M868.253 -7.81445H866.777L531.724 778.139H533.2L868.253 -7.81445Z" fill="#C8500D"/>
<path d="M870.761 -7.81445H869.286L534.234 778.139H535.71L870.761 -7.81445Z" fill="#C8500D"/>
<path d="M873.278 -7.81445H871.794L536.744 778.139H538.221L873.278 -7.81445Z" fill="#C8500D"/>
<path d="M875.786 -7.81445H874.311L539.254 778.139H540.731L875.786 -7.81445Z" fill="#C8500D"/>
<path d="M1202.12 -7.81445H1010.75L675.697 778.139H867.072L1202.12 -7.81445Z" fill="#E07F09"/>
<path fill-rule="evenodd" clip-rule="evenodd" d="M1250.26 778.139H1425.54V366.977L1250.26 778.139Z" fill="#E07F09"/>
<path fill-rule="evenodd" clip-rule="evenodd" d="M879.622 778.139H1239.78L1425.54 342.384V-7.81445H1214.68L879.622 778.139Z" fill="#E07F09"/>
<path fill-rule="evenodd" clip-rule="evenodd" d="M1064.92 -7.81445H1066.39L829.71 547.376H828.234L1064.92 -7.81445ZM1062.4 -7.81445H1063.88L827.202 547.376H825.726L1062.4 -7.81445ZM1059.89 -7.81445H1061.37L824.693 547.376H823.218L1059.89 -7.81445ZM1057.38 -7.81445H1058.86L822.185 547.376H820.701L1057.38 -7.81445ZM1054.88 -7.81445H1056.35L819.668 547.376H818.193L1054.88 -7.81445ZM1052.36 -7.81445H1053.84L817.16 547.376H815.685L1052.36 -7.81445ZM1049.85 -7.81445H1051.33L814.652 547.376H813.176L1049.85 -7.81445ZM1047.34 -7.81445H1048.82L812.144 547.376H810.66L1047.34 -7.81445ZM1044.83 -7.81445H1046.31L809.627 547.376H808.151L1044.83 -7.81445ZM1042.33 -7.81445H1043.8L807.119 547.376H805.643L1042.33 -7.81445ZM1039.81 -7.81445H1041.28L804.61 547.376H803.135L1039.81 -7.81445ZM1037.3 -7.81445H1038.78L802.102 547.376H800.618L1037.3 -7.81445ZM1036.27 -7.81445L799.585 547.376H798.11L1034.79 -7.81445H1036.27Z" fill="#C8500D"/>
<path d="M1294.48 778.139H1293.01L1425.54 467.247V470.71L1294.48 778.139Z" fill="#C8500D"/>
<path d="M1297 778.139H1295.52L1425.54 473.135V476.599L1297 778.139Z" fill="#C8500D"/>
<path d="M1299.51 778.139H1298.03L1425.54 479.024V482.488L1299.51 778.139Z" fill="#C8500D"/>
<path d="M1302.02 778.139H1300.54L1425.54 484.912V488.377L1302.02 778.139Z" fill="#C8500D"/>
<path d="M30.8424 115.178V118.642L84.7506 -7.81445H83.2743L30.8424 115.178Z" fill="#BEBEBE"/>
<path d="M80.7635 -7.81445H82.2406L30.8424 112.753V109.289L80.7635 -7.81445Z" fill="#BEBEBE"/>
<path d="M78.2535 -7.81445H79.7298L30.8424 106.864V103.4L78.2535 -7.81445Z" fill="#BEBEBE"/>
<path d="M75.7427 -7.81445H77.2199L30.8424 100.976V97.5125L75.7427 -7.81445Z" fill="#BEBEBE"/>
<path d="M73.2328 -7.81445H74.7091L30.8424 95.0873V91.6237L73.2328 -7.81445Z" fill="#BEBEBE"/>
<path d="M70.7229 -7.81445H72.1991L30.8424 89.1985V85.7348L70.7229 -7.81445Z" fill="#BEBEBE"/>
<path d="M68.212 -7.81445H69.6892L30.8424 83.3102V79.8462L68.212 -7.81445Z" fill="#BEBEBE"/>
<path d="M65.7021 -7.81445H67.1784L30.8424 77.4215V73.9575L65.7021 -7.81445Z" fill="#BEBEBE"/>
<path d="M63.1913 -7.81445H64.6685L30.8424 71.5329V68.0692L63.1913 -7.81445Z" fill="#BEBEBE"/>
<path d="M60.6814 -7.81445H62.1576L30.8424 65.6443V62.1805L60.6814 -7.81445Z" fill="#BEBEBE"/>
<path d="M58.1706 -7.81445H59.6477L30.8424 59.7559V56.2919L58.1706 -7.81445Z" fill="#BEBEBE"/>
<path d="M55.6606 -7.81445H57.1369L30.8424 53.8672V50.4032L55.6606 -7.81445Z" fill="#BEBEBE"/>
<path d="M53.1507 -7.81445H54.627L30.8424 47.9786V44.5149L53.1507 -7.81445Z" fill="#BEBEBE"/>
<path d="M50.6399 -7.81445H52.117L30.8424 42.0899V38.6262L50.6399 -7.81445Z" fill="#BEBEBE"/>
<path d="M48.1299 -7.81445H49.6062L30.8424 36.2016V32.7376L48.1299 -7.81445Z" fill="#BEBEBE"/>
<path d="M45.6191 -7.81445H47.0963L30.8424 30.3129V26.8489L45.6191 -7.81445Z" fill="#BEBEBE"/>
<path d="M43.1092 -7.81445H44.5855L30.8424 24.4243V20.9603L43.1092 -7.81445Z" fill="#BEBEBE"/>
<path d="M40.5984 -7.81445H42.0755L30.8424 18.5356V15.0719L40.5984 -7.81445Z" fill="#BEBEBE"/>
<path d="M38.0884 -7.81445H39.5647L30.8424 12.6469V9.1832L38.0884 -7.81445Z" fill="#BEBEBE"/>
<path d="M35.5785 -7.81445H37.0548L30.8424 6.75858V3.29458L35.5785 -7.81445Z" fill="#BEBEBE"/>
<path d="M33.0677 -7.81445H34.5448L30.8424 0.869928V-2.59407L33.0677 -7.81445Z" fill="#BEBEBE"/>
<path d="M85.7842 -7.81445L30.8424 121.066V124.53L87.2614 -7.81445H85.7842Z" fill="#BEBEBE"/>
<path d="M88.295 -7.81445L30.8424 126.955V130.419L89.7713 -7.81445H88.295Z" fill="#BEBEBE"/>
<path d="M90.805 -7.81445L30.8424 132.844V136.307L92.2812 -7.81445H90.805Z" fill="#BEBEBE"/>
<path d="M93.3149 -7.81445L30.8424 138.732V142.196L94.7921 -7.81445H93.3149Z" fill="#BEBEBE"/>
<path d="M95.8257 -7.81445L30.8424 144.621V148.085L97.302 -7.81445H95.8257Z" fill="#BEBEBE"/>
<path d="M98.3357 -7.81445L30.8424 150.509V153.973L99.8128 -7.81445H98.3357Z" fill="#BEBEBE"/>
<path d="M100.846 -7.81445L30.8424 156.398V159.862L102.323 -7.81445H100.846Z" fill="#BEBEBE"/>
<path d="M103.356 -7.81445L30.8424 162.286V165.751L104.834 -7.81445H103.356Z" fill="#BEBEBE"/>
<path d="M105.867 -7.81445L30.8424 168.175V171.639L107.343 -7.81445H105.867Z" fill="#BEBEBE"/>
<path d="M108.377 -7.81445L30.8424 174.064V177.528L109.853 -7.81445H108.377Z" fill="#BEBEBE"/>
<path d="M110.887 -7.81445L30.8424 179.953V183.416L112.364 -7.81445H110.887Z" fill="#BEBEBE"/>
<path d="M113.398 -7.81445L30.8424 185.841V189.305L114.874 -7.81445H113.398Z" fill="#BEBEBE"/>
<path d="M115.908 -7.81445L30.8424 191.73V195.193L117.385 -7.81445H115.908Z" fill="#BEBEBE"/>
<path d="M118.419 -7.81445L30.8424 197.618V201.082L119.895 -7.81445H118.419Z" fill="#BEBEBE"/>
<path d="M120.929 -7.81445L30.8424 203.507V206.971L122.406 -7.81445H120.929Z" fill="#BEBEBE"/>
<path d="M123.439 -7.81445L30.8424 209.395V212.859L124.916 -7.81445H123.439Z" fill="#BEBEBE"/>
<path d="M125.949 -7.81445L30.8424 215.284V218.748L127.426 -7.81445H125.949Z" fill="#BEBEBE"/>
<path d="M128.459 -7.81445L30.8424 221.173V224.636L129.936 -7.81445H128.459Z" fill="#BEBEBE"/>
<path d="M130.97 -7.81445L30.8424 227.061V230.525L132.446 -7.81445H130.97Z" fill="#BEBEBE"/>
<path d="M133.48 -7.81445L30.8424 232.95V236.413L134.957 -7.81445H133.48Z" fill="#BEBEBE"/>
<path d="M135.991 -7.81445L30.8424 238.838V242.302L137.467 -7.81445H135.991Z" fill="#BEBEBE"/>
<path d="M138.501 -7.81445L30.8424 244.726V248.191L139.978 -7.81445H138.501Z" fill="#BEBEBE"/>
<path d="M141.012 -7.81445L30.8424 250.615V254.08L142.488 -7.81445H141.012Z" fill="#BEBEBE"/>
<path d="M143.522 -7.81445L30.8424 256.504V259.968L144.998 -7.81445H143.522Z" fill="#BEBEBE"/>
<path d="M146.031 -7.81445L30.8424 262.393V265.857L147.509 -7.81445H146.031Z" fill="#BEBEBE"/>
<path d="M148.542 -7.81445L30.8424 268.282V271.745L150.019 -7.81445H148.542Z" fill="#BEBEBE"/>
<path d="M151.052 -7.81445L30.8424 274.17V277.633L152.529 -7.81445H151.052Z" fill="#BEBEBE"/>
<path d="M153.563 -7.81445L30.8424 280.059V283.522L155.039 -7.81445H153.563Z" fill="#BEBEBE"/>
<path d="M156.073 -7.81445L30.8424 285.947V289.411L157.55 -7.81445H156.073Z" fill="#BEBEBE"/>
<path d="M158.584 -7.81445L30.8424 291.835V295.299L160.06 -7.81445H158.584Z" fill="#BEBEBE"/>
<path d="M161.094 -7.81445L30.8424 297.724V301.188L162.57 -7.81445H161.094Z" fill="#BEBEBE"/>
<path d="M163.604 -7.81445L30.8424 303.613V307.077L165.081 -7.81445H163.604Z" fill="#BEBEBE"/>
<path d="M166.114 -7.81445L30.8424 309.501V312.966L167.591 -7.81445H166.114Z" fill="#BEBEBE"/>
<path d="M168.624 -7.81445L30.8424 315.39V318.854L170.102 -7.81445H168.624Z" fill="#BEBEBE"/>
<path d="M171.135 -7.81445L30.8424 321.279V324.742L172.611 -7.81445H171.135Z" fill="#BEBEBE"/>
<path d="M173.645 -7.81445L30.8424 327.168V330.631L175.122 -7.81445H173.645Z" fill="#BEBEBE"/>
<path d="M176.156 -7.81445L30.8424 333.056V336.52L177.632 -7.81445H176.156Z" fill="#BEBEBE"/>
<path d="M178.666 -7.81445L30.8424 338.944V342.408L180.142 -7.81445H178.666Z" fill="#BEBEBE"/>
<path d="M181.176 -7.81445L30.8424 344.833V348.297L182.653 -7.81445H181.176Z" fill="#BEBEBE"/>
<path d="M183.687 -7.81445L30.8424 350.722V354.186L185.163 -7.81445H183.687Z" fill="#BEBEBE"/>
<path d="M186.197 -7.81445L30.8424 356.61V360.074L187.674 -7.81445H186.197Z" fill="#BEBEBE"/>
<path d="M188.707 -7.81445L30.8424 362.499V365.962L190.184 -7.81445H188.707Z" fill="#BEBEBE"/>
<path d="M191.217 -7.81445L30.8424 368.388V371.851L192.694 -7.81445H191.217Z" fill="#BEBEBE"/>
<path d="M193.728 -7.81445L30.8424 374.276V377.74L195.204 -7.81445H193.728Z" fill="#BEBEBE"/>
<path d="M196.238 -7.81445L30.8424 380.164V383.628L197.714 -7.81445H196.238Z" fill="#BEBEBE"/>
<path d="M198.748 -7.81445L30.8424 386.053V389.517L200.225 -7.81445H198.748Z" fill="#BEBEBE"/>
<path d="M201.259 -7.81445L30.8424 391.942V395.406L202.735 -7.81445H201.259Z" fill="#BEBEBE"/>
<path d="M203.769 -7.81445L30.8424 397.83V401.295L205.246 -7.81445H203.769Z" fill="#BEBEBE"/>
<path d="M206.28 -7.81445L30.8424 403.719V407.183L207.756 -7.81445H206.28Z" fill="#BEBEBE"/>
<path d="M208.789 -7.81445L30.8424 409.608V413.071L210.267 -7.81445H208.789Z" fill="#BEBEBE"/>
<path d="M211.3 -7.81445L30.8424 415.496V418.96L212.777 -7.81445H211.3Z" fill="#BEBEBE"/>
<path d="M213.81 -7.81445L30.8424 421.384V424.849L215.287 -7.81445H213.81Z" fill="#BEBEBE"/>
<path d="M216.32 -7.81445L30.8424 427.273V430.737L217.797 -7.81445H216.32Z" fill="#BEBEBE"/>
<path d="M218.831 -7.81445L30.8424 433.162V436.626L220.307 -7.81445H218.831Z" fill="#BEBEBE"/>
<path d="M221.341 -7.81445L30.8424 439.051V442.515L222.818 -7.81445H221.341Z" fill="#BEBEBE"/>
<path d="M223.852 -7.81445L30.8424 444.939V448.403L225.328 -7.81445H223.852Z" fill="#BEBEBE"/>
<path d="M226.362 -7.81445L30.8424 450.828V454.291L227.839 -7.81445H226.362Z" fill="#BEBEBE"/>
<path d="M228.873 -7.81445L30.8424 456.717V460.18L230.349 -7.81445H228.873Z" fill="#BEBEBE"/>
<path d="M231.382 -7.81445L30.8424 462.605V466.068L232.859 -7.81445H231.382Z" fill="#BEBEBE"/>
<path d="M233.892 -7.81445L30.8424 468.493V471.957L235.37 -7.81445H233.892Z" fill="#BEBEBE"/>
<path d="M236.403 -7.81445L30.8424 474.382V477.846L237.879 -7.81445H236.403Z" fill="#BEBEBE"/>
<path d="M238.913 -7.81445L30.8424 480.27V483.735L240.39 -7.81445H238.913Z" fill="#BEBEBE"/>
<path d="M241.424 -7.81445L30.8424 486.159V489.623L242.9 -7.81445H241.424Z" fill="#BEBEBE"/>
<path d="M243.934 -7.81445L30.8424 492.048V495.512L245.411 -7.81445H243.934Z" fill="#BEBEBE"/>
<path d="M246.445 -7.81445L30.8424 497.936V501.4L247.921 -7.81445H246.445Z" fill="#BEBEBE"/>
<path d="M248.955 -7.81445L30.8424 503.825V507.289L250.432 -7.81445H248.955Z" fill="#BEBEBE"/>
<path d="M251.465 -7.81445L30.8424 509.714V513.177L252.942 -7.81445H251.465Z" fill="#BEBEBE"/>
<path d="M253.975 -7.81445L30.8424 515.602V519.066L255.452 -7.81445H253.975Z" fill="#BEBEBE"/>
<path d="M256.485 -7.81445L30.8424 521.491V524.955L257.962 -7.81445H256.485Z" fill="#BEBEBE"/>
<path d="M258.996 -7.81445L30.8424 527.379V530.843L260.472 -7.81445H258.996Z" fill="#BEBEBE"/>
<path d="M261.506 -7.81445L30.8424 533.268V536.732L262.983 -7.81445H261.506Z" fill="#BEBEBE"/>
<path d="M264.017 -7.81445L30.8424 539.157V542.621L265.493 -7.81445H264.017Z" fill="#BEBEBE"/>
<path d="M266.527 -7.81445L30.8424 545.045V548.509L268.004 -7.81445H266.527Z" fill="#BEBEBE"/>
<path d="M438.473 -7.81445H439.95L272.423 385.162H270.946L438.473 -7.81445Z" fill="#BEBEBE"/>
<path d="M435.962 -7.81445H437.44L269.912 385.162H268.436L435.962 -7.81445Z" fill="#BEBEBE"/>
<path d="M433.453 -7.81445H434.929L267.403 385.162H265.926L433.453 -7.81445Z" fill="#BEBEBE"/>
<path d="M430.942 -7.81445H432.419L264.892 385.162H263.415L430.942 -7.81445Z" fill="#BEBEBE"/>
<path d="M428.432 -7.81445H429.908L262.382 385.162H260.905L428.432 -7.81445Z" fill="#BEBEBE"/>
<path d="M425.921 -7.81445H427.398L259.872 385.162H258.395L425.921 -7.81445Z" fill="#BEBEBE"/>
<path d="M423.411 -7.81445H424.887L257.361 385.162H255.885L423.411 -7.81445Z" fill="#BEBEBE"/>
<path d="M420.901 -7.81445H422.377L254.851 385.162H253.374L420.901 -7.81445Z" fill="#BEBEBE"/>
<path d="M418.39 -7.81445H419.867L252.34 385.162H250.864L418.39 -7.81445Z" fill="#BEBEBE"/>
<path d="M415.88 -7.81445H417.357L249.83 385.162H248.354L415.88 -7.81445Z" fill="#BEBEBE"/>
<path d="M413.37 -7.81445H414.847L247.32 385.162H245.843L413.37 -7.81445Z" fill="#BEBEBE"/>
<path d="M410.86 -7.81445H412.336L244.81 385.162H243.333L410.86 -7.81445Z" fill="#BEBEBE"/>
<path d="M408.349 -7.81445H409.826L242.3 385.162H240.822L408.349 -7.81445Z" fill="#BEBEBE"/>
<path d="M405.839 -7.81445H407.315L239.789 385.162H238.313L405.839 -7.81445Z" fill="#BEBEBE"/>
<path d="M403.329 -7.81445H404.805L237.279 385.162H235.802L403.329 -7.81445Z" fill="#BEBEBE"/>
<path d="M400.818 -7.81445H402.295L234.768 385.162H233.292L400.818 -7.81445Z" fill="#BEBEBE"/>
<path d="M398.308 -7.81445H399.784L232.258 385.162H230.782L398.308 -7.81445Z" fill="#BEBEBE"/>
<path d="M395.797 -7.81445H397.275L229.748 385.162H228.271L395.797 -7.81445Z" fill="#BEBEBE"/>
<path d="M393.287 -7.81445H394.764L227.237 385.162H225.761L393.287 -7.81445Z" fill="#BEBEBE"/>
<path d="M390.777 -7.81445H392.254L224.727 385.162H223.25L390.777 -7.81445Z" fill="#BEBEBE"/>
<path d="M388.267 -7.81445H389.743L222.217 385.162H220.74L388.267 -7.81445Z" fill="#BEBEBE"/>
<path d="M385.757 -7.81445H387.233L219.707 385.162H218.23L385.757 -7.81445Z" fill="#BEBEBE"/>
<path d="M383.246 -7.81445H384.723L217.196 385.162H215.72L383.246 -7.81445Z" fill="#BEBEBE"/>
<path d="M380.736 -7.81445H382.212L214.686 385.162H213.209L380.736 -7.81445Z" fill="#BEBEBE"/>
<path d="M378.225 -7.81445H379.702L212.175 385.162H210.699L378.225 -7.81445Z" fill="#BEBEBE"/>
<path d="M375.715 -7.81445H377.192L209.665 385.162H208.189L375.715 -7.81445Z" fill="#BEBEBE"/>
<path d="M373.204 -7.81445H374.682L207.155 385.162H205.678L373.204 -7.81445Z" fill="#BEBEBE"/>
<path d="M370.694 -7.81445H372.171L204.644 385.162H203.168L370.694 -7.81445Z" fill="#BEBEBE"/>
<path d="M368.185 -7.81445H369.661L202.134 385.162H200.657L368.185 -7.81445Z" fill="#BEBEBE"/>
<path d="M365.674 -7.81445H367.151L199.624 385.162H198.147L365.674 -7.81445Z" fill="#BEBEBE"/>
<path d="M363.164 -7.81445H364.64L197.114 385.162H195.637L363.164 -7.81445Z" fill="#BEBEBE"/>
<path d="M360.653 -7.81445H362.13L194.603 385.162H193.127L360.653 -7.81445Z" fill="#BEBEBE"/>
<path d="M358.143 -7.81445H359.619L192.093 385.162H190.617L358.143 -7.81445Z" fill="#BEBEBE"/>
<path d="M355.632 -7.81445H357.109L189.583 385.162H188.106L355.632 -7.81445Z" fill="#BEBEBE"/>
<path d="M353.122 -7.81445H354.599L187.072 385.162H185.596L353.122 -7.81445Z" fill="#BEBEBE"/>
<path d="M350.611 -7.81445H352.089L184.562 385.162H183.085L350.611 -7.81445Z" fill="#BEBEBE"/>
<path d="M348.102 -7.81445H349.578L182.052 385.162H180.575L348.102 -7.81445Z" fill="#BEBEBE"/>
<path d="M345.592 -7.81445H347.068L179.542 385.162H178.064L345.592 -7.81445Z" fill="#BEBEBE"/>
<path d="M343.081 -7.81445H344.558L177.031 385.162H175.554L343.081 -7.81445Z" fill="#BEBEBE"/>
<path d="M340.571 -7.81445H342.047L174.521 385.162H173.045L340.571 -7.81445Z" fill="#BEBEBE"/>
<path d="M338.06 -7.81445H339.537L172.011 385.162H170.534L338.06 -7.81445Z" fill="#BEBEBE"/>
<path d="M335.55 -7.81445H337.026L169.5 385.162H168.024L335.55 -7.81445Z" fill="#BEBEBE"/>
<path d="M333.039 -7.81445H334.516L166.99 385.162H165.513L333.039 -7.81445Z" fill="#BEBEBE"/>
<path d="M330.529 -7.81445H332.006L164.479 385.162H163.003L330.529 -7.81445Z" fill="#BEBEBE"/>
<path d="M328.019 -7.81445H329.496L161.969 385.162H160.492L328.019 -7.81445Z" fill="#BEBEBE"/>
<path d="M325.509 -7.81445H326.986L159.459 385.162H157.982L325.509 -7.81445Z" fill="#BEBEBE"/>
<path d="M322.999 -7.81445H324.475L156.949 385.162H155.472L322.999 -7.81445Z" fill="#BEBEBE"/>
<path d="M320.488 -7.81445H321.965L154.439 385.162H152.962L320.488 -7.81445Z" fill="#BEBEBE"/>
<path d="M317.978 -7.81445H319.454L151.928 385.162H150.452L317.978 -7.81445Z" fill="#BEBEBE"/>
<path d="M315.467 -7.81445H316.944L149.418 385.162H147.941L315.467 -7.81445Z" fill="#BEBEBE"/>
<path d="M312.957 -7.81445H314.433L146.907 385.162H145.431L312.957 -7.81445Z" fill="#BEBEBE"/>
<path d="M310.447 -7.81445H311.924L144.397 385.162H142.92L310.447 -7.81445Z" fill="#BEBEBE"/>
<path d="M307.936 -7.81445H309.414L141.886 385.162H140.41L307.936 -7.81445Z" fill="#BEBEBE"/>
<path d="M305.426 -7.81445H306.903L139.376 385.162H137.9L305.426 -7.81445Z" fill="#BEBEBE"/>
<path d="M302.916 -7.81445H304.393L136.866 385.162H135.389L302.916 -7.81445Z" fill="#BEBEBE"/>
<path d="M300.406 -7.81445H301.882L134.356 385.162H132.879L300.406 -7.81445Z" fill="#BEBEBE"/>
<path d="M297.895 -7.81445H299.372L131.846 385.162H130.369L297.895 -7.81445Z" fill="#BEBEBE"/>
<path d="M295.385 -7.81445H296.861L129.335 385.162H127.859L295.385 -7.81445Z" fill="#BEBEBE"/>
<path d="M292.875 -7.81445H294.351L126.825 385.162H125.348L292.875 -7.81445Z" fill="#BEBEBE"/>
<path d="M291.841 -7.81445L124.314 385.162H122.838L290.364 -7.81445H291.841Z" fill="#BEBEBE"/>
<path fill-rule="evenodd" clip-rule="evenodd" d="M253.948 769.867H252.47L560.506 47.2915H561.982L253.948 769.867ZM256.458 769.867H254.981L563.016 47.2915H564.492L256.458 769.867ZM258.968 769.867H257.491L565.526 47.2915H567.003L258.968 769.867ZM261.478 769.867H260.002L568.036 47.2915H569.513L261.478 769.867ZM263.988 769.867H262.512L570.546 47.2915H572.023L263.988 769.867ZM266.499 769.867H265.022L573.057 47.2915H574.533L266.499 769.867ZM269.009 769.867H267.533L575.567 47.2915H577.044L269.009 769.867ZM271.52 769.867H270.043L578.078 47.2915H579.554L271.52 769.867ZM274.03 769.867H272.553L580.588 47.2915H582.064L274.03 769.867ZM276.541 769.867H275.063L583.098 47.2915H584.575L276.541 769.867ZM279.05 769.867H277.574L585.609 47.2915H587.085L279.05 769.867ZM281.56 769.867H280.084L588.118 47.2915H589.596L281.56 769.867ZM284.071 769.867H282.594L590.629 47.2915H592.106L284.071 769.867ZM286.581 769.867H285.105L593.139 47.2915H594.616L286.581 769.867ZM289.092 769.867H287.615L595.65 47.2915H597.126L289.092 769.867ZM291.602 769.867H290.126L598.16 47.2915H599.636L291.602 769.867ZM294.113 769.867H292.636L600.67 47.2915H602.147L294.113 769.867ZM296.623 769.867H295.146L603.181 47.2915H604.657L296.623 769.867ZM299.133 769.867H297.656L605.691 47.2915H607.168L299.133 769.867ZM301.643 769.867H300.166L608.202 47.2915H609.678L301.643 769.867ZM304.153 769.867H302.677L610.711 47.2915H612.189L304.153 769.867ZM306.664 769.867H305.187L613.222 47.2915H614.699L306.664 769.867ZM309.174 769.867H307.698L615.732 47.2915H617.208L309.174 769.867ZM311.685 769.867H310.208L618.242 47.2915H619.719L311.685 769.867ZM314.195 769.867H312.719L620.753 47.2915H622.229L314.195 769.867ZM316.705 769.867H315.228L623.263 47.2915H624.74L316.705 769.867ZM319.216 769.867H317.738L625.774 47.2915H627.25L319.216 769.867ZM321.726 769.867H320.249L628.284 47.2915H629.761L321.726 769.867ZM324.236 769.867H322.759L630.794 47.2915H632.271L324.236 769.867ZM326.746 769.867H325.27L633.304 47.2915H634.781L326.746 769.867ZM329.257 769.867H327.78L635.814 47.2915H637.291L329.257 769.867ZM331.767 769.867H330.291L638.325 47.2915H639.801L331.767 769.867ZM334.277 769.867H332.801L640.835 47.2915H642.312L334.277 769.867ZM336.788 769.867H335.311L643.346 47.2915H644.822L336.788 769.867ZM339.298 769.867H337.821L645.856 47.2915H647.333L339.298 769.867ZM341.809 769.867H340.331L648.367 47.2915H649.843L341.809 769.867ZM344.318 769.867H342.842L650.877 47.2915H652.353L344.318 769.867ZM346.829 769.867H345.352L653.387 47.2915H654.864L346.829 769.867ZM349.339 769.867H347.863L655.897 47.2915H657.374L349.339 769.867ZM351.849 769.867H350.373L658.407 47.2915H659.884L351.849 769.867ZM354.36 769.867H352.883L660.918 47.2915H662.394L354.36 769.867ZM356.87 769.867H355.394L663.428 47.2915H664.905L356.87 769.867ZM359.381 769.867H357.904L665.939 47.2915H667.415L359.381 769.867ZM361.891 769.867H360.414L668.449 47.2915H669.925L361.891 769.867ZM364.401 769.867H362.924L670.959 47.2915H672.436L364.401 769.867ZM366.911 769.867H365.435L673.47 47.2915H674.946L366.911 769.867ZM369.421 769.867H367.945L675.979 47.2915H677.457L369.421 769.867ZM371.932 769.867H370.455L678.49 47.2915H679.966L371.932 769.867ZM374.442 769.867H372.966L681 47.2915H682.477L374.442 769.867ZM376.953 769.867H375.476L683.511 47.2915H684.987L376.953 769.867ZM379.463 769.867H377.987L686.021 47.2915H687.497L379.463 769.867ZM381.974 769.867H380.496L688.531 47.2915H690.008L381.974 769.867ZM384.484 769.867H383.007L691.042 47.2915H692.518L384.484 769.867ZM386.994 769.867H385.517L693.552 47.2915H695.029L386.994 769.867ZM389.504 769.867H388.027L696.062 47.2915H697.539L389.504 769.867ZM392.014 769.867H390.538L698.572 47.2915H700.049L392.014 769.867ZM394.525 769.867H393.048L701.083 47.2915H702.559L394.525 769.867ZM397.035 769.867H395.559L703.593 47.2915H705.069L397.035 769.867ZM399.546 769.867H398.069L706.103 47.2915H707.58L399.546 769.867ZM402.056 769.867H400.579L708.614 47.2915H710.09L402.056 769.867ZM404.566 769.867H403.089L711.124 47.2915H712.601L404.566 769.867ZM407.077 769.867H405.599L713.635 47.2915H715.111L407.077 769.867ZM409.586 769.867H408.11L716.145 47.2915H717.622L409.586 769.867ZM412.097 769.867H410.62L718.655 47.2915H720.132L412.097 769.867ZM414.607 769.867H413.131L721.165 47.2915H722.642L414.607 769.867ZM417.118 769.867H415.641L723.675 47.2915H725.152L417.118 769.867ZM419.628 769.867H418.152L726.186 47.2915H727.663L419.628 769.867ZM422.138 769.867H420.662L728.696 47.2915H730.171L422.138 769.867ZM424.649 769.867H423.172L731.204 47.2915H732.68L424.649 769.867ZM427.159 769.867H425.682L733.721 47.2915H735.196L427.159 769.867ZM429.669 769.867H428.192L736.229 47.2915H737.705L429.669 769.867ZM432.179 769.867H430.703L738.737 47.2915H740.213L432.179 769.867ZM434.69 769.867H433.213L741.246 47.2915H742.721L434.69 769.867ZM437.2 769.867H435.724L743.754 47.2915H745.238L437.2 769.867ZM439.71 769.867H438.234L746.271 47.2915H747.746L439.71 769.867ZM442.221 769.867H440.744L748.779 47.2915H750.254L442.221 769.867ZM444.731 769.867H443.255L751.287 47.2915H752.763L444.731 769.867ZM447.242 769.867H445.764L753.795 47.2915H755.279L447.242 769.867ZM449.752 769.867H448.275L756.312 47.2915H757.788L449.752 769.867ZM452.262 769.867H450.785L758.82 47.2915H760.296L452.262 769.867ZM454.772 769.867H453.296L761.329 47.2915H762.804L454.772 769.867ZM457.283 769.867H455.806L763.837 47.2915H765.321L457.283 769.867ZM459.793 769.867H458.317L766.354 47.2915H767.829L459.793 769.867ZM462.303 769.867H460.827L768.862 47.2915H770.337L462.303 769.867ZM464.814 769.867H463.337L771.37 47.2915H772.846L464.814 769.867ZM467.324 769.867H465.847L773.878 47.2915H775.362L467.324 769.867ZM469.835 769.867H468.357L776.395 47.2915H777.871L469.835 769.867ZM472.344 769.867H470.868L778.904 47.2915H780.379L472.344 769.867ZM474.855 769.867H473.378L781.412 47.2915H782.887L474.855 769.867ZM477.365 769.867H475.889L783.92 47.2915H785.404L477.365 769.867ZM479.875 769.867H478.399L786.437 47.2915H787.912L479.875 769.867ZM482.386 769.867H480.909L788.945 47.2915H790.42L482.386 769.867ZM484.896 769.867H483.42L791.453 47.2915H792.929L484.896 769.867ZM487.407 769.867H485.93L793.961 47.2915H795.437L487.407 769.867ZM489.917 769.867H488.44L796.478 47.2915H797.954L489.917 769.867ZM492.427 769.867H490.95L798.986 47.2915H800.462L492.427 769.867Z" fill="#BEBEBE"/>
<path d="M2077.33 781.039H489.091L822.793 0L2077.33 0.000109727V781.039Z" fill="#FFD194"/>
<path d="M-309.371 0H842.754L509.05 781.039H-309.371V0Z" fill="#D9D9D9"/>
<path d="M905.72 -7.81445H844.186L509.131 778.139H570.67L905.72 -7.81445Z" fill="#E07F09" fill-opacity="0.9"/>
<path d="M899.601 -7.81445H905.72L570.67 778.139H564.548L899.601 -7.81445Z" fill="#E07F09" fill-opacity="0.9"/>
<path d="M845.661 -7.81445H844.186L509.131 778.139H510.607L845.661 -7.81445Z" fill="#C8500D" fill-opacity="0.6"/>
<path d="M850.678 -7.81445H849.203L514.152 778.139H515.628L850.678 -7.81445Z" fill="#C8500D" fill-opacity="0.6"/>
<path d="M855.703 -7.81445H854.228L519.171 778.139H520.649L855.703 -7.81445Z" fill="#C8500D" fill-opacity="0.6"/>
<path d="M860.719 -7.81445H859.244L524.192 778.139H525.669L860.719 -7.81445Z" fill="#C8500D" fill-opacity="0.6"/>
<path d="M865.745 -7.81445H864.269L529.213 778.139H530.69L865.745 -7.81445Z" fill="#C8500D" fill-opacity="0.6"/>
<path d="M870.761 -7.81445H869.286L534.234 778.139H535.71L870.761 -7.81445Z" fill="#C8500D" fill-opacity="0.6"/>
<path d="M875.786 -7.81445H874.311L539.254 778.139H540.731L875.786 -7.81445Z" fill="#C8500D" fill-opacity="0.6"/>
<path d="M1477.66 -7.81445H938.656L603.603 778.139H1142.61L1477.66 -7.81445Z" fill="#E07F09" fill-opacity="0.9"/>
<path d="M926.549 -7.81445H905.242L570.189 778.139H591.5L926.549 -7.81445Z" fill="#E07F09" fill-opacity="0.9"/>
<path d="M1579.17 -7.81445H1489.38L1154.33 778.139H1244.12L1579.17 -7.81445Z" fill="#E07F09" fill-opacity="0.9"/>
<path d="M1294.48 778.139H1293.01L1425.54 467.247V470.71L1294.48 778.139Z" fill="#C8500D" fill-opacity="0.6"/>
<path d="M1299.51 778.139H1298.03L1425.54 479.024V482.488L1299.51 778.139Z" fill="#C8500D" fill-opacity="0.6"/>
<path d="M1304.65 778.139H1303.17L1435.71 467.247V470.71L1304.65 778.139Z" fill="#C8500D" fill-opacity="0.6"/>
<path d="M1309.67 778.139H1308.19L1435.71 479.024V482.488L1309.67 778.139Z" fill="#C8500D" fill-opacity="0.6"/>
<path d="M523.527 -7.81445H525.003L357.477 385.162H355.999L523.527 -7.81445Z" fill="#BEBEBE"/>
<path d="M518.506 -7.81445H519.982L352.456 385.162H350.979L518.506 -7.81445Z" fill="#BEBEBE"/>
<path d="M513.485 -7.81445H514.961L347.435 385.162H345.959L513.485 -7.81445Z" fill="#BEBEBE"/>
<path d="M508.464 -7.81445H509.941L342.414 385.162H340.938L508.464 -7.81445Z" fill="#BEBEBE"/>
<path d="M503.444 -7.81445H504.921L337.394 385.162H335.917L503.444 -7.81445Z" fill="#BEBEBE"/>
<path d="M498.423 -7.81445H499.9L332.374 385.162H330.896L498.423 -7.81445Z" fill="#BEBEBE"/>
<path d="M493.402 -7.81445H494.879L327.353 385.162H325.876L493.402 -7.81445Z" fill="#BEBEBE"/>
<path d="M488.382 -7.81445H489.858L322.332 385.162H320.855L488.382 -7.81445Z" fill="#BEBEBE"/>
<path d="M483.361 -7.81445H484.838L317.311 385.162H315.835L483.361 -7.81445Z" fill="#BEBEBE"/>
<path d="M478.341 -7.81445H479.817L312.291 385.162H310.814L478.341 -7.81445Z" fill="#BEBEBE"/>
<path d="M473.32 -7.81445H474.796L307.27 385.162H305.794L473.32 -7.81445Z" fill="#BEBEBE"/>
<path d="M468.299 -7.81445H469.776L302.249 385.162H300.773L468.299 -7.81445Z" fill="#BEBEBE"/>
<path d="M463.278 -7.81445H464.756L297.229 385.162H295.752L463.278 -7.81445Z" fill="#BEBEBE"/>
<path d="M458.258 -7.81445H459.735L292.208 385.162H290.731L458.258 -7.81445Z" fill="#BEBEBE"/>
<path d="M453.237 -7.81445H454.714L287.188 385.162H285.711L453.237 -7.81445Z" fill="#BEBEBE"/>
<path d="M448.217 -7.81445H449.693L282.167 385.162H280.69L448.217 -7.81445Z" fill="#BEBEBE"/>
<path d="M443.196 -7.81445H444.673L277.146 385.162H275.67L443.196 -7.81445Z" fill="#BEBEBE"/>
<path d="M438.176 -7.81445H439.652L272.126 385.162H270.649L438.176 -7.81445Z" fill="#BEBEBE"/>
<path d="M433.155 -7.81445H434.632L267.105 385.162H265.629L433.155 -7.81445Z" fill="#BEBEBE"/>
<path d="M428.134 -7.81445H429.611L262.084 385.162H260.608L428.134 -7.81445Z" fill="#BEBEBE"/>
<path d="M423.113 -7.81445H424.59L257.064 385.162H255.587L423.113 -7.81445Z" fill="#BEBEBE"/>
<path d="M418.093 -7.81445H419.57L252.043 385.162H250.566L418.093 -7.81445Z" fill="#BEBEBE"/>
<path d="M413.073 -7.81445H414.549L247.023 385.162H245.546L413.073 -7.81445Z" fill="#BEBEBE"/>
<path d="M408.052 -7.81445H409.528L242.002 385.162H240.526L408.052 -7.81445Z" fill="#BEBEBE"/>
<path d="M403.031 -7.81445H404.508L236.981 385.162H235.505L403.031 -7.81445Z" fill="#BEBEBE"/>
<path d="M398.011 -7.81445H399.487L231.96 385.162H230.484L398.011 -7.81445Z" fill="#BEBEBE"/>
<path d="M392.99 -7.81445H394.467L226.94 385.162H225.463L392.99 -7.81445Z" fill="#BEBEBE"/>
<path d="M387.969 -7.81445H389.446L221.92 385.162H220.443L387.969 -7.81445Z" fill="#BEBEBE"/>
<path d="M382.948 -7.81445H384.425L216.899 385.162H215.422L382.948 -7.81445Z" fill="#BEBEBE"/>
<path d="M377.928 -7.81445H379.405L211.878 385.162H210.401L377.928 -7.81445Z" fill="#BEBEBE"/>
<path d="M565.041 64.6572H563.565L228.511 850.611H229.989L565.041 64.6572Z" fill="#BEBEBE"/>
<path d="M570.062 64.6572H568.585L233.532 850.611H235.009L570.062 64.6572Z" fill="#BEBEBE"/>
<path d="M575.083 64.6572H573.606L238.553 850.611H240.029L575.083 64.6572Z" fill="#BEBEBE"/>
<path d="M580.104 64.6572H578.626L243.574 850.611H245.05L580.104 64.6572Z" fill="#BEBEBE"/>
<path d="M585.124 64.6572H583.647L248.594 850.611H250.071L585.124 64.6572Z" fill="#BEBEBE"/>
<path d="M590.144 64.6572H588.668L253.615 850.611H255.091L590.144 64.6572Z" fill="#BEBEBE"/>
<path d="M595.165 64.6572H593.689L258.635 850.611H260.112L595.165 64.6572Z" fill="#BEBEBE"/>
<path d="M600.186 64.6572H598.709L263.656 850.611H265.133L600.186 64.6572Z" fill="#BEBEBE"/>
<path d="M605.206 64.6572H603.729L268.677 850.611H270.154L605.206 64.6572Z" fill="#BEBEBE"/>
<path d="M610.227 64.6572H608.75L273.697 850.611H275.174L610.227 64.6572Z" fill="#BEBEBE"/>
<path d="M615.248 64.6572H613.771L278.718 850.611H280.194L615.248 64.6572Z" fill="#BEBEBE"/>
<path d="M620.269 64.6572H618.791L283.739 850.611H285.215L620.269 64.6572Z" fill="#BEBEBE"/>
<path d="M625.289 64.6572H623.812L288.76 850.611H290.236L625.289 64.6572Z" fill="#BEBEBE"/>
<path d="M509.815 64.6572H508.338L173.285 850.611H174.761L509.815 64.6572Z" fill="#BEBEBE"/>
<path d="M514.835 64.6572H513.358L178.306 850.611H179.782L514.835 64.6572Z" fill="#BEBEBE"/>
<path d="M519.855 64.6572H518.379L183.326 850.611H184.803L519.855 64.6572Z" fill="#BEBEBE"/>
<path d="M524.876 64.6572H523.4L188.346 850.611H189.823L524.876 64.6572Z" fill="#BEBEBE"/>
<path d="M529.897 64.6572H528.421L193.367 850.611H194.844L529.897 64.6572Z" fill="#BEBEBE"/>
<path d="M534.918 64.6572H533.441L198.388 850.611H199.865L534.918 64.6572Z" fill="#BEBEBE"/>
<path d="M539.938 64.6572H538.461L203.409 850.611H204.885L539.938 64.6572Z" fill="#BEBEBE"/>
<path d="M544.959 64.6572H543.482L208.429 850.611H209.906L544.959 64.6572Z" fill="#BEBEBE"/>
<path d="M549.979 64.6572H548.503L213.45 850.611H214.926L549.979 64.6572Z" fill="#BEBEBE"/>
<path d="M555 64.6572H553.523L218.471 850.611H219.947L555 64.6572Z" fill="#BEBEBE"/>
<path d="M560.021 64.6572H558.544L223.491 850.611H224.968L560.021 64.6572Z" fill="#BEBEBE"/>
<path d="M565.041 64.6572H563.565L228.511 850.611H229.989L565.041 64.6572Z" fill="#BEBEBE"/>
<path d="M570.062 64.6572H568.585L233.532 850.611H235.009L570.062 64.6572Z" fill="#BEBEBE"/>
<path d="M685.537 64.6572H684.059L349.007 850.611H350.483L685.537 64.6572Z" fill="#BEBEBE"/>
<path d="M690.557 64.6572H689.08L354.028 850.611H355.504L690.557 64.6572Z" fill="#BEBEBE"/>
<path d="M695.577 64.6572H694.101L359.048 850.611H360.525L695.577 64.6572Z" fill="#BEBEBE"/>
<path d="M700.598 64.6572H699.122L364.069 850.611H365.545L700.598 64.6572Z" fill="#BEBEBE"/>
<path d="M705.619 64.6572H704.142L369.089 850.611H370.566L705.619 64.6572Z" fill="#BEBEBE"/>
<path d="M710.639 64.6572H709.163L374.11 850.611H375.587L710.639 64.6572Z" fill="#BEBEBE"/>
<path d="M715.66 64.6572H714.183L379.13 850.611H380.607L715.66 64.6572Z" fill="#BEBEBE"/>
<path d="M720.681 64.6572H719.204L384.151 850.611H385.627L720.681 64.6572Z" fill="#BEBEBE"/>
<path d="M725.702 64.6572H724.225L389.172 850.611H390.648L725.702 64.6572Z" fill="#BEBEBE"/>
<path d="M730.718 64.6572H729.243L394.193 850.611H395.669L730.718 64.6572Z" fill="#BEBEBE"/>
<path d="M735.743 64.6572H734.268L399.213 850.611H400.69L735.743 64.6572Z" fill="#BEBEBE"/>
<path d="M740.76 64.6572H739.284L404.233 850.611H405.71L740.76 64.6572Z" fill="#BEBEBE"/>
<path d="M745.785 64.6572H744.309L409.254 850.611H410.731L745.785 64.6572Z" fill="#BEBEBE"/>
<path d="M630.309 64.6572H628.833L293.779 850.611H295.257L630.309 64.6572Z" fill="#BEBEBE"/>
<path d="M635.33 64.6572H633.854L298.8 850.611H300.277L635.33 64.6572Z" fill="#BEBEBE"/>
<path d="M640.351 64.6572H638.874L303.821 850.611H305.298L640.351 64.6572Z" fill="#BEBEBE"/>
<path d="M645.371 64.6572H643.894L308.842 850.611H310.319L645.371 64.6572Z" fill="#BEBEBE"/>
<path d="M650.392 64.6572H648.915L313.862 850.611H315.339L650.392 64.6572Z" fill="#BEBEBE"/>
<path d="M655.413 64.6572H653.936L318.883 850.611H320.359L655.413 64.6572Z" fill="#BEBEBE"/>
<path d="M660.433 64.6572H658.957L323.904 850.611H325.38L660.433 64.6572Z" fill="#BEBEBE"/>
<path d="M665.454 64.6572H663.977L328.925 850.611H330.401L665.454 64.6572Z" fill="#BEBEBE"/>
<path d="M670.474 64.6572H668.998L333.945 850.611H335.422L670.474 64.6572Z" fill="#BEBEBE"/>
<path d="M675.495 64.6572H674.019L338.965 850.611H340.442L675.495 64.6572Z" fill="#BEBEBE"/>
<path d="M680.516 64.6572H679.039L343.986 850.611H345.463L680.516 64.6572Z" fill="#BEBEBE"/>
<path d="M685.537 64.6572H684.059L349.007 850.611H350.483L685.537 64.6572Z" fill="#BEBEBE"/>
<path d="M690.557 64.6572H689.08L354.028 850.611H355.504L690.557 64.6572Z" fill="#BEBEBE"/>
<path d="M260.21 -237.047H258.733L-76.3196 548.907H-74.843L260.21 -237.047Z" fill="#BEBEBE"/>
<path d="M265.23 -237.047H263.754L-71.2991 548.907H-69.8224L265.23 -237.047Z" fill="#BEBEBE"/>
<path d="M270.251 -237.047H268.775L-66.2784 548.907H-64.8018L270.251 -237.047Z" fill="#BEBEBE"/>
<path d="M275.272 -237.047H273.795L-61.2578 548.907H-59.7811L275.272 -237.047Z" fill="#BEBEBE"/>
<path d="M280.292 -237.047H278.816L-56.2372 548.907H-54.7605L280.292 -237.047Z" fill="#BEBEBE"/>
<path d="M285.313 -237.047H283.837L-51.2167 548.907H-49.7395L285.313 -237.047Z" fill="#BEBEBE"/>
<path d="M290.334 -237.047H288.857L-46.1959 548.907H-44.7196L290.334 -237.047Z" fill="#BEBEBE"/>
<path d="M295.355 -237.047H293.878L-41.1752 548.907H-39.6989L295.355 -237.047Z" fill="#BEBEBE"/>
<path d="M300.375 -237.047H298.898L-36.1545 548.907H-34.6782L300.375 -237.047Z" fill="#BEBEBE"/>
<path d="M305.395 -237.047H303.919L-31.1337 548.907H-29.6574L305.395 -237.047Z" fill="#BEBEBE"/>
<path d="M310.416 -237.047H308.94L-26.1138 548.907H-24.6367L310.416 -237.047Z" fill="#BEBEBE"/>
<path d="M315.437 -237.047H313.96L-21.0931 548.907H-19.6159L315.437 -237.047Z" fill="#BEBEBE"/>
<path d="M320.458 -237.047H318.981L-16.0723 548.907H-14.5952L320.458 -237.047Z" fill="#BEBEBE"/>
<path d="M204.983 -237.047H203.507L-131.547 548.907H-130.07L204.983 -237.047Z" fill="#BEBEBE"/>
<path d="M210.004 -237.047H208.527L-126.526 548.907H-125.049L210.004 -237.047Z" fill="#BEBEBE"/>
<path d="M215.024 -237.047H213.547L-121.505 548.907H-120.029L215.024 -237.047Z" fill="#BEBEBE"/>
<path d="M220.045 -237.047H218.568L-116.485 548.907H-115.008L220.045 -237.047Z" fill="#BEBEBE"/>
<path d="M225.066 -237.047H223.589L-111.464 548.907H-109.987L225.066 -237.047Z" fill="#BEBEBE"/>
<path d="M230.086 -237.047H228.609L-106.443 548.907H-104.967L230.086 -237.047Z" fill="#BEBEBE"/>
<path d="M235.107 -237.047H233.63L-101.423 548.907H-99.9462L235.107 -237.047Z" fill="#BEBEBE"/>
<path d="M240.127 -237.047H238.651L-96.4022 548.907H-94.9255L240.127 -237.047Z" fill="#BEBEBE"/>
<path d="M245.148 -237.047H243.672L-91.3815 548.907H-89.9049L245.148 -237.047Z" fill="#BEBEBE"/>
<path d="M250.169 -237.047H248.692L-86.3608 548.907H-84.8842L250.169 -237.047Z" fill="#BEBEBE"/>
<path d="M255.19 -237.047H253.712L-81.3403 548.907H-79.8636L255.19 -237.047Z" fill="#BEBEBE"/>
<path d="M260.21 -237.047H258.733L-76.3196 548.907H-74.843L260.21 -237.047Z" fill="#BEBEBE"/>
<path d="M265.23 -237.047H263.754L-71.2991 548.907H-69.8224L265.23 -237.047Z" fill="#BEBEBE"/>
<path d="M380.705 -237.047H379.228L44.1758 548.907H45.6521L380.705 -237.047Z" fill="#BEBEBE"/>
<path d="M385.726 -237.047H384.249L49.1957 548.907H50.6728L385.726 -237.047Z" fill="#BEBEBE"/>
<path d="M390.746 -237.047H389.27L54.2164 548.907H55.6936L390.746 -237.047Z" fill="#BEBEBE"/>
<path d="M395.767 -237.047H394.29L59.2372 548.907H60.7143L395.767 -237.047Z" fill="#BEBEBE"/>
<path d="M400.788 -237.047H399.311L64.2579 548.907H65.7342L400.788 -237.047Z" fill="#BEBEBE"/>
<path d="M405.809 -237.047H404.331L69.2786 548.907H70.7549L405.809 -237.047Z" fill="#BEBEBE"/>
<path d="M410.828 -237.047H409.352L74.2994 548.907H75.7757L410.828 -237.047Z" fill="#BEBEBE"/>
<path d="M415.849 -237.047H414.373L79.3201 548.907H80.7964L415.849 -237.047Z" fill="#BEBEBE"/>
<path d="M420.87 -237.047H419.394L84.34 548.907H85.8172L420.87 -237.047Z" fill="#BEBEBE"/>
<path d="M425.891 -237.047H424.414L89.3608 548.907H90.8379L425.891 -237.047Z" fill="#BEBEBE"/>
<path d="M430.911 -237.047H429.434L94.3815 548.907H95.8587L430.911 -237.047Z" fill="#BEBEBE"/>
<path d="M435.932 -237.047H434.455L99.4023 548.907H100.879L435.932 -237.047Z" fill="#BEBEBE"/>
<path d="M440.953 -237.047H439.476L104.423 548.907H105.899L440.953 -237.047Z" fill="#BEBEBE"/>
<path d="M325.478 -237.047H324.001L-11.0516 548.907H-9.5753L325.478 -237.047Z" fill="#BEBEBE"/>
<path d="M330.499 -237.047H329.022L-6.03082 548.907H-4.55455L330.499 -237.047Z" fill="#BEBEBE"/>
<path d="M335.52 -237.047H334.043L-1.01007 548.907H0.466215L335.52 -237.047Z" fill="#BEBEBE"/>
<path d="M340.54 -237.047H339.063L4.01062 548.907H5.48691L340.54 -237.047Z" fill="#BEBEBE"/>
<path d="M345.56 -237.047H344.084L9.03052 548.907H10.5077L345.56 -237.047Z" fill="#BEBEBE"/>
<path d="M350.581 -237.047H349.105L14.0513 548.907H15.5284L350.581 -237.047Z" fill="#BEBEBE"/>
<path d="M355.602 -237.047H354.126L19.072 548.907H20.5492L355.602 -237.047Z" fill="#BEBEBE"/>
<path d="M360.623 -237.047H359.145L24.0928 548.907H25.5699L360.623 -237.047Z" fill="#BEBEBE"/>
<path d="M365.643 -237.047H364.166L29.1135 548.907H30.5898L365.643 -237.047Z" fill="#BEBEBE"/>
<path d="M370.664 -237.047H369.187L34.1343 548.907H35.6106L370.664 -237.047Z" fill="#BEBEBE"/>
<path d="M375.684 -237.047H374.208L39.155 548.907H40.6313L375.684 -237.047Z" fill="#BEBEBE"/>
<path d="M380.705 -237.047H379.228L44.1758 548.907H45.6521L380.705 -237.047Z" fill="#BEBEBE"/>
<path d="M385.726 -237.047H384.249L49.1957 548.907H50.6728L385.726 -237.047Z" fill="#BEBEBE"/>
<g opacity="0.6">
<path d="M1421.86 -487.118H1420.38L1085.33 298.836H1086.81L1421.86 -487.118Z" fill="#C8500D"/>
<path d="M1426.88 -487.118H1425.4L1090.35 298.836H1091.83L1426.88 -487.118Z" fill="#C8500D"/>
<path d="M1431.9 -487.118H1430.42L1095.37 298.836H1096.85L1431.9 -487.118Z" fill="#C8500D"/>
<path d="M1436.92 -487.118H1435.45L1100.39 298.836H1101.87L1436.92 -487.118Z" fill="#C8500D"/>
<path d="M1441.95 -487.118H1440.46L1105.41 298.836H1106.89L1441.95 -487.118Z" fill="#C8500D"/>
<path d="M1446.96 -487.118H1445.49L1110.43 298.836H1111.91L1446.96 -487.118Z" fill="#C8500D"/>
<path d="M1451.98 -487.118H1450.5L1115.45 298.836H1116.93L1451.98 -487.118Z" fill="#C8500D"/>
</g>
<g opacity="0.6">
<path d="M1456.58 -487.118H1455.09L1120.05 298.836H1121.52L1456.58 -487.118Z" fill="#C8500D"/>
<path d="M1461.59 -487.118H1460.12L1125.06 298.836H1126.55L1461.59 -487.118Z" fill="#C8500D"/>
<path d="M1466.62 -487.118H1465.14L1130.09 298.836H1131.56L1466.62 -487.118Z" fill="#C8500D"/>
<path d="M1471.64 -487.118H1470.16L1135.1 298.836H1136.59L1471.64 -487.118Z" fill="#C8500D"/>
<path d="M1476.66 -487.118H1475.18L1140.13 298.836H1141.6L1476.66 -487.118Z" fill="#C8500D"/>
<path d="M1481.68 -487.118H1480.2L1145.14 298.836H1146.63L1481.68 -487.118Z" fill="#C8500D"/>
<path d="M1486.69 -487.118H1485.22L1150.17 298.836H1151.65L1486.69 -487.118Z" fill="#C8500D"/>
</g>
<path opacity="0.6" fill-rule="evenodd" clip-rule="evenodd" d="M702.496 1176.7H701.02L1009.05 454.123H1010.53L702.496 1176.7ZM707.517 1176.7H706.04L1014.08 454.123H1015.55L707.517 1176.7ZM712.537 1176.7H711.061L1019.09 454.123H1020.58L712.537 1176.7ZM717.558 1176.7H716.082L1024.12 454.123H1025.59L717.558 1176.7ZM722.579 1176.7H721.102L1029.13 454.123H1030.62L722.579 1176.7ZM727.602 1176.7H726.123L1034.16 454.123H1035.63L727.602 1176.7ZM732.619 1176.7H731.143L1039.18 454.123H1040.65L732.619 1176.7ZM737.644 1176.7H736.168L1044.2 454.123H1045.68L737.644 1176.7ZM742.66 1176.7H741.185L1049.22 454.123H1050.69L742.66 1176.7ZM747.685 1176.7H746.201L1054.24 454.123H1055.72L747.685 1176.7ZM752.702 1176.7H751.226L1059.26 454.123H1060.73L752.702 1176.7ZM757.727 1176.7H756.243L1064.28 454.123H1065.76L757.727 1176.7ZM762.743 1176.7H761.268L1069.3 454.123H1070.77L762.743 1176.7ZM767.768 1176.7H766.284L1074.32 454.123H1075.8L767.768 1176.7ZM772.785 1176.7H771.309L1079.34 454.123H1080.82L772.785 1176.7ZM777.81 1176.7H776.326L1084.37 454.123H1085.84L777.81 1176.7ZM782.826 1176.7H781.351L1089.38 454.123H1090.86L782.826 1176.7ZM787.851 1176.7H786.367L1094.41 454.123H1095.88L787.851 1176.7ZM792.868 1176.7H791.392L1099.42 454.123H1100.9L792.868 1176.7ZM797.884 1176.7H796.409L1104.45 454.123H1105.92L797.884 1176.7ZM802.909 1176.7H801.434L1109.47 454.123H1110.94L802.909 1176.7ZM807.926 1176.7H806.45L1114.49 454.123H1115.97L807.926 1176.7ZM812.951 1176.7H811.475L1119.51 454.123H1120.98L812.951 1176.7ZM817.967 1176.7H816.492L1124.53 454.123H1126.01L817.967 1176.7ZM822.992 1176.7H821.517L1129.55 454.123H1131.02L822.992 1176.7ZM828.009 1176.7H826.533L1134.57 454.123H1136.05L828.009 1176.7ZM833.034 1176.7H831.558L1139.59 454.123H1141.07L833.034 1176.7ZM838.05 1176.7H836.575L1144.62 454.123H1146.09L838.05 1176.7ZM843.075 1176.7H841.6L1149.63 454.123H1151.11L843.075 1176.7ZM848.092 1176.7H846.616L1154.66 454.123H1156.13L848.092 1176.7ZM853.117 1176.7H851.641L1159.67 454.123H1161.15L853.117 1176.7ZM858.133 1176.7H856.658L1164.69 454.123H1166.17L858.133 1176.7ZM863.158 1176.7H861.683L1169.71 454.123H1171.19L863.158 1176.7ZM868.175 1176.7H866.699L1174.73 454.123H1176.21L868.175 1176.7ZM873.2 1176.7H871.724L1179.76 454.123H1181.23L873.2 1176.7ZM878.216 1176.7H876.741L1184.77 454.123H1186.26L878.216 1176.7ZM883.241 1176.7H881.766L1189.8 454.123H1191.27L883.241 1176.7ZM888.258 1176.7H886.782L1194.81 454.123H1196.3L888.258 1176.7ZM893.283 1176.7H891.807L1199.84 454.123H1201.31L893.283 1176.7ZM898.299 1176.7H896.824L1204.86 454.123H1206.34L898.299 1176.7ZM903.324 1176.7H901.849L1209.88 454.123H1211.36L903.324 1176.7ZM908.341 1176.7H906.865L1214.9 454.123H1216.37L908.341 1176.7ZM913.366 1176.7H911.89L1219.92 454.123H1221.4L913.366 1176.7Z" fill="#C8500D"/>
<path d="M2082.54 -7.81445H1588.75L1253.7 778.139H1747.5L2082.54 -7.81445Z" fill="#E07F09" fill-opacity="0.9"/>
</svg>
