<svg width="1600" height="1269" fill="none" xmlns="http://www.w3.org/2000/svg"><path d="M1600 .001H0V1269h1600V.001Z" fill="#D9D9D9"/><g opacity=".5"><path d="M1598.52 1273.96H918.396L1202.03.001 1598.52 0V1273.96Z" fill="#F2F2F2"/><path d="M1023 559.439h1.38L866.677 1269h-1.387L1023 559.439ZM1018.27 559.439h1.38L861.956 1269h-1.394l157.708-709.561ZM1013.54 559.439h1.39L857.228 1269h-1.394l157.706-709.561ZM1008.82 559.439h1.38L852.499 1269h-1.387l157.708-709.561ZM1004.09 559.439h1.39L847.771 1269h-1.387l157.706-709.561ZM999.361 559.439h1.399L843.049 1269h-1.394l157.706-709.561ZM994.633 559.439h1.394L838.321 1269h-1.386l157.698-709.561ZM989.912 559.439h1.387L833.593 1269h-1.387l157.706-709.561ZM985.183 559.439h1.387L828.872 1269h-1.394l157.705-709.561ZM980.455 559.439h1.394L824.143 1269h-1.394l157.706-709.561ZM975.734 559.439h1.387L819.415 1269h-1.387l157.706-709.561ZM971.006 559.439h1.386L814.687 1269H813.3l157.706-709.561ZM966.277 559.439h1.394L809.965 1269h-1.394l157.706-709.561ZM961.549 559.439h1.394L805.237 1269h-1.386l157.698-709.561ZM956.828 559.439h1.387L800.509 1269h-1.387l157.706-709.561ZM952.099 559.439h1.395L795.788 1269h-1.394l157.705-709.561ZM947.37 559.439h1.395L791.059 1269h-1.387L947.37 559.439ZM942.649 559.439h1.387L786.33 1269h-1.387l157.706-709.561ZM937.921 559.439h1.386L781.609 1269h-1.394l157.706-709.561ZM933.193 559.439h1.394L776.882 1269h-1.395l157.706-709.561ZM928.471 559.439h1.387L772.152 1269h-1.386l157.705-709.561ZM923.743 559.439h1.387L767.424 1269h-1.387l157.706-709.561ZM919.014 559.439h1.395L762.703 1269h-1.394l157.705-709.561ZM914.286 559.439h1.394L757.975 1269h-1.387l157.698-709.561ZM909.565 559.439h1.387L753.246 1269h-1.387l157.706-709.561ZM904.837 559.439h1.387L748.525 1269h-1.394l157.706-709.561ZM900.108 559.439h1.394L743.797 1269h-1.395l157.706-709.561ZM895.388 559.439h1.386L739.068 1269h-1.386l157.706-709.561ZM890.659 559.439h1.387L734.344 1269h-1.39l157.705-709.561ZM885.93 559.439h1.395L729.617 1269h-1.389L885.93 559.439ZM1180.86-150.125h1.38l-157.7 709.563h-1.39l157.71-709.563ZM1176.13-150.125h1.39l-157.7 709.563h-1.4l157.71-709.563ZM1171.4-150.125h1.39l-157.7 709.563h-1.4l157.71-709.563ZM1166.68-150.125h1.39l-157.71 709.563h-1.39l157.71-709.563ZM1161.95-150.125h1.39l-157.71 709.563h-1.38l157.7-709.563ZM1157.22-150.125h1.4l-157.71 709.563h-1.393l157.703-709.563ZM1152.49-150.125h1.4L996.182 559.438h-1.387l157.695-709.563ZM1147.77-150.125h1.39L991.453 559.438h-1.387l157.704-709.563ZM1143.04-150.125h1.39L986.732 559.438h-1.394l157.702-709.563ZM1138.32-150.125h1.39L982.004 559.438h-1.395l157.711-709.563ZM1133.59-150.125h1.39L977.275 559.438h-1.386l157.701-709.563ZM1128.87-150.125h1.38L972.547 559.438h-1.387l157.71-709.563ZM1124.14-150.125h1.39L967.826 559.438h-1.394l157.708-709.563ZM1119.41-150.125h1.39L963.098 559.438h-1.387l157.699-709.563ZM1114.69-150.125h1.39L958.369 559.438h-1.387l157.708-709.563ZM1109.96-150.125h1.39L953.648 559.438h-1.394l157.706-709.563ZM1105.23-150.125h1.4L948.92 559.438h-1.387l157.697-709.563ZM1100.51-150.125h1.39L944.192 559.438h-1.387l157.705-709.563ZM1095.78-150.125h1.39l-157.7 709.563h-1.394l157.704-709.563ZM1091.05-150.125h1.4L934.742 559.438h-1.394l157.702-709.563ZM1086.33-150.125h1.39L930.014 559.438h-1.387l157.703-709.563ZM1081.6-150.125h1.39L925.285 559.438h-1.387L1081.6-150.125ZM1076.88-150.125h1.39L920.564 559.438h-1.394l157.71-709.563ZM1072.15-150.125h1.39L915.835 559.438h-1.387l157.702-709.563ZM1067.43-150.125h1.38L911.107 559.438h-1.387l157.71-709.563ZM1062.7-150.125h1.38L906.386 559.438h-1.394L1062.7-150.125ZM1057.97-150.125h1.39L901.658 559.438h-1.394l157.706-709.563ZM1053.25-150.125h1.38L896.929 559.438h-1.387l157.708-709.563ZM1048.52-150.125h1.39L892.208 559.438h-1.395l157.707-709.563ZM1043.79-150.125h1.4L887.479 559.438h-1.394l157.705-709.563Z" fill="#BDBDBD"/><path opacity=".6" fill-rule="evenodd" clip-rule="evenodd" d="M151.88 825.94h-1.255L412.44-352.656h1.256L151.88 825.94Zm4.267 0h-1.255L416.707-352.656h1.256L156.147 825.94Zm4.268 0h-1.255L420.975-352.656h1.255L160.415 825.94Zm4.267 0h-1.255L425.242-352.656h1.255L164.682 825.94Zm4.267 0h-1.255L429.51-352.656h1.254L168.949 825.94Zm4.268 0h-1.256L433.777-352.656h1.255L173.217 825.94Zm4.267 0h-1.255L438.044-352.656h1.255L177.484 825.94Zm4.267 0h-1.255L442.311-352.656h1.256L181.751 825.94Zm4.267 0h-1.254L446.579-352.656h1.255L186.018 825.94Zm4.268 0h-1.255L450.846-352.656h1.255L190.286 825.94Zm4.267 0h-1.255L455.113-352.656h1.255L194.553 825.94Zm4.267 0h-1.255L459.381-352.656h1.254L198.82 825.94Zm4.268 0h-1.256L463.648-352.656h1.255L203.088 825.94Zm4.267 0H206.1L467.915-352.656h1.255L207.355 825.94Zm4.267 0h-1.255L472.182-352.656h1.256L211.622 825.94Zm4.267 0h-1.254L476.45-352.656h1.255L215.889 825.94Zm4.268 0h-1.255L480.717-352.656h1.255L220.157 825.94Zm4.267 0h-1.255L484.984-352.656h1.255L224.424 825.94Zm4.268 0h-1.256L489.252-352.656h1.255L228.692 825.94Zm4.267 0h-1.256L493.519-352.656h1.255L232.959 825.94Zm4.267 0h-1.255L497.786-352.656h1.255L237.226 825.94Zm4.267 0h-1.255L502.053-352.656h1.256L241.493 825.94Zm4.267 0h-1.254L506.321-352.656h1.255L245.76 825.94Zm4.268 0h-1.255L510.588-352.656h1.255L250.028 825.94Zm4.267 0h-1.255L514.855-352.656h1.255L254.295 825.94Zm4.268 0h-1.256L519.123-352.656h1.255L258.563 825.94Zm4.267 0h-1.255L523.39-352.656h1.255L262.83 825.94Zm4.267 0h-1.255L527.657-352.656h1.256L267.097 825.94Zm4.267 0h-1.255L531.924-352.656h1.256L271.364 825.94Zm4.268 0h-1.255L536.192-352.656h1.255L275.632 825.94Zm4.267 0h-1.255L540.459-352.656h1.255L279.899 825.94Zm4.267 0h-1.254L544.727-352.656h1.254L284.166 825.94Zm4.268 0h-1.255L548.994-352.656h1.255L288.434 825.94Zm4.267 0h-1.255L553.261-352.656h1.255L292.701 825.94Zm4.268 0h-1.256L557.528-352.656h1.256L296.969 825.94Zm4.267 0h-1.256L561.795-352.656h1.256L301.236 825.94Zm4.267 0h-1.255L566.063-352.656h1.255L305.503 825.94Zm4.267 0h-1.255L570.33-352.656h1.255L309.77 825.94Zm4.267 0h-1.254L574.598-352.656h1.254L314.037 825.94Zm4.268 0h-1.255L578.865-352.656h1.255L318.305 825.94Zm4.267 0h-1.255L583.132-352.656h1.255L322.572 825.94Zm4.268 0h-1.256L587.399-352.656h1.256L326.84 825.94Zm4.267 0h-1.255L591.667-352.656h1.255L331.107 825.94Z" fill="#BEBEBE"/><g opacity=".6" fill="#BEBEBE"><path d="M775.952-794.539h-2.471L213.117 1728.02h2.47L775.952-794.539ZM784.346-794.539h-2.464L221.514 1728.02h2.469L784.346-794.539ZM792.749-794.539h-2.471L229.911 1728.02h2.47L792.749-794.539ZM801.143-794.539h-2.471L238.308 1728.02h2.469L801.143-794.539ZM809.539-794.539h-2.472L246.705 1728.02h2.47L809.539-794.539ZM817.94-794.539h-2.471L255.102 1728.02h2.469L817.94-794.539ZM826.334-794.539h-2.471L263.498 1728.02h2.47L826.334-794.539Z"/></g><g opacity=".6" fill="#BEBEBE"><path d="M834.013-794.539h-2.471L271.177 1728.02h2.469L834.013-794.539ZM842.407-794.539h-2.471L279.573 1728.02h2.47L842.407-794.539ZM850.803-794.539h-2.464L287.971 1728.02h2.469L850.803-794.539ZM859.204-794.539h-2.471L296.367 1728.02h2.47L859.204-794.539ZM867.6-794.539h-2.472L304.765 1728.02h2.469L867.6-794.539ZM875.994-794.539h-2.464L313.161 1728.02h2.47L875.994-794.539ZM884.395-794.539h-2.471L321.558 1728.02h2.469L884.395-794.539Z"/></g><path d="M222.746-12.745H170.44L-114.339 1269.23h52.306L222.746-12.745Z" fill="#E0E0E0"/><path d="M217.543-12.745h5.204L-62.033 1269.23h-5.203L217.543-12.745Z" fill="#E0E0E0"/><path d="M171.696-12.745h-1.256L-114.339 1269.23h1.255L171.696-12.745ZM175.964-12.745h-1.256L-110.071 1269.23h1.254L175.964-12.745ZM180.23-12.745h-1.254l-284.78 1281.975h1.255L180.23-12.745ZM184.497-12.745h-1.255L-101.537 1269.23h1.255L184.497-12.745ZM188.765-12.745h-1.254L-97.269 1269.23h1.255L188.765-12.745ZM193.032-12.745h-1.255L-93.003 1269.23h1.256L193.032-12.745ZM197.299-12.745h-1.255L-88.736 1269.23h1.256L197.3-12.745Z" fill="#F2F2F2"/><path d="M1733.97.001h-448.55L1000.64 1281.97h448.54L1733.97.001ZM1272.88.001h-25.45L962.655 1281.97h25.45L1272.88.001Z" fill="#D9D9D9"/><path d="M1794.21-7.08h-1.25l-284.78 1281.97h1.26L1794.21-7.08ZM1798.48-7.08h-1.25l-284.78 1281.97h1.25L1798.48-7.08ZM1802.75-7.08h-1.26l-284.77 1281.97h1.25L1802.75-7.08ZM1807.02-7.08h-1.26l-284.78 1281.97h1.25L1807.02-7.08ZM1811.28-7.08h-1.25l-284.78 1281.97h1.26L1811.28-7.08ZM1815.55-7.08h-1.26l-284.77 1281.97h1.25L1815.55-7.08ZM1819.82-7.08h-1.26l-284.77 1281.97h1.25L1819.82-7.08ZM1824.09-7.08h-1.26l-284.78 1281.97h1.25L1824.09-7.08ZM1828.35-7.08h-1.25l-284.79 1281.97h1.27L1828.35-7.08ZM1832.62-7.08h-1.26l-284.78 1281.97h1.26L1832.62-7.08ZM1836.89-7.08h-1.26l-284.78 1281.97h1.26L1836.89-7.08ZM1841.16-7.08h-1.26l-284.78 1281.97h1.25L1841.16-7.08ZM1845.42-7.08h-1.25l-284.79 1281.97h1.27L1845.42-7.08ZM1747.28-7.08h-1.26l-284.78 1281.97h1.25L1747.28-7.08ZM1751.54-7.08h-1.26l-284.77 1281.97h1.25L1751.54-7.08ZM1755.81-7.08h-1.25l-284.79 1281.97h1.26L1755.81-7.08ZM1760.07-7.08h-1.25l-284.78 1281.97h1.26L1760.07-7.08ZM1764.34-7.08h-1.25l-284.78 1281.97h1.25L1764.34-7.08ZM1768.61-7.08h-1.26l-284.77 1281.97h1.25L1768.61-7.08ZM1772.88-7.08h-1.25l-284.79 1281.97h1.26L1772.88-7.08ZM1777.14-7.08h-1.25l-284.78 1281.97h1.26L1777.14-7.08ZM1781.41-7.08h-1.25l-284.78 1281.97h1.25L1781.41-7.08ZM1785.68-7.08h-1.26l-284.77 1281.97h1.25L1785.68-7.08ZM1789.95-7.08h-1.26l-284.78 1281.97h1.26L1789.95-7.08Z" fill="#BDBDBD"/><path d="M1794.21-7.08h-1.25l-284.78 1281.97h1.26L1794.21-7.08ZM1798.48-7.08h-1.25l-284.78 1281.97h1.25L1798.48-7.08ZM1849.68-7.08h-1.25l-284.78 1281.97h1.26L1849.68-7.08ZM1853.96-7.08h-1.26l-284.78 1281.97h1.26L1853.96-7.08ZM1858.22-7.08h-1.25l-284.78 1281.97h1.25L1858.22-7.08ZM1862.49-7.08h-1.25l-284.79 1281.97h1.26L1862.49-7.08ZM1866.76-7.08h-1.26l-284.78 1281.97h1.26L1866.76-7.08ZM1871.03-7.08h-1.26l-284.78 1281.97h1.25L1871.03-7.08ZM1875.29-7.08h-1.25l-284.78 1281.97h1.25L1875.29-7.08ZM1879.56-7.08h-1.25l-284.79 1281.97h1.26L1879.56-7.08ZM1883.82-7.08h-1.25l-284.78 1281.97h1.26L1883.82-7.08Z" fill="#BDBDBD"/></g></svg>