<svg width="42" height="42" viewBox="0 0 42 42" fill="none" xmlns="http://www.w3.org/2000/svg">
<rect width="42" height="42" fill="#9C9D9F"/>
<path d="M21 10C16.591 10 13 13.6545 13 18.1415C13 24.8899 20.111 31.222 20.4223 31.4935L21 32L21.5777 31.4935C21.8886 31.222 29 24.8899 29 18.1415C29 13.6545 25.409 10 21 10ZM21 22.6647C18.5466 22.6647 16.5555 20.6383 16.5555 18.1415C16.5555 15.6448 18.5466 13.6184 21 13.6184C23.4534 13.6184 25.4445 15.6448 25.4445 18.1415C25.4445 20.6383 23.4534 22.6647 21 22.6647Z" fill="#141414"/>
</svg>
