<svg width="210" height="50" viewBox="0 0 210 50" fill="none" xmlns="http://www.w3.org/2000/svg">
<path d="M140.574 32.418C140.54 27.8141 140.508 23.2102 140.479 18.6063V18.1007H140.427V14.4903C140.427 13.2705 140.427 12.0553 140.427 10.8311C140.423 10.4198 140.392 10.0092 140.332 9.60249C140.12 8.11221 139.466 7.50901 137.956 7.52675C136.93 7.52675 135.9 7.59771 134.874 7.61102C132.995 7.6332 131.134 7.63319 129.247 7.65094C128.645 7.65094 128.039 7.7219 127.447 7.68198C126.65 7.62876 126.351 7.84166 126.369 8.67107C126.369 10.0593 126.412 11.452 126.442 12.8403C126.44 12.8595 126.44 12.8788 126.442 12.898C126.468 14.335 126.503 15.7765 126.538 17.2136C126.581 18.9212 126.667 20.6244 126.711 22.3364C126.741 23.667 126.711 25.0243 126.711 26.3593C126.711 28.0847 126.763 29.81 126.784 31.5398C126.806 32.7906 126.828 34.0325 126.841 35.2788C126.841 35.5937 126.841 35.9087 126.841 36.2236C126.841 38.0909 126.841 39.9537 126.841 41.821C126.841 42.4375 126.996 42.7081 127.589 42.7613C127.966 42.7879 128.334 42.7879 128.702 42.7879L137.419 42.6992C139.639 42.677 140.617 41.6835 140.609 39.4037C140.6 37.1239 140.592 34.7421 140.574 32.418ZM135.302 37.2969C135.283 37.3643 135.248 37.4254 135.198 37.4743C135.15 37.5256 135.088 37.5624 135.021 37.5808C134.216 37.6429 133.398 37.6695 132.485 37.7138C132.485 36.7691 132.485 35.8998 132.485 35.0526C132.485 33.2341 132.428 31.4156 132.415 29.5971C132.415 27.3794 132.415 25.1618 132.415 22.9086C132.398 19.656 132.378 16.4167 132.355 13.1907C132.355 12.5786 132.398 12.5165 133.004 12.5077C133.437 12.5077 133.9 12.5077 134.35 12.5565C134.943 12.6052 135.151 12.8802 135.142 13.4879C135.142 14.2419 135.142 14.9915 135.142 15.7455L135.168 16.8366C135.168 16.9563 135.168 17.0761 135.168 17.1958C135.203 18.4865 135.242 19.7728 135.259 21.0635C135.307 24.9533 135.333 28.8387 135.363 32.7285C135.363 33.9039 135.389 35.0704 135.389 36.2413C135.39 36.601 135.361 36.9601 135.302 37.3147V37.2969Z" fill="#F69D14"/>
<path d="M176.04 41.8919C176.04 42.2556 175.928 42.3842 175.56 42.3886C174.14 42.4152 172.725 42.4685 171.309 42.5217C170.53 42.5483 170.336 42.3576 170.344 41.6346C170.375 39.7851 170.409 37.9355 170.405 36.086C170.405 33.2385 170.366 30.3865 170.344 27.539V26.9713C169.189 26.7229 168.059 26.9491 166.882 26.9713C166.882 27.366 166.882 27.7297 166.882 28.089C166.912 29.3176 166.985 30.5506 166.99 31.7837C166.99 34.1522 166.964 36.5206 166.947 38.8803C166.947 39.8605 166.912 40.8407 166.947 41.8253C166.947 42.2689 166.752 42.535 166.336 42.535C164.96 42.535 163.583 42.4906 162.207 42.4463C162.144 42.4364 162.085 42.4105 162.034 42.3709C161.985 42.33 161.945 42.2785 161.917 42.2201C161.827 41.9207 161.774 41.6106 161.761 41.2975C161.761 36.6966 161.761 32.0971 161.761 27.4991V27.0556C161.398 27.0556 161.09 27.0334 160.783 27.0556C160.402 27.0866 160.207 26.9136 160.194 26.5588C160.125 24.9976 160.069 23.4334 160.026 21.8662C160.026 21.4981 160.268 21.3827 160.58 21.3783H161.614C161.614 21.192 161.64 21.0501 161.636 20.9348C161.569 16.597 161.503 12.2592 161.437 7.9214C161.437 7.59761 161.549 7.51334 161.835 7.50004C163.259 7.44238 164.674 7.36697 166.098 7.30931C166.708 7.2827 166.765 7.34036 166.765 7.96131V21.3783C167.275 21.3783 167.747 21.3783 168.228 21.3783C168.708 21.3783 169.318 21.2718 169.859 21.2985C170.4 21.3251 170.509 21.0944 170.496 20.6332C170.496 19.6884 170.465 18.7348 170.439 17.7856C170.359 14.6365 170.275 11.4874 170.188 8.33832C170.188 7.80164 170.288 7.65971 170.799 7.59318C170.967 7.57032 171.136 7.55847 171.305 7.55769H172.257C173.21 7.55769 174.157 7.55769 175.11 7.55769C175.542 7.55769 175.698 7.68632 175.698 8.15204C175.698 8.34276 175.698 8.53791 175.698 8.72863C175.698 8.91935 175.698 8.99919 175.698 9.13225C175.698 13.1241 175.755 17.0937 175.785 21.0723C175.785 22.4827 175.785 23.8931 175.824 25.2992C175.896 29.9415 175.975 34.5853 176.062 39.2306C176.062 40.1088 176.04 41.0004 176.04 41.8919Z" fill="#F69D14"/>
<path d="M90.7729 41.9142C90.7729 42.2114 90.7166 42.3843 90.3661 42.3888C88.8728 42.4154 87.3795 42.4775 85.8819 42.5174C85.2587 42.5174 85.0812 42.3222 85.0812 41.6614V27.1356C85.0812 27.0779 85.0812 27.0247 85.0552 26.967C83.9429 26.7053 82.8132 26.967 81.7095 26.967C81.6662 27.0202 81.6316 27.0424 81.6316 27.069C81.6532 28.6037 81.6835 30.1383 81.6965 31.6685C81.6965 32.112 81.6532 32.5556 81.6575 32.9991C81.6575 33.2785 81.7354 33.5624 81.7354 33.8418C81.7354 35.097 81.7354 36.3567 81.7008 37.6119C81.7008 37.745 81.7008 37.8824 81.7008 38.0155C81.7008 39.3151 81.6705 40.6146 81.6532 41.9142C81.6532 42.3577 81.4584 42.5706 80.939 42.5706C79.9479 42.5706 78.961 42.5351 77.9698 42.513H77.6452C76.5675 42.4775 76.4376 42.3311 76.4679 41.2134C76.4679 40.6723 76.4679 40.1267 76.4679 39.5812V27.0868C76.113 27.0868 75.7884 27.0868 75.4681 27.0868C75.3959 27.1028 75.3212 27.1013 75.2496 27.0826C75.1781 27.0639 75.1118 27.0284 75.056 26.979C75.0002 26.9295 74.9563 26.8674 74.928 26.7976C74.8996 26.7278 74.8874 26.6522 74.8924 26.5767C74.8275 25.0243 74.7799 23.4719 74.7279 21.9284C74.7279 21.5647 74.9314 21.4228 75.256 21.4184C75.5806 21.4139 75.9355 21.4184 76.3078 21.4184C76.3078 21.2676 76.3424 21.1434 76.3424 21.0325C76.2789 16.677 76.2125 12.3214 76.1433 7.9659C76.1433 7.62881 76.2472 7.52237 76.5761 7.52237C77.9958 7.46471 79.4155 7.38931 80.8352 7.33165C81.4195 7.30504 81.4757 7.36713 81.4801 7.96147V21.3119C82.666 21.3119 83.7784 21.3119 84.8735 21.3119C84.9903 21.3119 85.1851 21.0148 85.1851 20.8684C85.1851 19.7906 85.1851 18.7172 85.1461 17.6394C85.0682 14.5376 84.9831 11.4329 84.8908 8.32517C84.8742 8.23896 84.8774 8.14995 84.9004 8.06528C84.9233 7.98061 84.9653 7.90261 85.0229 7.83753C85.0806 7.77245 85.1522 7.72208 85.2323 7.69046C85.3123 7.65884 85.3984 7.64684 85.4837 7.65543C86.2715 7.61994 87.0592 7.61995 87.847 7.61108C88.4962 7.61108 89.1455 7.63326 89.7947 7.61108C90.2535 7.61108 90.4093 7.74414 90.4093 8.23203C90.444 13.8028 90.4872 19.3766 90.5392 24.9534C90.5392 26.0223 90.5652 27.0868 90.5868 28.1557C90.5868 28.2843 90.5868 28.4174 90.5868 28.546C90.6431 32.1342 90.7123 35.7269 90.7729 39.3151C90.7729 40.1312 90.7729 41.0227 90.7729 41.9142Z" fill="#F69D14"/>
<path d="M193.955 25.3479C193.894 21.6 193.864 17.8522 193.739 14.1087C193.678 12.3035 194.115 10.4584 193.306 8.69757C193.163 8.39153 193.085 8.04113 192.804 7.9125C192.384 7.69071 191.924 7.55796 191.453 7.52219C190.016 7.46897 188.579 7.52219 187.125 7.52219C185.446 7.52219 183.762 7.50001 182.078 7.52219C181.599 7.50631 181.131 7.67222 180.763 7.98813C180.396 8.30404 180.155 8.74774 180.087 9.23424C179.926 10.0881 179.841 10.955 179.832 11.8245C179.832 13.2793 179.888 14.7341 179.905 16.1889C179.936 18.7348 179.944 21.2851 179.979 23.8266C180.001 25.1572 180.057 26.5144 180.083 27.8539C180.149 30.5772 180.207 33.2991 180.256 36.0194C180.256 36.5605 180.23 37.1017 180.221 37.6472C180.157 38.4086 180.157 39.1744 180.221 39.9359C180.494 41.6213 181.213 42.3487 182.637 42.5971C182.922 42.6503 183.212 42.6799 183.502 42.6858C186.034 42.6636 188.566 42.6547 191.098 42.5882C191.828 42.5719 192.524 42.2722 193.046 41.7499C193.567 41.2271 193.876 40.5223 193.912 39.7762C193.955 39.071 193.912 38.3569 193.912 37.6428V28.0136H193.955C193.955 27.5124 193.955 27.0112 193.955 26.51V26.3015C193.959 25.9733 193.959 25.6407 193.955 25.3479ZM188.185 37.217C187.536 37.217 186.887 37.217 186.238 37.217C185.718 37.217 185.55 37.0307 185.545 36.4896C185.545 35.0791 185.545 33.6775 185.545 32.2715H185.48C185.48 30.5994 185.48 28.9228 185.48 27.2551C185.437 22.6749 185.385 18.0917 185.324 13.5055C185.324 12.7204 185.324 12.7204 186.091 12.7116C186.748 12.7116 187.389 12.7116 188.064 12.6761C188.532 12.6761 188.649 12.7825 188.636 13.2616C188.636 13.9623 188.592 14.6631 188.597 15.3595C188.646 21.7494 188.699 28.1378 188.757 34.5247C188.757 35.19 188.826 35.8553 188.835 36.5117C188.843 37.0529 188.692 37.217 188.185 37.217Z" fill="#F69D14"/>
<path d="M124.04 41.2575C123.789 39.6489 123.534 38.0404 123.274 36.4318C123.157 35.7221 123.045 35.0125 122.928 34.3028C122.906 34.1742 122.884 34.0456 122.867 33.9214C122.241 30.0774 121.616 26.2334 120.993 22.3894C120.416 18.7938 119.826 15.1997 119.223 11.6071L119.158 11.2212C118.985 10.1567 118.809 9.0922 118.63 8.02771C118.513 7.30918 118.357 7.19387 117.652 7.24266L114.873 7.43782L113.09 7.57087C112.986 8.3648 112.882 9.16317 112.774 9.9571C112.774 10.0813 112.743 10.201 112.726 10.3252C111.683 18.2512 110.64 26.1684 109.597 34.1254C109.597 34.2407 109.566 34.3561 109.549 34.4714C109.197 37.1651 108.844 39.8648 108.489 42.5704C110.22 42.5704 111.921 42.5704 113.6 42.5704C114.098 42.5704 114.289 42.3663 114.31 41.8873C114.362 40.9263 114.427 39.9638 114.505 38.9999C114.604 37.8556 114.726 36.7157 114.838 35.558C114.838 35.558 114.838 35.5226 114.838 35.5048C114.838 35.4871 114.838 35.4738 114.838 35.4605H117.517C117.825 37.8378 118.119 40.1886 118.413 42.4683C120.262 42.4683 121.976 42.4683 123.69 42.4683C123.765 42.4581 123.837 42.4275 123.897 42.3796C123.955 42.3303 124.001 42.2681 124.031 42.1978C124.078 41.8863 124.081 41.5698 124.04 41.2575ZM115.171 30.5727C115.466 27.3526 115.756 24.2345 116.037 21.1165H116.228L117.119 30.5549L115.171 30.5727Z" fill="#F69D14"/>
<path d="M157.71 34.17C157.71 36.0196 157.71 37.8736 157.71 39.7276C157.71 41.3908 156.996 42.2868 155.381 42.5529C154.861 42.5884 154.339 42.5884 153.819 42.5529C151.412 42.6105 149.01 42.6726 146.599 42.7214C146.309 42.7296 146.018 42.7028 145.734 42.6416C145.373 42.6034 145.041 42.4227 144.808 42.1378C144.576 41.8529 144.46 41.4863 144.487 41.1158C144.452 39.8074 144.487 38.4857 144.487 37.1728H144.37V33.5136C144.37 32.8261 144.483 32.6886 145.136 32.6975C146.34 32.7197 147.543 32.764 148.746 32.7818C148.807 32.7722 148.868 32.7768 148.927 32.7952C148.986 32.8136 149.039 32.8453 149.084 32.8879C149.129 32.9306 149.164 32.9831 149.186 33.0415C149.209 33.0999 149.218 33.1627 149.213 33.2253C149.213 34.2987 149.252 35.3676 149.239 36.441C149.239 36.9998 149.348 37.226 149.876 37.2615C150.586 37.3058 151.299 37.3058 152.01 37.2615C152.116 37.2257 152.212 37.1625 152.288 37.0778C152.364 36.9931 152.417 36.8899 152.442 36.778C152.442 35.3232 152.442 33.864 152.442 32.4092C152.442 32.2673 152.442 32.1209 152.442 31.9657C152.442 31.8104 152.442 31.6508 152.442 31.4955C152.41 31.3286 152.332 31.1747 152.217 31.052L151.538 30.0851L145.309 21.3385C145.049 20.927 144.809 20.5022 144.591 20.0656C144.08 19.1785 144.227 18.2293 144.214 17.2846C144.184 14.9827 144.214 12.663 144.115 10.361C144.02 8.3917 145.037 7.69978 146.599 7.61551C147.547 7.56228 148.504 7.61551 149.452 7.61551C151.395 7.58889 153.347 7.54454 155.273 7.5268C155.725 7.49446 156.174 7.62536 156.542 7.89679C156.909 8.16822 157.173 8.56302 157.286 9.01264C157.32 9.18185 157.338 9.35427 157.338 9.52715V15.7367C157.333 15.9254 157.316 16.1137 157.286 16.3C157.283 16.3832 157.263 16.465 157.227 16.5398C157.191 16.6146 157.141 16.6808 157.078 16.734C157.016 16.7872 156.943 16.8263 156.864 16.8485C156.786 16.8708 156.704 16.8758 156.624 16.8632C155.455 16.8632 154.282 16.8987 153.105 16.9076C152.572 16.9076 152.468 16.7967 152.46 16.2334V13.4702C152.46 12.8581 152.416 12.8182 151.832 12.8182C151.14 12.8182 150.447 12.8182 149.75 12.8182C149.352 12.8182 149.157 12.9646 149.162 13.4081C149.162 14.8008 149.162 16.1935 149.162 17.5862C149.181 17.8181 149.27 18.0382 149.417 18.216C151.784 21.5825 154.135 24.9622 156.55 28.2799C157.351 29.3483 157.758 30.6728 157.697 32.0189C157.697 32.6709 157.675 33.3185 157.675 33.9704C157.682 34.0378 157.693 34.1045 157.71 34.17Z" fill="#F69D14"/>
<path d="M107.06 41.6082C107.06 42.4287 107.06 42.4553 106.268 42.4553H96.72C96.3641 42.4493 96.0082 42.4701 95.6552 42.5174C95.3003 42.5707 95.1748 42.4465 95.1791 42.0739C95.1791 41.2622 95.1791 40.455 95.1791 39.6477C95.1243 35.5229 95.0666 31.3965 95.006 27.2686C95.006 26.8251 94.8502 26.6255 94.3827 26.6477C94.0947 26.6849 93.8029 26.6774 93.5171 26.6255C93.3959 26.5723 93.3569 26.4658 93.3396 26.2574C93.3223 26.0489 93.3396 25.8848 93.318 25.5876C93.2877 24.4256 93.2487 23.2502 93.2401 22.0793C93.2401 21.3918 93.292 21.3519 93.9412 21.3519H94.7766C94.8069 20.8019 94.8675 20.2874 94.8632 19.7684C94.8343 16.5572 94.791 13.3431 94.7333 10.1259C94.7333 9.50943 94.6684 8.89291 94.6078 8.28527C94.5472 7.67762 94.7506 7.42924 95.3003 7.4248C96.7084 7.4248 98.1166 7.4248 99.5247 7.4248C101.853 7.4248 104.186 7.46029 106.515 7.45586C106.904 7.45586 107.013 7.58448 107.013 7.97923C107.013 8.27196 107.013 8.56469 107.013 8.8663C107.008 8.93572 107.008 9.00534 107.013 9.07476C107.013 10.0816 107.013 11.0929 107.013 12.1086C107.013 12.4856 106.952 12.7251 106.515 12.5122C106.441 12.4892 106.363 12.4817 106.286 12.49C104.433 12.49 102.576 12.49 100.724 12.49C100.429 12.49 100.321 12.5743 100.325 12.8981C100.373 15.5593 100.403 18.185 100.438 20.8285C100.438 21.4894 100.438 21.4583 101.074 21.4406H101.308C102.983 21.4006 104.649 21.3873 106.316 21.3563C106.627 21.3563 106.718 21.5071 106.723 21.7998C106.749 23.1704 106.766 24.5498 106.818 25.9203C106.818 26.3638 106.623 26.5767 106.225 26.59C105.316 26.6226 104.406 26.6418 103.494 26.6477C102.555 26.6477 101.611 26.6477 100.568 26.6477C100.602 28.4529 100.637 30.2359 100.667 32.0189C100.667 32.1121 100.667 32.2008 100.667 32.2895C100.702 33.9705 100.732 35.647 100.767 37.3369C100.983 37.3369 101.139 37.3369 101.312 37.3369H106.324C107.06 37.3369 107.034 37.3369 107.03 38.1042C107.013 39.3195 107.043 40.4727 107.06 41.6082Z" fill="#F69D14"/>
<path d="M209.991 12.5255C209.991 13.0489 209.818 13.1642 209.281 13.1642H206.563C206.589 13.6078 206.633 13.967 206.628 14.3396C206.628 16.2113 206.563 18.0786 206.555 19.9459C206.555 21.0281 206.628 22.1237 206.628 23.2015C206.628 25.2151 206.628 27.2288 206.628 29.2424C206.633 29.3296 206.633 29.4169 206.628 29.5041C206.628 33.6438 206.628 37.7923 206.628 41.9498C206.628 42.2469 206.568 42.3933 206.256 42.3933C204.771 42.4288 203.287 42.482 201.807 42.5042C201.335 42.5042 201.153 42.278 201.149 41.7191C201.149 41.3732 201.149 41.0316 201.149 40.6857C201.144 40.6311 201.144 40.5762 201.149 40.5216C201.149 39.0431 201.149 37.575 201.149 36.1172V32.6C201.149 31.1629 201.149 29.7259 201.149 28.2888V27.8586C201.149 25.2196 201.149 22.5761 201.149 19.937C201.149 17.7859 201.04 15.6303 200.98 13.4791C200.975 13.4106 200.967 13.3425 200.954 13.2751C199.816 13.2751 198.738 13.2751 197.66 13.2751C197.283 13.2751 197.097 13.1332 197.08 12.7783C197.037 11.8514 197.011 10.9244 196.976 9.99294C196.976 9.39416 196.937 8.79095 196.924 8.19218C196.911 7.5934 197.037 7.53131 197.582 7.58897C197.959 7.6288 198.337 7.64657 198.716 7.64219C201.556 7.62149 204.393 7.59488 207.23 7.56236C207.927 7.56236 208.619 7.56236 209.316 7.56236C209.405 7.54974 209.496 7.55807 209.581 7.5867C209.667 7.61534 209.745 7.66353 209.81 7.72763C209.874 7.79173 209.924 7.87006 209.955 7.95669C209.985 8.04332 209.996 8.13599 209.987 8.22766C209.996 9.67359 210.009 11.1018 209.991 12.5255Z" fill="#F69D14"/>
<path d="M68.1013 49.9954H0L1.29849 35.4695L1.31147 35.3365L1.4846 33.3805L1.52356 32.9591L3.34577 12.5609L4.4668 0.00878906H63.6432L66.5604 32.7107L66.5907 33.07L66.9067 36.5961L66.9457 37.0131L68.1013 49.9954Z" fill="#F69D14"/>
<path d="M27.3808 26.8209C27.2011 27.3745 26.9319 27.8933 26.5844 28.3555L25.9568 28.6172C26.1459 29.1961 26.2906 29.7893 26.3896 30.3913C26.4393 31.2584 26.4393 32.1278 26.3896 32.9949C26.29 33.4384 26.5411 33.9396 26.4891 34.4231C26.4372 34.9065 26.0563 33.6425 26.0563 33.6425L24.8877 33.9751C24.8877 33.9751 24.7968 34.4941 24.8877 34.5428C24.9786 34.5916 25.0608 35.1461 25.0608 35.1461L25.7057 34.636L26.2078 34.84L26.1559 35.7271C26.1559 35.7271 26.4285 36.0065 26.329 36.113C26.1966 36.4588 26.0966 36.8167 26.0303 37.1819V38.8673L25.5109 39.3907L24.8704 39.1113C24.7579 39.2901 24.6225 39.4527 24.4678 39.5947C24.3163 39.6967 24.866 40.4374 24.6193 40.5661C24.3726 40.6947 24.3163 41.5108 24.3163 41.5108C24.5422 42.2641 24.7272 43.0296 24.8704 43.8039C24.9136 44.3406 24.9396 47.228 24.6929 47.8667C24.5088 48.5373 24.3642 49.2186 24.2601 49.907C24.2557 49.9378 24.2557 49.9692 24.2601 50.0001H21.9531C21.9531 49.3481 21.9531 48.7094 21.9531 48.7094C21.8652 48.6785 21.7893 48.6194 21.7367 48.5409C21.6851 48.4629 21.6635 48.3681 21.6761 48.2747C21.728 47.9421 21.6761 44.7752 21.6761 44.549C21.6761 44.3228 21.7194 43.5777 21.6761 43.4757C21.6545 43.3749 21.6545 43.2704 21.6761 43.1696C21.3224 42.393 21.0244 41.5911 20.7845 40.7701C20.759 40.4578 20.8095 40.1438 20.9316 39.8564C20.7907 39.4754 20.6906 39.0798 20.633 38.6766V37.7895L20.3083 37.2307C20.4382 36.8448 19.9837 36.2061 19.9837 36.2061C19.9837 36.2061 19.5855 36.4855 19.5509 36.5875C19.5163 36.6896 19.1527 38.477 18.906 38.548C18.6593 38.6189 18.4731 40.158 18.3476 40.3887C18.2221 40.6193 18.8324 43.1164 18.6549 43.1962C18.4775 43.2761 19.157 44.3184 18.854 45.2631C18.6362 46.2345 18.5115 47.2253 18.4818 48.2215L18.1312 48.6651C18.1312 48.6651 18.4818 49.5787 18.3433 49.8404C18.3173 49.8892 18.2914 49.938 18.2611 49.9868H14.1102C14.1102 49.765 14.1102 49.5876 14.1102 49.5876L15.6554 48.3058C15.6554 48.3058 15.729 45.7288 15.7809 45.201C15.8329 44.6732 15.8848 44.2031 15.8848 44.2031L15.8589 43.7595C15.8589 43.7595 15.2096 42.9168 15.2313 42.4289C15.2461 42.1299 15.2139 41.8304 15.136 41.5419C15.136 41.5419 15.1101 39.3996 15.136 38.7875C15.1543 38.4639 15.2215 38.1452 15.3351 37.8428C15.3351 37.8428 14.8633 36.3037 15.0625 35.9533C15.2616 35.6029 15.4953 35.1638 15.4953 35.1638L15.0192 34.9598L15.8199 32.8929C15.8199 32.8929 14.9542 32.9151 14.9239 32.711C14.8936 32.507 15.1793 29.3135 15.1793 29.3135L13.5995 30.6708L14.4651 32.609L13.8202 32.9594L12.5694 31.478C12.5694 31.478 11.3315 32.609 11.154 32.5248C10.9512 32.3697 10.768 32.1894 10.6086 31.9881L9.85984 32.3207L9.60448 32.0147L7.34511 33.6025L7.21526 34.0461L7.05078 34.2146L6.66557 33.9529L5.94707 34.4187L5.65707 34.0372L6.43184 33.3808L5.93841 32.6312L6.19378 32.4804L6.86467 32.9639L10.6865 29.8591L12.6862 27.8587C12.6862 27.8587 12.8896 26.9717 13.2359 26.7854L14.5344 26.1467C14.5344 26.1467 15.1577 24.7185 15.2832 24.5633C15.562 24.0521 15.7676 23.5023 15.8935 22.9311C15.9454 22.5274 15.9411 21.525 16.2397 21.4275C16.5687 21.3585 16.9038 21.3243 17.2396 21.3255C17.4456 20.9366 17.6986 20.576 17.9927 20.2521C18.1934 20.113 18.3778 19.9508 18.5424 19.7686L18.7155 19.2808C18.7155 19.2808 18.2134 19.1521 18.2134 19.0501C18.3216 18.747 18.4473 18.4508 18.59 18.163L18.3519 17.5199C18.3519 17.5199 17.9884 17.3913 17.9191 17.2405C17.8751 16.9468 17.849 16.6505 17.8412 16.3534L17.5209 16.074L17.6941 15.7679L17.1487 15.5373L17.2223 14.974H16.9669L16.3653 16.3845C16.3653 16.3845 15.5732 16.3046 15.4996 16.0252C15.7983 15.2579 16.0233 14.7744 16.0233 14.7744C16.006 14.639 16.006 14.5018 16.0233 14.3664C16.0623 14.2644 16.6856 13.3418 16.6856 13.3418L17.4084 13.4749L17.8412 13.6301C17.8412 13.6301 18.0966 13.6789 18.062 13.7587C18.0511 13.9463 18.0511 14.1344 18.062 14.322L18.6333 14.5837C18.6333 14.5837 19.2046 15.2934 19.8063 14.8454C20.4079 14.3974 22.5244 15.4042 22.5244 15.4042C22.5244 15.4042 23.1693 14.9607 23.3901 15.2268C23.6108 15.4929 24.0913 16.1937 24.0913 16.1937C24.0913 16.1937 23.416 17.1429 23.5156 17.1917C23.6152 17.2405 24.2644 17.5243 23.9484 17.6352C23.6325 17.7461 23.2516 18.3759 23.1823 18.3493C23.1131 18.3227 23.3814 18.7308 23.1564 18.7574C22.9313 18.784 22.3859 19.2985 22.3859 19.2985V19.5824L22.9096 19.4404L23.1087 20.0392C23.1087 20.0392 24.3077 20.2698 24.4548 20.4827C24.4959 20.5707 24.5173 20.6669 24.5173 20.7644C24.5173 20.8619 24.4959 20.9581 24.4548 21.046L25.1517 22.2214C25.1517 22.2214 25.5845 21.8887 25.7274 22.2214C25.8702 22.554 26.8527 23.3169 26.7964 23.6762C26.7402 24.0355 27.3937 24.7451 27.2985 25.1266C27.2033 25.508 27.45 26.2886 27.3808 26.8209Z" fill="black"/>
<path d="M43.3608 30.2226C43.3219 30.1649 43.2872 28.6214 43.2872 28.6214C43.2872 28.6214 43.9971 28.1468 44.0533 27.9872C44.0519 27.6029 44.0142 27.2197 43.9408 26.8429L43.2093 24.7538C43.2991 24.4811 43.3185 24.1893 43.2656 23.9066C43.1704 23.4631 42.3437 21.4628 42.3437 21.4628C42.3444 21.1373 42.3007 20.8133 42.2138 20.5003C41.8961 20.3086 41.5557 20.1595 41.201 20.0567L40.937 20.3273C40.5807 19.9965 40.2533 19.6344 39.9588 19.2451C39.8063 18.8677 39.6178 18.5067 39.3961 18.1673C39.3052 18.114 38.0587 18.0741 38.0067 18.012C37.9548 17.9499 37.799 17.8435 37.8552 17.7858C37.9115 17.7282 38.6603 17.0717 38.6603 17.0717L38.5348 16.433L38.946 16.0472L39.9068 16.0072L40.5474 16.2778L40.8288 18.4955L41.3914 18.4556L41.3179 16.2379L42.7808 15.7589V15.5282L43.1401 15.373V15.1424L43.9278 14.9694L43.8715 14.5258L48.3557 13.7452L48.2604 13.1864L43.0362 14.0158C43.0362 14.0158 40.5734 13.5323 40.5171 13.5323C40.4609 13.5323 38.8594 13.7452 38.8594 13.7452C38.8594 13.7452 38.3357 13.071 38.1669 13.0533C37.9981 13.0356 37.167 11.9356 35.44 12.4767C33.7131 13.0178 34.1416 13.6521 34.1416 13.6521L32.2068 13.8605L32.0207 14.3041H32.6743L32.7522 14.7476L33.185 14.6145L33.2196 15.577L31.9211 15.923C31.8649 15.923 30.7958 16.1935 30.7958 16.1935C30.4176 16.0832 30.0239 16.0397 29.6315 16.0649C29.2289 16.1447 26.6276 16.5084 26.6276 16.5084L27.1167 19.01L26.9609 19.3515C26.898 19.4909 26.8903 19.6499 26.9393 19.7951L27.0388 20.0967C27.0388 20.0967 27.0388 20.4825 27.134 20.5402C27.2293 20.5979 27.3981 21.0236 27.3981 21.0236L27.5885 22.1724C27.5885 22.1724 27.0388 22.1724 27.0388 22.6159C27.0605 22.9052 27.1817 23.1771 27.3808 23.3833L27.8136 23.7603C27.8285 24.0126 27.908 24.2566 28.0439 24.4675C28.1799 24.6785 28.3677 24.8491 28.5884 24.9623C29.0393 25.2606 29.572 25.4021 30.1076 25.3659C30.1639 25.3304 30.6356 25.0776 30.6356 25.0776C30.6356 25.0776 30.5577 26.1953 30.8434 26.4836C31.1291 26.7719 30.5967 26.8295 30.3327 27.5836C30.1419 28.3237 30.0717 29.0909 30.1249 29.8545C30.1249 30.0807 29.9777 31.5532 30.2201 31.7218C30.3981 31.8411 30.594 31.9295 30.8001 31.9834L31.4277 31.2915L31.5402 31.8681L30.6746 32.5068C30.6746 32.5068 30.5491 33.3362 30.5491 33.4693C30.5491 33.6023 30.047 33.5447 30.021 33.9128C30.0198 34.0162 30.0436 34.1183 30.0903 34.21C30.1369 34.3013 30.2036 34.3802 30.285 34.4406C30.285 34.4406 30.6227 36.9023 30.64 37.0752C30.6573 37.2482 30.7698 37.6164 30.8953 37.5764C31.1075 37.5401 31.3213 37.515 31.5359 37.501C31.5359 37.501 31.1031 38.5788 31.2156 38.8671C31.3232 39.3148 31.3855 39.7725 31.4017 40.2332C31.4363 40.6059 31.5058 40.9742 31.6095 41.3332C31.8152 41.8501 32.1532 42.3005 32.5877 42.6372C32.5877 42.6372 32.4752 43.9678 32.6786 44.3537C32.882 44.7396 33.1114 48.0483 33.1114 48.0483C32.9175 48.2343 32.7525 48.4498 32.6223 48.687C32.3678 49.0587 31.9965 49.3295 31.5705 49.4543C31.3585 49.4898 31.2243 49.7648 31.1377 49.9999H36.0936C36.0936 49.2681 35.9594 47.9907 35.9594 47.9907C36.0257 47.7589 36.0707 47.5213 36.0936 47.281C36.0936 47.0681 35.5829 44.1452 35.5829 44.1452C35.5829 44.1452 35.9205 43.9146 35.8859 43.6218C35.731 43.1337 35.5415 42.6578 35.3188 42.1981L34.609 39.7498C34.6609 39.5625 34.6785 39.367 34.6609 39.1732C34.6263 38.9248 34.5095 38.4812 34.5095 38.4812C34.5095 38.4812 34.8341 38.4236 34.8687 38.1752C34.8696 37.9419 34.8508 37.7089 34.8124 37.4789C34.8124 37.4301 35.1327 36.3656 35.15 36.2857C35.1674 36.2059 35.3751 35.5539 35.3751 35.5539L36.0936 38.2151L36.5264 38.3083C36.4573 39.0387 36.5445 39.7759 36.7818 40.4683C37.0454 41.0689 37.394 41.6263 37.8163 42.1227C37.8163 42.1227 37.8163 42.6194 37.8899 42.7392C37.9826 42.9891 38.0579 43.2456 38.1149 43.5065C38.1353 43.9898 38.1859 44.4713 38.2664 44.948C38.4179 45.4137 37.7384 46.7222 38.0587 47.0504C38.2877 47.3578 38.4891 47.6859 38.6603 48.0306C38.8324 48.2107 38.9613 48.4294 39.0368 48.6693C38.8272 49.1291 38.5872 49.5737 38.3183 49.9999H41.6122L41.4823 48.5096C41.5625 48.3699 41.6264 48.221 41.6728 48.0661C41.7074 47.8931 41.6728 46.0081 41.6728 45.4315C41.6728 44.8549 40.7682 42.2513 40.6383 41.7146C40.5085 41.178 40.4306 40.8675 40.5431 40.6901C40.6556 40.5126 40.2618 39.1687 40.2618 39.1687C40.2618 39.1687 40.7335 38.7651 40.6383 38.5744C40.5431 38.3837 40.1665 37.7893 40.1665 37.7893C40.1665 37.7893 40.3743 37.0797 40.3916 36.9821C40.4089 36.8845 40.937 36.0374 40.7508 35.208C40.6039 34.7094 40.3756 34.24 40.0756 33.8197C40.0367 33.6467 39.7943 32.9947 39.9068 32.9725C40.0194 32.9503 40.4868 32.937 40.5994 32.9149C40.7119 32.8927 41.5602 32.4359 41.5602 32.4359C41.5213 32.2407 42.1229 32.9725 42.1229 32.9725V33.5403C42.1229 33.5403 41.4867 33.7132 41.4477 33.904C41.4087 34.0947 41.6338 38.7562 41.6338 38.7562C41.6338 38.7562 43.5469 38.947 43.798 38.7562C44.049 38.5655 43.798 33.66 43.798 33.66L43.1011 33.5269L43.1228 33.1056C43.1228 33.1056 43.3651 33.0834 43.4257 32.9149C43.4863 32.7463 43.798 32.9149 43.8196 32.6532C43.8413 32.3915 44.075 32.285 44.0793 32.152C44.1313 31.9304 44.1313 31.6994 44.0793 31.4778C43.9004 31.0259 43.6584 30.6031 43.3608 30.2226ZM40.8201 13.8783L42.4778 14.0468L40.8201 14.2242V13.8783ZM32.869 18.358C32.657 18.5294 32.4627 18.7226 32.289 18.9346C32.0207 19.2628 31.3844 20.11 31.3844 20.11C31.3844 20.11 30.5967 20.4204 30.2937 20.5535C29.9907 20.6866 29.428 21.6535 29.428 21.6535L28.7139 21.2099L28.4585 20.4604C28.5168 20.2148 28.6117 19.9799 28.7398 19.764C29.0342 19.5661 29.357 19.4164 29.6964 19.3205C29.8973 19.1085 30.1113 18.91 30.337 18.7261C30.4841 18.6241 30.337 18.2826 30.337 18.2826L30.7698 17.258L32.631 16.9076L32.9513 17.1959L32.869 18.358ZM33.6568 17.8745C33.6701 17.6013 33.7136 17.3305 33.7866 17.0673H34.4618V17.6084L33.6568 17.8745ZM41.162 25.9469C41.0802 26.2498 41.0494 26.5648 41.0711 26.8783H40.1319L40.2964 24.3191C40.2964 24.3191 41.1144 25.1796 41.162 25.2506C41.2097 25.3215 41.2832 25.8094 41.162 25.9469Z" fill="black"/>
<path d="M44.668 26.8783L44.6908 26.8515V26.8247L44.668 26.8783Z" fill="black"/>
<path d="M56.4799 18.633C56.4593 18.3794 56.4902 18.1241 56.5707 17.8834C56.6703 17.6838 57.3195 17.3955 57.5316 17.2403C57.7442 17.091 57.9414 16.9202 58.1203 16.7302C58.0779 16.403 57.9688 16.0887 57.8 15.8076C57.614 15.9094 57.4347 16.0235 57.2633 16.1492C56.8929 16.4096 56.4856 16.6101 56.0557 16.7435C56.0557 16.4419 56.1293 16.1359 56.1596 15.8298C56.1985 15.3331 56.2591 14.8363 56.3414 14.344C56.8304 13.9004 57.4451 14.2641 57.8606 13.9359C57.9076 13.8474 57.9328 13.7484 57.9342 13.6476C57.9426 13.6127 57.9426 13.5761 57.9342 13.5412C57.9205 13.5087 57.8998 13.4799 57.8736 13.4569C57.6701 13.2972 56.9819 13.5279 56.7266 13.5722C56.6638 13.5856 56.5989 13.5856 56.5361 13.5722C56.4714 13.5643 56.4093 13.5416 56.3543 13.5057C56.3157 13.4011 56.3023 13.2885 56.3154 13.1775C56.2375 13.0932 56.1682 13.0045 56.0946 12.9158C56.1552 12.4722 56.2245 12.0287 56.2981 11.5586C56.3284 11.3146 56.363 11.0662 56.4019 10.8179L56.4279 10.6671C56.4972 10.4187 56.6487 9.96626 56.4972 9.72675C56.4925 9.70521 56.4801 9.68624 56.4625 9.67353C56.4463 9.65896 56.4271 9.64834 56.4063 9.64248C56.3849 9.63806 56.3628 9.63806 56.3414 9.64248C56.3219 9.65059 56.3042 9.66266 56.2894 9.67796C56.1163 9.81989 56.1336 10.1215 56.1249 10.3211C56.1163 10.5207 56.0773 10.6715 56.06 10.84L56.0297 11.1328C55.9561 11.6162 55.9128 12.4279 55.5969 12.8093C55.3978 12.9158 55.0342 12.8093 54.9 12.9468C54.9 13.0799 55.0082 13.1597 55.0948 13.2396L55.1208 13.2617C55.0039 13.3283 54.8914 13.3992 54.7788 13.4746C54.8784 13.7363 55.0732 13.9448 55.1814 14.202C55.1338 14.4726 55.0948 14.7387 55.0645 15.0093C54.8493 14.9838 54.6315 14.9943 54.4196 15.0403C54.2162 15.3286 54.4585 15.6347 54.2378 15.883C54.1973 15.9235 54.165 15.9717 54.1426 16.025C54.0979 16.287 54.079 16.553 54.0863 16.8189C54.0723 17.0872 54.0391 17.354 53.9868 17.6173C54.1123 17.6927 54.2941 17.7947 54.333 17.9455C54.3418 17.9759 54.3418 18.0082 54.333 18.0386C54.3263 18.0707 54.3131 18.1009 54.2941 18.1273C54.2202 18.2127 54.1341 18.2859 54.0387 18.3447C53.9051 18.4487 53.7965 18.5827 53.7215 18.7365C53.6464 18.8904 53.6069 19.0598 53.6059 19.2317H52.9696C52.8379 19.1619 52.7192 19.0688 52.619 18.9567C52.6883 18.8592 52.8138 18.7261 52.7965 18.593C52.7792 18.46 52.2987 18.1806 52.1602 18.0963L51.7274 17.8346C51.9306 17.8066 52.1255 17.734 52.2987 17.6217C52.4233 17.325 52.5049 17.0112 52.5411 16.6903C52.5816 16.5222 52.6307 16.3563 52.6883 16.1935C53.0825 15.9848 53.3799 15.6243 53.515 15.1911C53.5496 14.9827 53.4414 14.7831 53.476 14.5923C53.5107 14.4016 53.6708 14.3617 53.7184 14.2198C53.732 13.8121 53.6441 13.4077 53.463 13.0444C53.4016 12.9593 53.3235 12.8883 53.2336 12.8359C53.1462 12.7824 53.049 12.7477 52.948 12.7339C52.7359 12.7073 52.5151 12.7605 52.3074 12.7339C52.0996 12.7073 51.8443 12.5787 51.6105 12.5299C51.225 12.4544 50.8281 12.4635 50.4462 12.5565C50.0656 12.6514 49.7097 12.83 49.4031 13.0799C49.1798 13.2739 48.978 13.4926 48.8015 13.7319C48.7209 13.7292 48.6407 13.744 48.5661 13.7753C48.4915 13.8067 48.4242 13.8538 48.3686 13.9137C48.3301 13.9684 48.3021 14.0301 48.2864 14.0956C48.2735 14.1615 48.2735 14.2293 48.2864 14.2952C48.3186 14.4489 48.3695 14.5979 48.4379 14.7387C48.5689 15.1547 48.5489 15.6051 48.3816 16.0072C48.8139 16.3753 49.1902 16.8073 49.4983 17.289C49.387 17.3447 49.2668 17.3793 49.1434 17.3911C49.1531 17.5272 49.1384 17.664 49.1001 17.7947C48.9313 17.9011 48.4379 17.7459 48.2345 17.7503C48.0298 17.7592 47.828 17.8027 47.6372 17.879C47.5372 17.9184 47.4491 17.9842 47.3818 18.0697C47.2563 18.2515 47.2736 18.5132 47.1654 18.6951C47.0572 18.8769 46.91 18.9834 46.8148 19.1386C46.6114 19.4402 46.4685 19.7862 46.2651 20.0922C46.0617 20.3982 45.8323 20.6378 45.6245 20.9305C45.4167 21.2232 45.3345 21.5559 45.1917 21.853L44.7069 26.794V26.8162V26.8384V26.9493C44.7329 26.9094 44.7069 26.9182 44.7675 26.9094C44.8242 27.1226 44.8604 27.3409 44.8757 27.5614C44.9277 27.8363 45.0185 28.1025 45.0705 28.373C45.1143 28.8094 45.1939 29.2411 45.3085 29.6637C45.4384 30.0052 45.8106 29.9254 46.066 30.0718C46.1028 30.0895 46.1342 30.1171 46.1569 30.1516C46.1794 30.1873 46.1914 30.2289 46.1915 30.2714C46.1752 30.4219 46.1448 30.5704 46.1006 30.7149C45.9824 31.1343 45.9602 31.576 46.0357 32.0056C46.1131 32.1887 46.2429 32.3433 46.4079 32.4491C46.85 32.7597 47.3303 33.0087 47.8363 33.1898C47.8008 33.5092 47.7114 33.8199 47.5722 34.108C47.4424 34.2987 47.2303 34.3918 47.1394 34.618C47.0355 34.9108 47.0442 36.6095 47.2 36.8357C47.2532 36.8985 47.3143 36.9537 47.3818 36.9998C47.6279 37.1798 47.8175 37.4296 47.9272 37.7183C47.621 38.5935 47.3837 39.4923 47.2173 40.4062C47.1663 40.7549 47.0657 41.0941 46.9187 41.413C46.7797 41.8851 46.667 42.3649 46.5811 42.8501C46.5811 42.9654 46.5551 43.0851 46.5464 43.2049C46.5464 43.2537 46.5464 43.3025 46.5464 43.3513C46.5464 43.4 46.5464 43.5198 46.5464 43.6041C46.5464 43.6883 46.5464 43.8347 46.5464 43.95C46.3471 44.0508 46.1755 44.201 46.047 44.3868C45.9185 44.5727 45.8373 44.7884 45.8106 45.0145C45.737 45.2762 45.5985 45.7375 45.737 45.977C45.8755 46.2165 46.4599 46.4205 46.7672 46.5092C46.6503 46.9528 46.6849 47.4407 46.607 47.9108C46.5724 48.106 46.4209 48.2612 46.3776 48.4519C46.3465 48.6428 46.3263 48.8353 46.317 49.0285C46.2824 49.339 46.2261 49.6495 46.2088 49.9644H49.2386C49.2344 49.8891 49.2214 49.8147 49.1997 49.7426C49.1997 49.6983 49.1694 49.6539 49.1521 49.6096C49.133 49.5696 49.1113 49.5311 49.0871 49.4942C49.0632 49.4561 49.0357 49.4204 49.0049 49.3878L48.9097 49.2946C48.8284 49.2286 48.7431 49.1678 48.6543 49.1128C48.5303 48.3525 48.4882 47.5806 48.5288 46.8108C48.6267 46.765 48.7196 46.7085 48.8058 46.6423C49.2689 46.252 49.4897 45.0323 49.7494 44.8682C49.7494 45.1964 49.5676 45.4004 49.481 45.6976C49.6282 45.7951 49.9917 45.9459 50.0264 46.1411C50.1086 46.5846 49.7191 48.3322 49.6282 48.9265C49.5762 49.2813 49.5416 49.6362 49.5243 49.9954H54.8481C54.909 49.9093 54.9517 49.8111 54.9736 49.7071C54.9996 49.6024 54.9996 49.4926 54.9736 49.3878C54.9671 49.2888 54.9411 49.1922 54.8972 49.1038C54.8533 49.0154 54.7924 48.937 54.7182 48.8733C54.4888 48.7136 54.0647 48.7801 53.7877 48.718C53.2995 48.5672 52.8541 48.2979 52.4892 47.933C52.3493 47.8215 52.2242 47.6917 52.1169 47.5471C52.0481 47.4358 51.9997 47.3125 51.9741 47.1834C51.9037 46.8739 51.8717 46.5564 51.8789 46.2387C52.2122 45.9238 52.5454 45.9193 52.5714 45.3516C52.5714 45.1831 52.5714 45.0101 52.5714 44.8415C52.6017 44.4911 52.8008 42.6904 52.7575 42.5085C52.6959 42.3642 52.606 42.2344 52.4935 42.1271C52.6969 41.9319 52.9263 41.7501 53.0951 41.5372C53.5269 41.02 53.7809 40.3717 53.818 39.6921C53.8224 39.5117 53.8049 39.3314 53.766 39.1554C53.718 39.0467 53.6846 38.9318 53.6665 38.8139C53.6687 38.7717 53.6806 38.7307 53.7011 38.6941C53.7184 38.6564 53.7453 38.6243 53.779 38.601C53.9738 38.4191 54.1556 38.3304 54.2811 38.0865C54.5088 38.2302 54.7772 38.2911 55.0429 38.2595C55.0773 38.2505 55.1088 38.2321 55.1338 38.2062C55.1579 38.1806 55.177 38.1505 55.19 38.1175C55.4994 37.0147 55.6966 35.8821 55.7787 34.7378C55.7787 34.6491 55.5493 33.5535 55.5146 33.456C55.5013 33.4306 55.4853 33.4068 55.467 33.385C55.4439 33.3665 55.4174 33.3529 55.3891 33.3451C55.2789 33.3029 55.1575 33.3029 55.0472 33.3451C54.9605 33.4565 54.8877 33.5787 54.8308 33.7088H54.8005C54.5235 32.6354 54.9736 31.1496 54.887 29.9831C54.8225 29.4562 54.711 28.9366 54.5538 28.4307C54.4885 28.2401 54.4463 28.042 54.4282 27.8408L54.4585 27.8053C54.694 27.8277 54.9281 27.8633 55.1597 27.9117C55.2328 27.8518 55.3146 27.8039 55.4021 27.7698C55.7354 27.6767 56.0514 27.8186 56.1336 27.3529C56.1705 26.9 56.1791 26.4452 56.1596 25.9912C57.0512 25.2727 56.9084 24.7493 57.4321 23.9288V22.9486H57.4451C57.4309 22.9525 57.4159 22.9525 57.4018 22.9486C57.238 22.8252 57.1107 22.6579 57.0339 22.4651C57.0937 22.0136 57.1922 21.5684 57.3282 21.1345C57.4937 20.7588 57.6382 20.3738 57.761 19.9813C57.7977 19.8716 57.8112 19.7552 57.8008 19.6398C57.7903 19.5244 57.7561 19.4125 57.7004 19.3116C57.3937 18.9332 56.9566 18.6902 56.4799 18.633ZM47.7237 30.3246C47.6285 30.0895 47.7237 29.881 47.6588 29.6726C47.5939 29.4641 47.4467 29.402 47.3645 29.2601V29.2335C47.335 28.983 47.3496 28.7291 47.4078 28.4839C47.4294 28.4396 47.4554 28.4351 47.4987 28.4263C47.7252 28.4125 47.9496 28.4782 48.1349 28.6125C48.145 29.001 48.1027 29.3891 48.0094 29.7657C48.0549 29.7548 48.1023 29.7548 48.1479 29.7657C48.1921 29.7789 48.2323 29.8033 48.2648 29.8367C48.3816 29.9831 48.3037 30.2536 48.2648 30.4266C48.3656 30.5241 48.4556 30.6327 48.5331 30.7504C48.4509 30.8258 48.3037 31.0254 48.1912 31.0476C48.1392 30.9943 48.1566 31.0254 48.1349 30.9588C48.0181 30.7415 47.8146 30.5597 47.7237 30.3246Z" fill="black"/>
<path d="M8.28002 29.8101C8.21077 29.8589 7.61346 30.2537 6.71751 30.7728C5.82155 31.2919 4.46247 32.0283 3.12503 32.6495C2.57533 32.9112 2.02131 33.1552 1.4846 33.3815L1.52356 32.96L2.96055 32.2945L6.61363 30.582C7.55287 30.1339 8.20211 29.8456 8.28002 29.8101Z" fill="black"/>
<path d="M1.75296 35.248L1.32013 35.4699V35.3368L1.75296 35.248Z" fill="black"/>
<path d="M2.90861 41.2005C2.79156 41.294 2.68026 41.3947 2.57533 41.5022C2.72223 41.4834 2.86711 41.4507 3.00816 41.4046C3.30735 41.3156 3.59729 41.1967 3.87382 41.0497C4.15508 40.9045 4.42307 40.7338 4.67455 40.5395C4.79252 40.4472 4.9039 40.3464 5.00783 40.2378C4.86114 40.2556 4.71629 40.2868 4.575 40.331C4.27664 40.4242 3.98695 40.5445 3.70934 40.6903C3.42808 40.8355 3.16009 41.0062 2.90861 41.2005Z" fill="black"/>
<path d="M79.9911 38.6544C80.4975 38.3439 81.0775 37.9801 81.7224 37.6074C81.7224 37.7405 81.7224 37.8781 81.7224 38.0112C81.1468 38.3217 80.5971 38.6057 80.121 38.8585C79.0476 39.422 78.2944 39.7813 78.2036 39.8257C78.2641 39.768 78.961 39.2933 79.9911 38.6544Z" fill="black"/>
<path d="M90.1583 32.9814C90.0761 33.0391 89.3792 33.5094 88.3448 34.1483C87.7907 34.4854 87.1545 34.8936 86.4533 35.3018L85.0855 36.1003V35.6567L86.2888 34.9868C86.9943 34.5875 87.6695 34.2503 88.2365 33.9486C89.31 33.3852 90.0674 33.0258 90.1583 32.9814Z" fill="black"/>
<path d="M90.5738 28.1025C90.5738 28.2312 90.5738 28.3643 90.5738 28.493L88.5742 29.713C87.1501 30.5648 86.1633 31.1283 86.0464 31.1948C86.1546 31.115 87.0852 30.4495 88.4573 29.5178L90.5738 28.1025Z" fill="black"/>
<path d="M101.905 21.0542L101.299 21.4977C100.866 21.7949 100.252 22.2296 99.4944 22.7441C98.7369 23.2586 97.9102 23.8219 96.984 24.4251L94.084 26.3145L93.5084 26.6782C93.3872 26.625 93.3482 26.5186 93.3309 26.3101L93.872 25.9597L96.7979 24.1235C97.7328 23.5336 98.6244 23.0102 99.3732 22.5489C100.122 22.0876 100.706 21.755 101.148 21.5022L101.905 21.0542Z" fill="black"/>
<path d="M66.5907 33.0702L64.7296 34.2988C63.7038 34.973 62.665 35.6294 61.8902 36.1262C61.1155 36.6229 60.648 36.8891 60.5917 36.9245C60.6437 36.8757 61.0895 36.481 61.769 35.9355C62.4486 35.3899 63.5003 34.6314 64.5218 33.9617C65.2144 33.5182 65.9285 33.0746 66.5691 32.7109L66.5907 33.0702Z" fill="black"/>
<path d="M66.9673 37.0131C66.8072 37.0974 66.6384 37.1773 66.4696 37.2482C66.3063 37.3201 66.1385 37.3808 65.9675 37.4301C66.0843 37.2956 66.2101 37.1696 66.344 37.053C66.5301 36.8933 66.7249 36.738 66.9283 36.6094L66.9673 37.0131Z" fill="black"/>
<path d="M45.4341 43.7108C44.6247 44.0923 43.8369 44.5315 43.2699 44.8643C42.7029 45.197 42.309 45.4543 42.309 45.4543C42.309 45.4543 42.7419 45.3257 43.3651 45.0684C43.9884 44.811 44.8151 44.4694 45.6159 44.079C46.4166 43.6886 47.213 43.2627 47.78 42.9255C48.347 42.5883 48.7409 42.3354 48.7409 42.3354C48.7409 42.3354 48.308 42.4685 47.6848 42.7214C47.0615 42.9743 46.2391 43.3204 45.4341 43.7108Z" fill="black"/>
<path d="M47.8449 4.86529C48.6846 4.47498 49.5286 4.08467 50.325 3.73427L52.4892 2.7718L54.6144 1.83594C54.6144 1.83594 53.7227 2.09763 52.4026 2.5589C51.7447 2.79841 50.9786 3.06897 50.1735 3.41049C49.3685 3.75202 48.5115 4.11572 47.6588 4.49716C46.8061 4.8786 45.9794 5.31327 45.2003 5.71245C44.4213 6.11163 43.7114 6.51525 43.1054 6.86121C41.8892 7.56643 41.1101 8.08537 41.1101 8.08537L43.205 7.06523L45.3692 6.03179C46.1569 5.64591 47.0009 5.23786 47.8449 4.86529Z" fill="black"/>
<path d="M50.0437 10.1751C49.3337 10.4673 48.6464 10.8143 47.9878 11.2133C47.6892 11.3924 47.4002 11.5879 47.1221 11.7989C47.1221 11.7989 47.516 11.6569 48.0873 11.4174L50.1909 10.53L52.2944 9.67379C52.8657 9.43865 53.251 9.26562 53.251 9.26562C52.9076 9.31011 52.5667 9.3723 52.2295 9.45196C51.4844 9.63695 50.7537 9.87868 50.0437 10.1751Z" fill="black"/>
<path d="M26.1775 0.00887501C25.7793 0.33718 25.4027 0.63443 25.0738 0.896187C24.4072 1.4197 23.9311 1.75688 23.8705 1.7835C23.9181 1.73026 24.3034 1.29991 24.931 0.709845C25.156 0.492454 25.4027 0.266193 25.6754 0L26.1775 0.00887501Z" fill="black"/>
<path d="M6.12886 10.8805C6.79974 10.4147 7.42734 9.9178 7.91644 9.52739C8.40554 9.13697 8.68688 8.85303 8.68688 8.85303C8.68688 8.85303 8.31031 9.03049 7.78659 9.33662C7.26287 9.64274 6.57034 10.0731 5.89946 10.5389C5.22857 11.0048 4.60097 11.5017 4.11187 11.8921C3.62278 12.2825 3.34144 12.5664 3.34144 12.5664C3.34144 12.5664 3.71367 12.389 4.23307 12.0784C4.75246 11.7678 5.45797 11.3464 6.12886 10.8805Z" fill="black"/>
<path d="M203.088 41.3603C203.231 41.3776 203.376 41.3865 203.521 41.3869C203.402 41.2948 203.276 41.2131 203.144 41.1429C202.867 40.988 202.578 40.8589 202.278 40.7569C201.977 40.6558 201.667 40.583 201.352 40.5395C201.208 40.5215 201.064 40.5141 200.919 40.5173C201.039 40.6079 201.165 40.6895 201.296 40.7613C201.852 41.0726 202.459 41.2757 203.088 41.3603Z" fill="black"/>
<path d="M191.536 25.814C191.657 25.8361 192.583 26.0003 193.959 26.2842V26.4928C192.579 26.1201 191.657 25.8495 191.536 25.814Z" fill="black"/>
<path d="M206.637 29.2426C206.641 29.3298 206.641 29.4172 206.637 29.5044L204.326 29.0075L201.144 28.3021V27.8584L204.391 28.6525L206.637 29.2426Z" fill="black"/>
<path d="M122.928 34.3041L122.642 34.2242L120.205 33.5454L117.781 32.8134C117.015 32.5827 116.297 32.3343 115.678 32.139C114.531 31.7575 113.747 31.4647 113.652 31.4292C113.752 31.4292 114.57 31.6244 115.743 31.9172C116.366 32.0814 117.098 32.2544 117.872 32.4718L120.305 33.1506L122.729 33.8826L122.863 33.9225C122.885 34.0689 122.906 34.1754 122.928 34.3041Z" fill="black"/>
<path d="M100.659 32.0588C100.659 32.152 100.659 32.2407 100.659 32.3295L99.9359 32.1387C98.3431 31.695 97.2524 31.3978 97.1225 31.3623C97.2567 31.3623 98.3734 31.5841 99.9835 31.9169L100.659 32.0588Z" fill="black"/>
<path d="M115.34 35.6652L114.838 35.572C114.34 35.4789 113.514 35.3192 112.479 35.1284L109.549 34.4984C109.549 34.383 109.579 34.2677 109.597 34.1523H109.623L112.527 34.9021C113.544 35.1683 114.353 35.399 114.843 35.5365L115.34 35.6652Z" fill="black"/>
<path d="M175.69 9.11528L174.742 8.78697C173.902 8.47641 173.075 8.13036 172.461 7.85529C172.21 7.74438 171.998 7.64234 171.833 7.55361L171.452 7.3584C171.452 7.3584 171.76 7.42051 172.244 7.55361L172.534 7.6379C173.184 7.82868 174.036 8.08156 174.876 8.40543C175.153 8.50747 175.426 8.60951 175.69 8.71598C175.685 8.84908 175.685 8.98218 175.69 9.11528Z" fill="black"/>
<path d="M157.71 33.9842C157.706 34.0462 157.706 34.1085 157.71 34.1705L157.065 33.9886C156.394 33.7979 155.611 33.5672 154.788 33.2832C153.966 32.9993 153.221 32.7331 152.412 32.4358C152.412 32.2939 152.412 32.1475 152.412 31.9922C153.278 32.3249 154.1 32.6532 154.901 32.9372L157.134 33.7579L157.71 33.9842Z" fill="black"/>
<path d="M135.558 17.3247C135.826 17.3913 136.1 17.4314 136.376 17.4445C136.503 17.4555 136.63 17.4555 136.757 17.4445C136.652 17.3667 136.542 17.297 136.428 17.236C136.179 17.113 135.92 17.0149 135.653 16.9432C135.386 16.8762 135.114 16.8376 134.839 16.8278C134.711 16.8146 134.582 16.8146 134.454 16.8278C134.56 16.9043 134.671 16.9725 134.787 17.0319C135.034 17.1555 135.292 17.2536 135.558 17.3247Z" fill="black"/>
<path d="M103.875 8.38721C104.03 8.40939 105.229 8.59129 107 8.89741C106.995 8.96684 106.995 9.03649 107 9.10593C105.225 8.70664 104.026 8.4227 103.875 8.38721Z" fill="black"/>
<path d="M119.158 11.2219L119.223 11.6079L115.505 10.8936L112.726 10.3258C112.726 10.2015 112.761 10.0817 112.774 9.95752L115.578 10.4943L119.158 11.2219Z" fill="black"/>
<path d="M127.208 13.0002L126.455 12.8804C126.453 12.8613 126.453 12.8419 126.455 12.8228L127.208 13.0002Z" fill="black"/>
</svg>
