<svg width="210" height="50" fill="none" xmlns="http://www.w3.org/2000/svg"><path d="M140.574 32.418c-.034-4.604-.066-9.208-.095-13.812v-.505h-.052v-7.27a9.02 9.02 0 0 0-.095-1.229c-.212-1.49-.866-2.093-2.376-2.075-1.026 0-2.056.07-3.082.084-1.879.022-3.74.022-5.627.04-.602 0-1.208.07-1.8.031-.797-.053-1.096.16-1.078.99 0 1.387.043 2.78.073 4.168a690.477 690.477 0 0 0 .096 4.373c.043 1.708.129 3.411.173 5.123.03 1.331 0 2.688 0 4.023 0 1.726.052 3.451.073 5.18.022 1.252.044 2.493.057 3.74V41.82c0 .617.155.887.748.94.377.027.745.027 1.113.027l8.717-.089c2.22-.022 3.198-1.015 3.19-3.295-.009-2.28-.017-4.662-.035-6.986Zm-5.272 4.879a.397.397 0 0 1-.104.177.382.382 0 0 1-.177.107c-.805.062-1.623.088-2.536.133v-2.661c0-1.819-.057-3.637-.07-5.456V22.91c-.017-3.253-.037-6.492-.06-9.718 0-.612.043-.675.649-.683.433 0 .896 0 1.346.049.593.048.801.323.792.93v2.258l.026 1.092v.359c.035 1.29.074 2.577.091 3.867.048 3.89.074 7.776.104 11.665 0 1.176.026 2.342.026 3.513.001.36-.028.72-.087 1.074v-.018ZM176.04 41.892c0 .364-.112.492-.48.497-1.42.026-2.835.08-4.251.133-.779.026-.973-.164-.965-.887.031-1.85.065-3.7.061-5.549 0-2.847-.039-5.7-.061-8.547v-.568c-1.155-.248-2.285-.022-3.462 0v1.118c.03 1.229.103 2.462.108 3.695 0 2.368-.026 4.737-.043 7.096 0 .98-.035 1.96 0 2.945 0 .444-.195.71-.611.71-1.376 0-2.753-.044-4.129-.089a.377.377 0 0 1-.29-.226c-.09-.3-.143-.61-.156-.922V27.056c-.363 0-.671-.023-.978 0-.381.03-.576-.142-.589-.497a280.544 280.544 0 0 1-.168-4.693c0-.368.242-.483.554-.488h1.034c0-.186.026-.328.022-.443l-.199-13.014c0-.323.112-.408.398-.421 1.424-.058 2.839-.133 4.263-.19.61-.027.667.03.667.651v13.417h1.463c.48 0 1.09-.106 1.631-.08.541.027.65-.204.637-.665 0-.945-.031-1.898-.057-2.847-.08-3.15-.164-6.299-.251-9.448 0-.536.1-.678.611-.745.168-.023.337-.035.506-.035h3.805c.432 0 .588.128.588.594v.98c0 3.992.057 7.962.087 11.94 0 1.41 0 2.821.039 4.227.072 4.643.151 9.286.238 13.932 0 .878-.022 1.77-.022 2.66ZM90.773 41.914c0 .297-.056.47-.407.475-1.493.026-2.987.088-4.484.128-.623 0-.8-.195-.8-.856V27.136c0-.058 0-.111-.027-.169-1.112-.262-2.242 0-3.346 0-.043.053-.077.075-.077.102.021 1.535.051 3.07.064 4.6 0 .443-.043.887-.038 1.33 0 .28.077.563.077.843 0 1.255 0 2.515-.034 3.77v.404c0 1.3-.03 2.599-.048 3.898 0 .444-.195.657-.714.657-.991 0-1.978-.036-2.97-.058h-.324c-1.078-.035-1.207-.182-1.177-1.3V27.087h-1a.465.465 0 0 1-.412-.108.487.487 0 0 1-.164-.402c-.064-1.553-.112-3.105-.164-4.649 0-.363.203-.505.528-.51.325-.004.68 0 1.052 0 0-.15.034-.275.034-.386-.063-4.355-.13-8.71-.199-13.066 0-.337.104-.444.433-.444 1.42-.057 2.84-.133 4.26-.19.584-.027.64.035.644.63v13.35h3.394c.116 0 .311-.297.311-.444 0-1.077 0-2.15-.039-3.229-.078-3.101-.163-6.206-.255-9.314a.576.576 0 0 1 .132-.487.55.55 0 0 1 .46-.183c.788-.035 1.576-.035 2.364-.044.65 0 1.299.022 1.948 0 .459 0 .614.133.614.621.035 5.57.078 11.145.13 16.721 0 1.07.026 2.134.048 3.203v.39c.056 3.588.125 7.18.186 10.77v2.598ZM193.955 25.348c-.061-3.748-.091-7.496-.216-11.24-.061-1.805.376-3.65-.433-5.41-.143-.306-.221-.657-.502-.786a3.454 3.454 0 0 0-1.351-.39c-1.437-.053-2.874 0-4.328 0-1.679 0-3.363-.022-5.047 0a1.92 1.92 0 0 0-1.315.466c-.367.316-.608.76-.676 1.246-.161.854-.246 1.721-.255 2.59 0 1.455.056 2.91.073 4.365.031 2.546.039 5.096.074 7.638.022 1.33.078 2.687.104 4.027.066 2.723.124 5.445.173 8.165 0 .541-.026 1.083-.035 1.628a13.665 13.665 0 0 0 0 2.289c.273 1.685.992 2.413 2.416 2.661.285.053.575.083.865.089 2.532-.022 5.064-.031 7.596-.098a2.843 2.843 0 0 0 1.948-.838 3 3 0 0 0 .866-1.974c.043-.705 0-1.42 0-2.133v-9.63h.043v-1.712c.004-.328.004-.66 0-.953Zm-5.77 11.869h-1.947c-.52 0-.688-.186-.693-.727v-4.218h-.065v-5.017c-.043-4.58-.095-9.163-.156-13.75 0-.785 0-.785.767-.793.657 0 1.298 0 1.973-.036.468 0 .585.107.572.586 0 .7-.044 1.401-.039 2.098.049 6.39.102 12.778.16 19.165 0 .665.069 1.33.078 1.987.008.54-.143.705-.65.705ZM124.04 41.258a895.3 895.3 0 0 0-.766-4.826c-.117-.71-.229-1.42-.346-2.13-.022-.128-.044-.256-.061-.38-.626-3.845-1.251-7.689-1.874-11.533a1522.31 1522.31 0 0 0-1.77-10.782l-.065-.386a589.805 589.805 0 0 0-.528-3.193c-.117-.719-.273-.834-.978-.785l-2.779.195-1.783.133c-.104.794-.208 1.592-.316 2.386 0 .124-.031.244-.048.368-1.043 7.926-2.086 15.843-3.129 23.8 0 .116-.031.231-.048.346l-1.06 8.1h5.111c.498 0 .689-.205.71-.684.052-.96.117-1.923.195-2.887.099-1.144.221-2.284.333-3.442v-.097h2.679c.308 2.377.602 4.728.896 7.007h5.277a.424.424 0 0 0 .341-.27c.047-.312.05-.628.009-.94Zm-8.869-10.685c.295-3.22.585-6.338.866-9.457h.191l.891 9.439-1.948.018ZM157.71 34.17v5.558c0 1.663-.714 2.559-2.329 2.825-.52.035-1.042.035-1.562 0-2.407.058-4.809.12-7.22.168a3.624 3.624 0 0 1-.865-.08 1.385 1.385 0 0 1-.926-.503 1.454 1.454 0 0 1-.321-1.022c-.035-1.309 0-2.63 0-3.943h-.117v-3.66c0-.687.113-.824.766-.816 1.204.023 2.407.067 3.61.085a.396.396 0 0 1 .338.106c.045.043.08.095.102.154a.412.412 0 0 1 .027.183c0 1.074.039 2.143.026 3.216 0 .559.109.785.637.82.71.045 1.423.045 2.134 0a.656.656 0 0 0 .432-.483V31.496a.894.894 0 0 0-.225-.444l-.679-.967-6.229-8.747c-.26-.411-.5-.836-.718-1.272-.511-.887-.364-1.837-.377-2.781-.03-2.302 0-4.622-.099-6.924-.095-1.97.922-2.661 2.484-2.745.948-.054 1.905 0 2.853 0 1.943-.027 3.895-.071 5.821-.09.452-.032.901.1 1.269.37.367.272.631.667.744 1.117.034.169.052.341.052.514v6.21a4.252 4.252 0 0 1-.052.563.603.603 0 0 1-.208.434.562.562 0 0 1-.454.13c-1.169 0-2.342.035-3.519.044-.533 0-.637-.111-.645-.675V13.47c0-.612-.044-.652-.628-.652h-2.082c-.398 0-.593.147-.588.59v4.178c.019.232.108.452.255.63 2.367 3.366 4.718 6.746 7.133 10.064a5.8 5.8 0 0 1 1.147 3.739c0 .652-.022 1.3-.022 1.951.007.068.018.135.035.2ZM107.06 41.608c0 .82 0 .847-.792.847H96.72a7.114 7.114 0 0 0-1.065.062c-.355.054-.48-.07-.476-.443v-2.426a8875.94 8875.94 0 0 0-.173-12.38c0-.443-.156-.643-.623-.62a2.82 2.82 0 0 1-.866-.023c-.121-.053-.16-.16-.177-.368-.018-.208 0-.372-.022-.67-.03-1.161-.07-2.337-.078-3.508 0-.687.052-.727.701-.727h.836c.03-.55.09-1.065.086-1.584a1079.46 1079.46 0 0 0-.13-9.642c0-.617-.065-1.233-.125-1.84-.06-.608.143-.857.692-.861h4.225c2.328 0 4.661.035 6.99.03.389 0 .498.13.498.524v.887a1.45 1.45 0 0 0 0 .209v3.034c0 .377-.061.616-.498.403a.567.567 0 0 0-.229-.022h-5.562c-.295 0-.403.084-.399.408.048 2.661.078 5.287.113 7.93 0 .661 0 .63.636.613h.234c1.675-.04 3.341-.054 5.008-.085.311 0 .402.151.407.444.026 1.37.043 2.75.095 4.12 0 .444-.195.657-.593.67a92.96 92.96 0 0 1-2.731.058h-2.926c.034 1.805.069 3.588.099 5.37v.271c.035 1.681.065 3.358.1 5.048H106.324c.736 0 .71 0 .706.767-.017 1.215.013 2.369.03 3.504ZM209.991 12.525c0 .524-.173.64-.71.64h-2.718c.026.443.07.802.065 1.175 0 1.871-.065 3.739-.073 5.606 0 1.082.073 2.178.073 3.255v6.041c.005.088.005.175 0 .262V41.95c0 .297-.06.443-.372.443-1.485.036-2.969.089-4.449.111-.472 0-.654-.226-.658-.785v-1.033a.9.9 0 0 1 0-.164V19.937c0-2.151-.109-4.307-.169-6.458a1.747 1.747 0 0 0-.026-.204h-3.294c-.377 0-.563-.142-.58-.497-.043-.927-.069-1.854-.104-2.785 0-.599-.039-1.202-.052-1.8-.013-.6.113-.662.658-.604.377.04.755.058 1.134.053 2.84-.02 5.677-.047 8.514-.08h2.086a.577.577 0 0 1 .494.166.62.62 0 0 1 .177.5c.009 1.446.022 2.874.004 4.297ZM68.101 49.995H0L1.298 35.47l.013-.133.174-1.956.039-.42 1.822-20.4L4.466.01h59.177L66.56 32.71l.03.359.317 3.526.039.417L68.1 49.995Z" fill="#F69D14"/><path d="M27.38 26.82a5.252 5.252 0 0 1-.796 1.535l-.627.262c.189.58.334 1.172.433 1.774.05.867.05 1.737 0 2.604-.1.443.151.945.1 1.428-.053.483-.434-.78-.434-.78l-1.168.332s-.091.52 0 .568c.09.049.173.603.173.603l.645-.51.502.204-.052.887s.273.28.173.386a5.974 5.974 0 0 0-.299 1.069v1.685l-.52.524-.64-.28a2.367 2.367 0 0 1-.402.484c-.152.102.398.842.151.971-.246.129-.303.945-.303.945.226.753.411 1.519.554 2.293.044.537.07 3.424-.177 4.063a17.71 17.71 0 0 0-.433 2.04.33.33 0 0 0 0 .093h-2.307v-1.29a.434.434 0 0 1-.216-.17.389.389 0 0 1-.06-.265c.051-.333 0-3.5 0-3.726 0-.226.042-.971 0-1.073a.731.731 0 0 1 0-.306 17.906 17.906 0 0 1-.892-2.4 1.935 1.935 0 0 1 .147-.914 5.743 5.743 0 0 1-.299-1.18v-.887l-.325-.558c.13-.386-.324-1.025-.324-1.025s-.399.28-.433.381c-.035.103-.398 1.89-.645 1.961-.247.07-.433 1.61-.558 1.84-.126.231.484 2.728.307 2.808-.178.08.502 1.122.199 2.067a15.656 15.656 0 0 0-.372 2.959l-.35.443s.35.914.211 1.175c-.026.05-.052.098-.082.147h-4.15v-.4l1.544-1.281s.074-2.577.126-3.105c.052-.528.104-.998.104-.998l-.026-.444s-.65-.842-.628-1.33a2.861 2.861 0 0 0-.095-.887s-.026-2.142 0-2.755a3.2 3.2 0 0 1 .2-.944s-.473-1.54-.274-1.89c.2-.35.433-.79.433-.79l-.476-.203.8-2.067s-.865.022-.895-.182c-.03-.204.255-3.397.255-3.397L13.6 30.67l.866 1.938-.645.35-1.25-1.481s-1.239 1.131-1.416 1.047a3.092 3.092 0 0 1-.545-.537l-.75.333-.255-.306-2.259 1.587-.13.444-.164.169-.385-.262-.719.466-.29-.382.775-.656-.494-.75.256-.15.67.483 3.823-3.105 2-2s.203-.887.549-1.074l1.298-.638s.624-1.428.75-1.584a6.194 6.194 0 0 0 .61-1.632c.051-.404.047-1.406.346-1.504a4.788 4.788 0 0 1 1-.101c.206-.39.459-.75.753-1.074.2-.139.385-.301.55-.483l.172-.488s-.502-.129-.502-.23c.109-.304.234-.6.377-.888l-.238-.643s-.364-.129-.433-.28a7.277 7.277 0 0 1-.078-.887l-.32-.279.173-.306-.545-.23.073-.564h-.255l-.602 1.41s-.792-.08-.865-.359c.298-.767.523-1.25.523-1.25a1.61 1.61 0 0 1 0-.409c.04-.102.663-1.024.663-1.024l.722.133.433.155s.256.049.221.129c-.01.187-.01.375 0 .563l.571.262s.572.71 1.173.261c.602-.448 2.718.56 2.718.56s.645-.444.866-.178c.22.266.701.967.701.967s-.675.949-.575.998c.1.049.748.332.432.443-.316.111-.696.74-.766.714-.069-.026.2.382-.026.408-.225.027-.77.541-.77.541v.284l.524-.142.199.6s1.199.23 1.346.443a.666.666 0 0 1 0 .563l.697 1.175s.432-.332.575 0c.143.333 1.126 1.096 1.07 1.455-.057.36.597 1.07.502 1.45-.096.382.151 1.163.082 1.695ZM43.36 30.223c-.038-.058-.073-1.602-.073-1.602s.71-.474.766-.634a6.101 6.101 0 0 0-.112-1.144l-.732-2.09c.09-.272.11-.564.057-.846-.096-.444-.922-2.444-.922-2.444 0-.326-.043-.65-.13-.963a4.25 4.25 0 0 0-1.013-.443l-.264.27a8.354 8.354 0 0 1-.978-1.082 6.258 6.258 0 0 0-.563-1.078c-.09-.053-1.337-.093-1.39-.155-.051-.062-.207-.169-.15-.226.055-.058.804-.714.804-.714l-.125-.639.411-.386.96-.04.641.27.282 2.218.562-.04-.073-2.217 1.463-.48v-.23l.36-.155v-.23l.787-.174-.056-.443 4.484-.78-.096-.56-5.224.83s-2.463-.484-2.519-.484c-.056 0-1.658.213-1.658.213s-.523-.674-.692-.692c-.169-.017-1-1.117-2.727-.576-1.727.54-1.298 1.175-1.298 1.175l-1.935.209-.186.443h.653l.078.444.433-.133.035.962-1.299.346c-.056 0-1.125.27-1.125.27a3.383 3.383 0 0 0-1.165-.128c-.402.08-3.003.443-3.003.443l.489 2.502-.156.341a.608.608 0 0 0-.022.444l.1.302s0 .386.095.443c.095.058.264.484.264.484l.19 1.148s-.55 0-.55.444c.023.29.144.561.343.767l.433.377c.014.253.094.497.23.707.136.212.324.382.544.495.451.299.984.44 1.52.404.056-.036.528-.288.528-.288s-.078 1.117.207 1.406c.286.288-.246.345-.51 1.1a7.117 7.117 0 0 0-.208 2.27c0 .227-.147 1.7.095 1.868.178.12.374.207.58.261l.628-.692.112.577-.865.639s-.126.83-.126.962c0 .133-.502.076-.528.444a.639.639 0 0 0 .264.528s.338 2.461.355 2.634c.017.173.13.541.255.501.213-.036.426-.061.64-.075 0 0-.432 1.078-.32 1.366.108.448.17.906.187 1.366.034.373.104.741.207 1.1.206.517.544.968.979 1.304 0 0-.113 1.33.09 1.717.204.386.433 3.694.433 3.694a2.656 2.656 0 0 0-.489.639 1.936 1.936 0 0 1-1.052.767c-.212.036-.346.31-.432.546h4.956c0-.732-.135-2.01-.135-2.01a3.94 3.94 0 0 0 .135-.709c0-.213-.511-3.136-.511-3.136s.337-.23.303-.523a10.665 10.665 0 0 0-.567-1.424l-.71-2.448c.052-.188.07-.383.052-.577a8.067 8.067 0 0 0-.151-.692s.324-.057.359-.306c0-.233-.018-.466-.057-.696 0-.049.32-1.113.338-1.193.017-.08.225-.732.225-.732l.719 2.661.432.093c-.069.73.018 1.468.256 2.16.263.6.612 1.158 1.034 1.655 0 0 0 .496.074.616.093.25.168.507.225.768.02.483.07.964.151 1.441.152.466-.528 1.774-.207 2.102.229.308.43.636.601.98.172.18.301.4.377.64-.21.46-.45.904-.719 1.33h3.294l-.13-1.49c.08-.14.144-.289.19-.444.035-.173 0-2.058 0-2.635 0-.576-.904-3.18-1.034-3.716-.13-.537-.207-.848-.095-1.025.113-.177-.281-1.521-.281-1.521s.471-.404.376-.595c-.095-.19-.471-.785-.471-.785s.207-.71.225-.807c.017-.097.545-.945.359-1.774a4.653 4.653 0 0 0-.675-1.388c-.04-.173-.282-.825-.17-.848.113-.022.58-.035.693-.057.113-.022.961-.48.961-.48-.039-.194.563.537.563.537v.568s-.636.173-.675.364c-.04.19.186 4.852.186 4.852s1.913.191 2.164 0c.251-.19 0-5.096 0-5.096l-.697-.133.022-.421s.242-.023.303-.191c.06-.169.372 0 .394-.262.021-.261.255-.368.26-.501a1.476 1.476 0 0 0 0-.674 5.06 5.06 0 0 0-.72-1.255Zm-2.54-16.345 1.658.169-1.658.177v-.346Zm-7.951 4.48a4.006 4.006 0 0 0-.58.577c-.268.328-.905 1.175-.905 1.175s-.787.31-1.09.444c-.303.133-.866 1.1-.866 1.1l-.714-.444-.255-.75c.058-.245.153-.48.28-.696.295-.198.618-.348.957-.444.201-.212.415-.41.641-.594.147-.102 0-.443 0-.443l.433-1.025 1.861-.35.32.288-.082 1.162Zm.788-.483c.013-.274.057-.544.13-.808h.675v.541l-.805.267Zm7.505 8.072a2.825 2.825 0 0 0-.09.931h-.94l.164-2.559s.818.86.866.932c.048.07.121.558 0 .696Z" fill="#000"/><path d="m44.668 26.878.023-.026v-.027l-.023.053ZM56.48 18.633c-.02-.254.01-.509.09-.75.1-.2.75-.488.962-.643.212-.149.41-.32.588-.51a2.389 2.389 0 0 0-.32-.922 4.823 4.823 0 0 0-.537.341c-.37.26-.777.461-1.207.595 0-.302.073-.608.104-.914.039-.497.1-.994.181-1.486.49-.444 1.104-.08 1.52-.408a.634.634 0 0 0 .073-.288.228.228 0 0 0 0-.107.232.232 0 0 0-.06-.084c-.204-.16-.892.07-1.147.115a.456.456 0 0 1-.19 0 .427.427 0 0 1-.183-.066.709.709 0 0 1-.039-.329c-.078-.084-.147-.172-.22-.261.06-.444.13-.887.203-1.357.03-.244.065-.493.104-.741l.026-.15c.07-.25.22-.702.07-.941a.089.089 0 0 0-.035-.053.141.141 0 0 0-.057-.032.16.16 0 0 0-.065 0 .155.155 0 0 0-.052.036c-.173.142-.155.443-.164.643-.009.2-.048.35-.065.519l-.03.293c-.074.483-.117 1.295-.433 1.676-.2.107-.563 0-.697.138 0 .133.108.213.195.293l.026.022c-.117.066-.23.137-.342.213.1.261.294.47.402.727-.047.27-.086.537-.116.807a1.955 1.955 0 0 0-.645.031c-.204.289.038.595-.182.843a.444.444 0 0 0-.095.142 4.059 4.059 0 0 0-.057.794 5.594 5.594 0 0 1-.1.798c.126.076.308.178.347.328a.167.167 0 0 1 0 .094.233.233 0 0 1-.039.088c-.074.086-.16.159-.255.218a1.116 1.116 0 0 0-.318.392 1.145 1.145 0 0 0-.115.495h-.636a1.265 1.265 0 0 1-.351-.275c.07-.098.195-.23.178-.364-.018-.133-.498-.412-.637-.497l-.433-.261c.204-.028.399-.101.572-.213.124-.297.206-.61.242-.932.04-.168.09-.334.147-.497.395-.208.692-.569.827-1.002.035-.208-.074-.408-.039-.599.035-.19.195-.23.242-.372a2.453 2.453 0 0 0-.255-1.176.747.747 0 0 0-.23-.208.738.738 0 0 0-.285-.102c-.212-.027-.433.027-.64 0-.208-.027-.464-.155-.697-.204a2.714 2.714 0 0 0-1.165.027c-.38.094-.736.273-1.043.523a4.041 4.041 0 0 0-.602.652.56.56 0 0 0-.432.182.531.531 0 0 0-.083.182.52.52 0 0 0 0 .2c.033.153.084.302.152.443.13.416.11.866-.056 1.268.432.368.808.8 1.116 1.282-.111.056-.231.09-.355.102.01.136-.005.273-.043.404-.169.106-.662-.05-.866-.045a1.821 1.821 0 0 0-.597.129.61.61 0 0 0-.255.19c-.126.183-.108.444-.217.626-.108.182-.255.288-.35.444-.204.301-.346.647-.55.953-.203.306-.433.546-.64.838-.208.293-.29.626-.433.923l-.485 4.941v.155c.026-.04 0-.03.06-.04.057.214.093.432.109.652.052.275.143.541.195.812.043.436.123.868.238 1.29.13.342.502.262.757.409a.227.227 0 0 1 .09.08.226.226 0 0 1 .035.12 2.4 2.4 0 0 1-.09.443c-.119.42-.14.861-.065 1.29a.979.979 0 0 0 .372.444c.442.31.922.56 1.428.74a2.83 2.83 0 0 1-.264.919c-.13.19-.342.284-.433.51-.104.293-.095 1.991.061 2.218a.914.914 0 0 0 .182.164c.246.18.436.43.545.718a17.789 17.789 0 0 0-.71 2.688 3.676 3.676 0 0 1-.298 1.007c-.14.472-.252.952-.338 1.437 0 .115-.026.235-.035.355v.745c-.199.1-.37.251-.499.437a1.39 1.39 0 0 0-.236.627c-.074.262-.212.723-.074.963.139.24.723.444 1.03.532-.117.444-.082.932-.16 1.402-.035.195-.186.35-.23.54-.03.192-.05.384-.06.578-.035.31-.09.62-.108.935h3.03a.953.953 0 0 0-.04-.221c0-.045-.03-.09-.047-.133a.981.981 0 0 0-.147-.222l-.095-.093a2.464 2.464 0 0 0-.256-.182 10.776 10.776 0 0 1-.125-2.302c.098-.046.19-.102.277-.169.463-.39.684-1.61.943-1.774 0 .328-.181.532-.268.83.147.097.51.248.545.443.083.444-.307 2.191-.398 2.785-.052.355-.086.71-.104 1.07h5.324a.776.776 0 0 0 .126-.289.663.663 0 0 0 0-.32.749.749 0 0 0-.256-.514c-.23-.16-.653-.093-.93-.155a3.153 3.153 0 0 1-1.299-.785 2.072 2.072 0 0 1-.372-.386 1.098 1.098 0 0 1-.143-.364 3.866 3.866 0 0 1-.095-.944c.333-.315.666-.32.692-.887v-.51c.03-.35.23-2.152.187-2.334a1.152 1.152 0 0 0-.265-.38c.204-.196.433-.378.602-.59a3.147 3.147 0 0 0 .723-1.846c.004-.18-.013-.36-.052-.537a1.354 1.354 0 0 1-.1-.341.274.274 0 0 1 .035-.12.23.23 0 0 1 .078-.093c.195-.182.377-.27.502-.514.228.143.496.204.762.172a.195.195 0 0 0 .09-.053.278.278 0 0 0 .057-.089c.31-1.102.507-2.235.589-3.38 0-.088-.23-1.184-.264-1.281a.397.397 0 0 0-.048-.071.477.477 0 0 0-.42-.04c-.087.111-.16.234-.216.364h-.03c-.278-1.074.173-2.56.086-3.726a8.86 8.86 0 0 0-.333-1.552 2.516 2.516 0 0 1-.126-.59l.03-.036c.236.023.47.058.702.107a.896.896 0 0 1 .242-.142c.333-.093.65.049.732-.417.036-.453.045-.908.026-1.362.891-.718.748-1.242 1.272-2.062v-.98h.013a.082.082 0 0 1-.043 0 1.127 1.127 0 0 1-.368-.484 7.93 7.93 0 0 1 .294-1.33c.166-.376.31-.761.433-1.154a.84.84 0 0 0-.06-.67 1.857 1.857 0 0 0-1.221-.678Zm-8.756 11.692c-.095-.235 0-.444-.065-.652-.065-.209-.212-.271-.294-.413v-.027c-.03-.25-.015-.504.043-.75.021-.043.047-.048.09-.057a.982.982 0 0 1 .637.187 4.33 4.33 0 0 1-.126 1.153.297.297 0 0 1 .139 0 .272.272 0 0 1 .117.07c.117.147.039.418 0 .59.1.098.19.207.268.324-.082.076-.23.275-.342.298-.052-.054-.034-.023-.056-.09-.117-.216-.32-.398-.411-.633ZM8.28 29.81c-.07.049-.667.444-1.562.963a47.774 47.774 0 0 1-5.233 2.609l.039-.422 1.437-.666 3.653-1.712c.939-.448 1.588-.736 1.666-.772ZM1.753 35.248l-.433.222v-.133l.433-.089ZM2.909 41.2a3.642 3.642 0 0 0-.334.302c.147-.019.292-.051.433-.097.3-.09.59-.208.866-.355.281-.145.55-.316.8-.51.119-.093.23-.194.334-.302a2.43 2.43 0 0 0-.433.093 5.19 5.19 0 0 0-.866.36c-.28.145-.549.315-.8.51ZM79.991 38.654c.507-.31 1.087-.674 1.731-1.047v.404c-.575.31-1.125.595-1.601.847-1.073.564-1.827.923-1.917.968.06-.058.757-.533 1.787-1.172ZM90.158 32.981c-.082.058-.779.528-1.813 1.167-.554.337-1.19.746-1.892 1.154l-1.368.798v-.443l1.204-.67c.705-.4 1.38-.737 1.948-1.038 1.073-.564 1.83-.923 1.921-.968ZM90.574 28.102v.391l-2 1.22c-1.424.852-2.41 1.415-2.528 1.482.109-.08 1.04-.745 2.411-1.677l2.117-1.416ZM101.905 21.054l-.606.444c-.433.297-1.047.732-1.805 1.246-.757.515-1.584 1.078-2.51 1.681l-2.9 1.89-.576.363c-.12-.053-.16-.16-.177-.368l.541-.35 2.926-1.837c.935-.59 1.826-1.113 2.575-1.574.749-.461 1.333-.794 1.775-1.047l.757-.448ZM66.59 33.07 64.73 34.3c-1.026.674-2.065 1.33-2.84 1.827-.775.497-1.242.763-1.298.799.052-.05.498-.444 1.177-.99a38.663 38.663 0 0 1 2.753-1.973 46.786 46.786 0 0 1 2.047-1.251l.022.36ZM66.967 37.013c-.16.084-.329.164-.497.235a3.987 3.987 0 0 1-.502.182 3.83 3.83 0 0 1 .376-.377c.186-.16.38-.315.584-.444l.04.404Z" fill="#000"/><path d="M45.434 43.71c-.81.382-1.597.822-2.164 1.154-.567.333-.961.59-.961.59s.433-.128 1.056-.386c.623-.257 1.45-.599 2.25-.989.802-.39 1.598-.816 2.165-1.154.567-.337.96-.59.96-.59s-.432.133-1.055.386a38.03 38.03 0 0 0-2.25.99ZM47.845 4.865c.84-.39 1.684-.78 2.48-1.13l2.164-.963 2.125-.936s-.891.262-2.211.723c-.658.24-1.424.51-2.23.851-.805.342-1.662.706-2.514 1.087-.853.382-1.68.816-2.459 1.215-.779.4-1.489.803-2.095 1.15a41.735 41.735 0 0 0-1.995 1.223l2.095-1.02 2.164-1.033a69.274 69.274 0 0 1 2.476-1.167ZM50.044 10.175c-.71.292-1.398.64-2.056 1.038-.299.18-.588.375-.866.586 0 0 .394-.142.965-.382l2.104-.887 2.103-.856c.572-.235.957-.408.957-.408a10.07 10.07 0 0 0-1.021.186c-.746.185-1.476.427-2.186.723ZM26.177.009c-.398.328-.774.625-1.103.887-.667.524-1.143.86-1.204.888.048-.054.433-.484 1.061-1.074.225-.218.472-.444.744-.71l.502.009ZM6.129 10.88a33.65 33.65 0 0 0 1.787-1.353c.49-.39.77-.674.77-.674s-.376.177-.9.484c-.523.306-1.216.736-1.887 1.202-.67.466-1.298.963-1.787 1.353-.49.39-.77.674-.77.674s.372-.177.891-.488c.52-.31 1.225-.732 1.896-1.197ZM203.088 41.36c.143.018.288.026.433.027a2.646 2.646 0 0 0-.377-.244 5.099 5.099 0 0 0-1.792-.603 2.956 2.956 0 0 0-.433-.023c.12.09.246.172.377.244a5.042 5.042 0 0 0 1.792.6ZM191.536 25.814c.121.022 1.047.186 2.423.47v.209c-1.38-.373-2.302-.643-2.423-.679ZM206.637 29.243c.004.087.004.174 0 .261l-2.311-.497-3.182-.705v-.444l3.247.794 2.246.59ZM122.928 34.304l-.286-.08-2.437-.679-2.424-.732c-.766-.23-1.484-.479-2.103-.674a61.35 61.35 0 0 1-2.026-.71c.1 0 .918.195 2.091.488.623.164 1.355.337 2.129.555l2.433.679 2.424.732.134.04c.022.146.043.252.065.381ZM100.659 32.059v.27l-.723-.19c-1.593-.444-2.684-.741-2.814-.777.135 0 1.251.222 2.862.555l.675.142ZM115.34 35.665l-.502-.093c-.498-.093-1.324-.253-2.359-.444l-2.93-.63c0-.115.03-.23.048-.346h.026l2.904.75c1.017.266 1.826.497 2.316.634l.497.13ZM175.69 9.115l-.948-.328c-.84-.31-1.667-.657-2.281-.932a9.302 9.302 0 0 1-.628-.301l-.381-.196s.308.063.792.196l.29.084c.65.19 1.502.444 2.342.767.277.102.55.205.814.311a5.317 5.317 0 0 0 0 .4ZM157.71 33.984a1.448 1.448 0 0 0 0 .186l-.645-.181a42.791 42.791 0 0 1-2.277-.706c-.822-.284-1.567-.55-2.376-.847v-.444c.866.333 1.688.661 2.489.945l2.233.82.576.227ZM135.558 17.325c.268.066.542.106.818.12.127.01.254.01.381 0a2.664 2.664 0 0 0-.329-.209 4.22 4.22 0 0 0-.775-.293 3.912 3.912 0 0 0-.814-.115 1.876 1.876 0 0 0-.385 0c.106.076.217.145.333.204.247.123.505.222.771.293ZM103.875 8.387c.155.022 1.354.204 3.125.51-.005.07-.005.14 0 .209-1.775-.4-2.974-.683-3.125-.719ZM119.158 11.222l.065.386-3.718-.714-2.779-.568c0-.125.035-.244.048-.368l2.804.536 3.58.728ZM127.208 13l-.753-.12a.277.277 0 0 1 0-.057l.753.177Z" fill="#000"/></svg>