<svg width="121" height="35" fill="none" xmlns="http://www.w3.org/2000/svg"><path d="M35.89 23.384v-11.36h3.785v8.212h8.187v3.152l-11.973-.004ZM62.915 12.023v6.399c0 1.337-.264 2.4-.792 3.191-.527.79-1.283 1.35-2.267 1.68-.983.329-2.212.493-3.686.493-1.475 0-2.703-.165-3.687-.493-.982-.329-1.738-.886-2.267-1.672-.528-.785-.792-1.852-.792-3.199v-6.399h3.785v6.288c0 .816.255 1.405.764 1.766s1.242.542 2.2.542c.95 0 1.68-.18 2.194-.542.514-.361.77-.95.768-1.766v-6.288h3.78ZM81.564 23.384h-3.786v-7.735h-.088l-2.995 7.735H71.84l-3.037-7.831H68.7v7.83h-3.58v-11.36h5.81l2.304 6.383h.102l2.26-6.383h5.972l-.004 11.36ZM83.764 23.384v-11.36h3.785v11.364l-3.785-.004ZM102.728 13.156c1.276.997 1.914 2.524 1.914 4.584 0 2.06-.638 3.588-1.914 4.584-1.277.996-3.171 1.494-5.683 1.494-2.505 0-4.395-.498-5.671-1.494-1.276-.996-1.915-2.524-1.917-4.584 0-2.058.638-3.586 1.914-4.584 1.277-.997 3.167-1.495 5.671-1.494 2.514-.001 4.409.497 5.686 1.494Zm-3.104 6.805c.577-.515.865-1.255.866-2.22 0-.966-.288-1.706-.866-2.221-.576-.515-1.437-.772-2.582-.772-1.145 0-2.003.257-2.575.772-.572.515-.858 1.255-.858 2.22 0 .966.286 1.706.858 2.22.573.515 1.431.773 2.575.773 1.145 0 2.005-.258 2.582-.772ZM114.686 14.51c-.417-.2-1.016-.299-1.798-.299-.802 0-1.374.082-1.717.247-.342.164-.514.405-.514.723a.592.592 0 0 0 .308.558c.204.116.556.201 1.056.255l4.269.381c1.292.117 2.263.451 2.913 1.003.65.552.975 1.385.975 2.5 0 1.05-.261 1.861-.785 2.434-.523.573-1.291.968-2.304 1.186-1.013.218-2.35.327-4.012.327-1.596 0-2.887-.117-3.874-.35-.987-.234-1.748-.654-2.282-1.258-.533-.604-.819-1.459-.858-2.563h4.407c.108.605.379 1.022.814 1.25.435.228 1.083.342 1.945.342.88 0 1.513-.087 1.9-.263.386-.175.579-.45.579-.822 0-.308-.113-.532-.337-.672-.225-.14-.563-.23-1.013-.27l-4.108-.43c-1.301-.138-2.279-.462-2.934-.972-.655-.51-.983-1.322-.983-2.435 0-.947.261-1.692.785-2.236.523-.545 1.271-.93 2.245-1.155.972-.222 2.192-.334 3.66-.334 1.457 0 2.67.114 3.639.342.968.229 1.724.624 2.267 1.186.543.563.829 1.332.858 2.308h-4.358a1.26 1.26 0 0 0-.243-.584 1.31 1.31 0 0 0-.5-.4Z" fill="#fff"/><mask id="a" maskUnits="userSpaceOnUse" x="-.015" y="4.747" width="32" height="26" fill="#000"><path fill="#fff" d="M-.015 4.747h32v26h-32z"/><path fill-rule="evenodd" clip-rule="evenodd" d="M17.417 27.197a11.567 11.567 0 0 1-2.864-.001c-.222 1.22-.867 2.124-1.784 2.43-.764.258-1.494.027-1.574.001h-.001c-1.72-.574-2.21-3.044-2.336-4.854a10.933 10.933 0 0 1-2.296-2.557c-.049.205-.087.392-.123.564-.145.703-.234 1.137-.764 1.458-.79.478-1.785.238-1.838.225-1.018-.261-1.465-1.13-1.575-1.35-1.083-2.117 1.345-4.704 1.575-4.944a7.385 7.385 0 0 1 1.069-.915c-.017-.244-.026-.49-.026-.738 0-5.947 4.974-10.769 11.11-10.769 6.136 0 11.11 4.822 11.11 10.769 0 .253-.009.503-.026.751.345.246.702.541 1.048.902.241.24 2.67 2.827 1.585 4.944-.11.218-.556 1.087-1.574 1.35-.053.013-1.048.253-1.838-.225-.527-.32-.616-.753-.761-1.454-.035-.17-.074-.355-.122-.558a10.93 10.93 0 0 1-2.301 2.557c-.128 1.808-.618 4.27-2.335 4.844h-.001c-.08.026-.81.257-1.574 0-.917-.307-1.561-1.21-1.784-2.43Z"/></mask><path fill-rule="evenodd" clip-rule="evenodd" d="M17.417 27.197a11.567 11.567 0 0 1-2.864-.001c-.222 1.22-.867 2.124-1.784 2.43-.764.258-1.494.027-1.574.001h-.001c-1.72-.574-2.21-3.044-2.336-4.854a10.933 10.933 0 0 1-2.296-2.557c-.049.205-.087.392-.123.564-.145.703-.234 1.137-.764 1.458-.79.478-1.785.238-1.838.225-1.018-.261-1.465-1.13-1.575-1.35-1.083-2.117 1.345-4.704 1.575-4.944a7.385 7.385 0 0 1 1.069-.915c-.017-.244-.026-.49-.026-.738 0-5.947 4.974-10.769 11.11-10.769 6.136 0 11.11 4.822 11.11 10.769 0 .253-.009.503-.026.751.345.246.702.541 1.048.902.241.24 2.67 2.827 1.585 4.944-.11.218-.556 1.087-1.574 1.35-.053.013-1.048.253-1.838-.225-.527-.32-.616-.753-.761-1.454-.035-.17-.074-.355-.122-.558a10.93 10.93 0 0 1-2.301 2.557c-.128 1.808-.618 4.27-2.335 4.844h-.001c-.08.026-.81.257-1.574 0-.917-.307-1.561-1.21-1.784-2.43Z" fill="#000"/><path d="m17.417 27.197.983-.18-.17-.929-.937.116.124.993Zm-2.864-.001.125-.993-.939-.117-.17.93.984.18Zm-1.784 2.43-.317-.948h-.002l.32.949Zm-1.574.001-.301.954.301-.954Zm-.001 0-.317.948.008.003.007.002.302-.953Zm-2.336-4.854.998-.07-.03-.433-.337-.273-.63.776Zm-2.296-2.557.84-.542-1.268-1.968-.544 2.278.973.232Zm-.123.564-.979-.203.98.203Zm-.764 1.458-.518-.856.518.856Zm-1.838.225.249-.969-.249.969Zm-1.575-1.35.893-.45-.003-.006-.89.456Zm1.575-4.944-.72-.694-.002.002.722.692Zm1.069-.915.576.817.46-.325-.038-.562-.998.07Zm22.168.013-.998-.07-.04.56.458.325.58-.815Zm1.048.902-.721.692.007.008.008.008.706-.708Zm1.585 4.944-.89-.456-.003.006.893.45Zm-1.574 1.35.248.968h.001l-.25-.968Zm-1.838-.225-.52.854.002.001.518-.855Zm-.761-1.454-.98.203.98-.203Zm-.122-.558.972-.232-.543-2.274-1.27 1.963.84.543Zm-2.301 2.557-.63-.777-.337.273-.03.433.997.07Zm-2.335 4.844.302.953.007-.002.008-.003-.317-.948Zm-.001 0-.302-.953.302.953Zm-1.574 0 .319-.948h-.002l-.317.948Zm-3.21-1.342c.524 0 1.041-.033 1.549-.096l-.247-1.985c-.426.053-.86.08-1.303.08v2Zm-1.562-.097a12.57 12.57 0 0 0 1.561.097v-2c-.445 0-.883-.028-1.312-.082l-.249 1.985Zm-.86-1.172c-.182 1-.66 1.51-1.117 1.662l.634 1.897c1.379-.461 2.188-1.758 2.451-3.2l-1.967-.359ZM12.45 28.68a1.51 1.51 0 0 1-.624.059c-.191-.02-.32-.061-.329-.064l-.603 1.907c.113.035 1.11.358 2.194-.006l-.638-1.896Zm-.953-.005h-.002l-.603 1.906h.002l.603-1.906Zm.013.004c-.448-.15-.842-.58-1.149-1.374-.3-.781-.445-1.737-.505-2.6l-1.995.14c.066.945.23 2.129.635 3.18.4 1.035 1.11 2.127 2.381 2.551l.633-1.897Zm-5.788-5.92a11.932 11.932 0 0 0 2.506 2.791l1.26-1.552a9.932 9.932 0 0 1-2.085-2.323l-1.68 1.084Zm-.132-.774c-.053.222-.095.423-.13.593l1.959.405c.035-.172.071-.345.116-.534l-1.945-.464Zm-.13.593c-.08.386-.118.55-.17.664a.272.272 0 0 1-.043.072.372.372 0 0 1-.09.07l1.036 1.71c.952-.576 1.093-1.465 1.226-2.111l-1.959-.404Zm-.303.805c-.178.108-.418.154-.672.153-.247-.002-.424-.047-.4-.04L3.59 25.43c.077.02.424.101.885.104.454.002 1.107-.071 1.72-.442l-1.037-1.71Zm-1.071.112c-.558-.143-.832-.634-.931-.831l-1.786.9c.122.242.74 1.49 2.22 1.868l.497-1.937Zm-.934-.837c-.312-.61-.168-1.394.288-2.25a7.545 7.545 0 0 1 1.12-1.547l-1.445-1.383a9.534 9.534 0 0 0-1.441 1.99c-.546 1.027-1.074 2.594-.302 4.101l1.78-.91Zm1.406-3.795c.303-.315.617-.574.924-.79L4.33 16.436c-.397.28-.81.62-1.213 1.038l1.44 1.387Zm-.678-2.346c0 .271.01.54.028.808l1.996-.14a9.595 9.595 0 0 1-.024-.668h-2ZM15.99 4.747c-6.658 0-12.11 5.24-12.11 11.769h2c0-5.366 4.497-9.769 10.11-9.769v-2ZM28.1 16.516c0-6.529-5.451-11.769-12.11-11.769v2c5.614 0 10.11 4.403 10.11 9.769h2Zm-.029.822c.02-.272.03-.546.03-.822h-2c0 .229-.009.456-.025.68l1.995.142Zm-1.577.744c.302.214.61.47.907.78l1.442-1.386c-.395-.411-.8-.747-1.19-1.024l-1.159 1.63Zm.922.795c.083.082.676.71 1.113 1.53.457.857.6 1.64.288 2.25l1.78.912c.773-1.508.245-3.075-.303-4.102a9.264 9.264 0 0 0-1.466-2.007l-1.412 1.417Zm1.398 3.786c-.098.195-.372.687-.931.831l.5 1.937c1.477-.38 2.096-1.627 2.218-1.869l-1.787-.899Zm-.93.831c.025-.006-.152.04-.399.04-.254.002-.494-.044-.672-.152l-1.036 1.711c.612.37 1.265.444 1.719.442.46-.003.808-.084.885-.104l-.497-1.937Zm-1.07-.111a.365.365 0 0 1-.088-.069.273.273 0 0 1-.043-.071c-.052-.115-.09-.278-.17-.662l-1.959.405c.133.644.274 1.53 1.222 2.106l1.038-1.709Zm-.301-.802c-.035-.168-.076-.367-.129-.587l-1.945.465c.045.186.08.357.115.527l1.959-.405ZM23.74 25.56a11.933 11.933 0 0 0 2.512-2.791l-1.68-1.086a9.933 9.933 0 0 1-2.09 2.323l1.258 1.554Zm-1.627-.848c-.06.863-.205 1.817-.506 2.596-.307.792-.7 1.22-1.147 1.37l.633 1.897c1.27-.423 1.98-1.512 2.38-2.546.405-1.048.569-2.23.636-3.176l-1.996-.14Zm-1.638 3.961h-.002l.603 1.908h.002l-.603-1.908Zm-.002 0c-.01.004-.138.046-.328.065a1.51 1.51 0 0 1-.625-.06l-.638 1.896c1.085.365 2.081.042 2.194.007l-.603-1.907Zm-.955.005c-.456-.152-.935-.661-1.118-1.66l-1.967.359c.263 1.44 1.073 2.737 2.45 3.198l.635-1.897Z" fill="#fff" mask="url(#a)"/><path d="M15.99 22.179c4.087 0 7.4-2.535 7.4-5.663 0-3.127-3.313-5.662-7.4-5.662-4.086 0-7.4 2.535-7.4 5.662 0 3.128 3.314 5.663 7.4 5.663Z" fill="#fff"/><path d="M12.82 18.451c1.274 0 2.101-1.282 2.101-2.576s-.827-2.576-2.1-2.576c-1.274 0-2.102 1.282-2.102 2.576s.828 2.576 2.101 2.576ZM18.89 18.451c1.273 0 2.1-1.282 2.1-2.576s-.827-2.576-2.1-2.576c-1.274 0-2.101 1.282-2.101 2.576s.827 2.576 2.1 2.576Z" fill="#000" stroke="#fff"/></svg>