<svg width="42" height="42" fill="none" xmlns="http://www.w3.org/2000/svg"><path fill="#9C9D9F" d="M0 0h42v42H0z"/><path fill-rule="evenodd" clip-rule="evenodd" d="m15.202 12.133 3.171 3.171a.442.442 0 0 1 0 .626c-.585.585-1.448 1.448-1.982 1.986a1.323 1.323 0 0 0-.192 1.624 21.219 21.219 0 0 0 6.26 6.265l.012.008a1.326 1.326 0 0 0 1.618-.201l1.983-1.983a.442.442 0 0 1 .626 0l3.17 3.17a.443.443 0 0 1 0 .626c-.46.46-1.103 1.103-1.669 1.664l-.001.002a3.092 3.092 0 0 1-2.861.83c-1.978-.468-5.17-1.695-8.366-4.89-3.195-3.195-4.422-6.388-4.894-8.365a3.096 3.096 0 0 1 .832-2.864l1.668-1.668a.443.443 0 0 1 .625 0Zm5.877 1.273a7.52 7.52 0 0 1 7.517 7.516.442.442 0 0 0 .884 0c0-4.636-3.765-8.4-8.4-8.4a.442.442 0 1 0 0 .884Z" fill="#141414"/><path fill-rule="evenodd" clip-rule="evenodd" d="M21.08 16.059a4.866 4.866 0 0 1 4.863 4.863.442.442 0 0 0 .884 0 5.75 5.75 0 0 0-5.747-5.747.442.442 0 0 0 0 .884Z" fill="#141414"/><path fill-rule="evenodd" clip-rule="evenodd" d="M21.08 18.712c1.22 0 2.21.99 2.21 2.21a.442.442 0 1 0 .884 0 3.097 3.097 0 0 0-3.094-3.094.442.442 0 0 0 0 .884Z" fill="#141414"/></svg>