<svg width="80" height="80" fill="none" xmlns="http://www.w3.org/2000/svg"><circle cx="40" cy="40" r="40" fill="#FE9A02"/><path d="M29.723 35.926c-2.071-.597-1.924-.597-1.628-2.536.148-1.193.296-2.237.296-3.43 0-.894.296-1.193 1.184-1.193 1.627 0 1.48 0 1.331-1.64-.296-2.536.148-4.922 1.627-7.01.888-1.194 1.924-1.79 3.404-1.939.295 0 .591 0 .887.15.296 0 .592.148.888.297 0-.298.148-.746 0-1.044-.888-2.982 1.035-6.263 4.142-6.561 1.036-.15 2.072.596 2.96.894 1.774.447 1.922 2.088 2.07 3.58.148.894.148 1.938-1.183 2.386-.296.149-.444 1.044-.592 1.64 1.775.447 1.775-.298 3.403-.895 1.627.299 1.331.746 2.367.746h11.096c.592 0 1.036.299 1.627.447 0-.596.888-.149 1.332 1.044 1.331-.148 2.663-.148 3.847-.298.592 0 1.331 0 1.923.15.148 0 .296.298.296.298 0 .149-.296.447-.296.447h-1.923c-1.332 0-2.663-.15-3.847 0-2.072.299-4.142.746-6.214.746-2.071-.15-3.55 1.939-3.107 3.878l.444 1.342c-1.184.298-1.332 1.193-1.48 2.088-.147 1.64-1.479 2.535-2.663 3.132-.74.298-1.775 0-2.663-.298-1.331-.448-2.515-1.193-3.847-1.79-.295.746-.74 1.491.444 1.939.296.15.444.596.444.895-.148 2.237-.296 4.325-.592 6.562-.148.745-.591 1.193-1.48.745-.148 0-.74.299-.74.448.15.745.15 1.64.592 2.237 2.072 2.386 3.403 5.22 4.44 8.054.295.745.887 1.49 1.183 2.386.74 2.237.148 4.325 0 6.562-.148.894 0 1.789 0 2.833 0 .597 0 1.194-.148 1.79l-.444 2.237c0 2.386 1.184 4.176 3.403 5.07.444.15.74.299 1.036.597.295.299.443.746.295 1.044 0 .15-.592.448-.74.448l-5.326-.448h-2.22c-.887 0-1.33-.298-1.035-1.342.296-1.79 1.184-3.579.74-5.518-.148-.894-.444-1.79-.592-2.684-.295-1.64-.592-3.132-.592-4.773 0-.895.444-1.64.592-2.535.296-1.193-.148-1.491-1.331-1.79-.444 0-1.036-.447-1.48-.895-.887-1.193-1.627-2.386-2.515-3.728-.148-.15-.295-.596-.443-.596-1.184.149-1.628-.895-2.22-1.94-.887 1.94-1.775 3.58-2.515 5.22-.148.448-.148 1.044-.444 1.492a6.995 6.995 0 0 1-.74 1.491c-.74 1.194-1.48 2.237-2.22 3.282 0 .148-.147.148-.147.297.444 2.536-1.331 4.475-2.071 6.563-.148.745-1.184 1.192-1.48 1.938-.74 1.64-1.036 3.281-.296 5.071.444 1.044.149 1.491-1.035 1.491h-2.515c-.888 0-1.332-.596-1.184-1.491.296-1.64.74-3.281 1.036-4.922.148-.746 0-1.64.148-2.535.148-.895.295-1.64.443-2.535.296-.895.444-1.79.888-2.685.444-1.044.888-2.088 1.48-3.132.443-.746.887-1.342 1.183-2.088.148-.298.296-.746.296-1.193l.444-5.816c0-.448-.148-1.044-.148-1.492 0-1.044-.148-2.088-.148-3.132 0-.298.148-.745.296-.745 1.035-.299.591-1.045.591-1.492-.148-1.193-.295-2.237-.444-3.43.446-.895.298-1.939 1.63-2.386Zm21.6-9.396c.592-1.044 1.332-1.79 1.776-2.684.148-.299 0-.895-.296-1.044-.148-.15-.74 0-1.035.149-.593.447-.888 1.043-1.48 1.79.296.447.592 1.043 1.036 1.789Z" fill="#141414"/></svg>