<svg width="665" height="635" fill="none" xmlns="http://www.w3.org/2000/svg"><mask id="a" style="mask-type:luminance" maskUnits="userSpaceOnUse" x="-97" y="0" width="860" height="636"><path d="M762.314 0H-96.314v635.934h858.628V0Z" fill="#fff"/></mask><g mask="url(#a)"><path d="M762.314 0H-96.314v635.934h858.628V0Z" fill="#D9D9D9"/><g opacity=".5"><path d="m761.524 638.417-364.987.002L548.747.001 761.524 0v638.417Z" fill="#F2F2F2"/><path d="M452.671 280.352h.744l-84.632 355.583h-.744l84.632-355.583Zm-2.539 0h.744l-84.628 355.583h-.748l84.632-355.583Zm-2.537 0h.748l-84.632 355.583h-.748l84.632-355.583Zm-2.534 0h.745l-84.632 355.583h-.744l84.631-355.583Zm-2.537 0h.745l-84.632 355.583h-.744l84.631-355.583Zm-2.537 0h.748l-84.631 355.583h-.749l84.632-355.583Zm-2.537 0h.748l-84.632 355.583h-.744l84.628-355.583Zm-2.535 0h.744l-84.632 355.583h-.744l84.632-355.583Zm-2.537 0h.744l-84.628 355.583h-.748l84.632-355.583Zm-2.537 0h.748l-84.632 355.583h-.748l84.632-355.583Zm-2.533 0h.744L343.42 635.935h-.744l84.632-355.583Zm-2.538 0h.745l-84.632 355.583h-.744l84.631-355.583Zm-2.537 0h.749L338.35 635.935h-.748l84.631-355.583Zm-2.539 0h.748l-84.631 355.583h-.745l84.628-355.583Zm-2.533 0h.744l-84.632 355.583h-.744l84.632-355.583Zm-2.537 0h.748L330.74 635.935h-.748l84.632-355.583Zm-2.537 0h.748l-84.632 355.583h-.744l84.628-355.583Zm-2.533 0h.744l-84.632 355.583h-.744l84.632-355.583Zm-2.539 0h.744l-84.628 355.583h-.748l84.632-355.583Zm-2.538 0h.749l-84.632 355.583h-.748l84.631-355.583Zm-2.533 0h.744l-84.631 355.583h-.745l84.632-355.583Zm-2.537 0h.744L315.52 635.935h-.745l84.632-355.583Zm-2.537 0h.748l-84.632 355.583h-.748l84.632-355.583Zm-2.537 0h.748l-84.632 355.583h-.744l84.628-355.583Zm-2.535 0h.744L307.91 635.935h-.744l84.632-355.583Zm-2.537 0h.744l-84.628 355.583h-.748l84.632-355.583Zm-2.537 0h.748L302.84 635.935h-.748l84.632-355.583Zm-2.534 0h.745l-84.632 355.583h-.744l84.631-355.583Zm-2.537 0h.744l-84.63 355.583h-.746l84.632-355.583Zm-2.538 0h.748L295.23 635.935h-.746l84.631-355.583ZM537.386-75.232h.744L453.498 280.35h-.744l84.632-355.583Zm-2.537 0h.744L450.965 280.35h-.748l84.632-355.583Zm-2.54 0h.749L448.426 280.35h-.748l84.631-355.583Zm-2.533 0h.744L445.889 280.35h-.744l84.631-355.583Zm-2.537 0h.744L443.352 280.35h-.745l84.632-355.583Zm-2.537 0h.748L440.819 280.35h-.749l84.632-355.583Zm-2.537 0h.748L438.281 280.35h-.744l84.628-355.583Zm-2.535 0h.744L435.742 280.35h-.744L519.63-75.232Zm-2.537 0h.744L433.209 280.35h-.748l84.632-355.583Zm-2.537 0h.748L430.672 280.35h-.748l84.632-355.583Zm-2.534 0h.745L428.135 280.35h-.744l84.631-355.583Zm-2.537 0h.744L425.598 280.35h-.744l84.631-355.583Zm-2.539 0h.748L423.063 280.35h-.749l84.632-355.583Zm-2.537 0h.748L420.525 280.35h-.744l84.628-355.583Zm-2.533 0h.744L417.988 280.35h-.744l84.632-355.583Zm-2.537 0h.748L415.455 280.35h-.748l84.632-355.583Zm-2.537 0h.748L412.918 280.35h-.744l84.628-355.583Zm-2.534 0h.745L410.381 280.35h-.744l84.631-355.583Zm-2.539 0h.745L407.846 280.35h-.748l84.631-355.583Zm-2.537 0h.748L405.309 280.35h-.748l84.631-355.583Zm-2.533 0h.744L402.772 280.35h-.745l84.632-355.583Zm-2.537 0h.744L400.234 280.35h-.744l84.632-355.583Zm-2.537 0h.748L397.701 280.35h-.748l84.632-355.583Zm-2.539 0h.748L395.162 280.35h-.744l84.628-355.583Zm-2.533 0h.744L392.625 280.35h-.744l84.632-355.583Zm-2.537 0h.744L390.092 280.35h-.748l84.632-355.583Zm-2.538 0h.749L387.555 280.35h-.748l84.631-355.583Zm-2.533 0h.744L385.018 280.35h-.745l84.632-355.583Zm-2.537 0h.744L382.485 280.35h-.749l84.632-355.583Zm-2.539 0h.748L379.945 280.35h-.748l84.632-355.583Z" fill="#BDBDBD"/><path opacity=".6" fill-rule="evenodd" clip-rule="evenodd" d="M-14.807 413.903h-.673l140.501-590.63h.674l-140.502 590.63Zm2.29 0h-.673l140.501-590.63h.674l-140.502 590.63Zm2.29 0h-.673l140.5-590.63h.673l-140.501 590.63Zm2.29 0h-.673l140.501-590.63h.673l-140.5 590.63Zm2.29 0h-.674l140.502-590.63h.673l-140.5 590.63Zm2.29 0h-.673l140.501-590.63h.673l-140.5 590.63Zm2.29 0h-.673l140.501-590.63h.674L-1.067 413.903Zm2.29 0H.55l140.501-590.63h.674L1.223 413.903Zm2.29 0H2.84l140.501-590.63h.674L3.513 413.903Zm2.29 0H5.13l140.501-590.63h.673l-140.5 590.63Zm2.29 0H7.42l140.501-590.63h.673l-140.5 590.63Zm2.29 0H9.71l140.501-590.63h.674L10.383 413.903Zm2.29 0H12l140.5-590.63h.674L12.673 413.903Zm2.29 0h-.673l140.501-590.63h.674L14.964 413.903Zm2.29 0h-.673l140.501-590.63h.674L17.253 413.903Zm2.29 0h-.673l140.501-590.63h.674L19.543 413.903Zm2.29 0h-.673l140.501-590.63h.673l-140.5 590.63Zm2.29 0h-.673l140.501-590.63h.674L24.123 413.903Zm2.29 0h-.673l140.501-590.63h.674L26.413 413.903Zm2.29 0h-.673l140.501-590.63h.674L28.703 413.903Zm2.29 0h-.673l140.501-590.63h.674L30.994 413.903Zm2.29 0h-.673l140.501-590.63h.674L33.283 413.903Zm2.29 0H34.9l140.501-590.63h.674L35.573 413.903Zm2.29 0h-.673l140.501-590.63h.674L37.863 413.903Zm2.29 0h-.673l140.501-590.63h.674L40.154 413.903Zm2.29 0h-.673l140.501-590.63h.674L42.444 413.903Zm2.29 0h-.673l140.501-590.63h.674L44.734 413.903Zm2.29 0h-.673l140.501-590.63h.674L47.024 413.903Zm2.29 0h-.673l140.501-590.63h.674L49.313 413.903Zm2.29 0h-.673l140.501-590.63h.674L51.603 413.903Zm2.29 0h-.673l140.501-590.63h.674L53.893 413.903Zm2.29 0h-.673l140.501-590.63h.674L56.184 413.903Zm2.29 0H57.8l140.501-590.63h.674L58.474 413.903Zm2.29 0h-.673l140.502-590.63h.673L60.764 413.903Zm2.29 0h-.673l140.501-590.63h.674L63.054 413.903Zm2.29 0h-.673l140.501-590.63h.674L65.344 413.903Zm2.29 0h-.673l140.501-590.63h.674L67.634 413.903Zm2.29 0h-.673l140.501-590.63h.674L69.924 413.903Zm2.29 0h-.673l140.502-590.63h.673L72.214 413.903Zm2.29 0h-.673l140.502-590.63h.673L74.504 413.903Zm2.29 0h-.673l140.502-590.63h.673L76.794 413.903Zm2.29 0h-.673l140.501-590.63h.674L79.084 413.903Zm2.291 0H80.7l140.501-590.63h.674L81.374 413.903Z" fill="#BEBEBE"/><path d="M320.096-398.167h-1.326L18.055 865.964h1.325L320.096-398.167Zm4.505 0h-1.322L22.56 865.964h1.326L324.6-398.167Zm4.509 0h-1.326L27.067 865.964h1.326L329.11-398.167Zm4.505 0h-1.326L31.573 865.964H32.9L333.615-398.167Zm4.506 0h-1.326L36.08 865.964h1.325L338.121-398.167Zm4.508 0h-1.326L40.586 865.964h1.325L342.63-398.167Zm4.505 0h-1.326L45.092 865.964h1.325L347.134-398.167ZM351.253-398.167h-1.326L49.211 865.964h1.325L351.253-398.167Zm4.505 0h-1.326L53.717 865.964h1.325L355.758-398.167Zm4.504 0h-1.322L58.223 865.964h1.325L360.262-398.167Zm4.509 0h-1.326L62.729 865.964h1.325L364.77-398.167Zm4.506 0h-1.326L67.235 865.964h1.326L369.277-398.167Zm4.504 0h-1.322L71.741 865.964h1.326L373.78-398.167Zm4.509 0h-1.326L76.247 865.964h1.325L378.29-398.167Z" opacity=".6" fill="#BEBEBE"/><path d="M23.22-6.387H-4.848l-152.825 642.435h28.07L23.221-6.387Z" fill="#E0E0E0"/><path d="M20.428-6.387h2.793l-152.825 642.435h-2.792L20.428-6.387Z" fill="#E0E0E0"/><path d="M.404-6.387h-.673l-152.825 642.435h.674L.404-6.387Zm2.29 0h-.673l-152.825 642.435h.674L2.694-6.387Zm2.291 0h-.673l-152.826 642.435h.674L4.985-6.387Zm2.289 0h-.673l-152.826 642.435h.674L7.274-6.387Zm2.29 0H8.89l-152.825 642.435h.674L9.564-6.387Z" fill="#F2F2F2"/><path d="M834.208 0H593.499L440.676 642.436h240.705L834.208 0ZM586.77 0h-13.658L420.289 642.436h13.657L586.77 0Z" fill="#D9D9D9"/></g></g></svg>